<svg width="606" height="606" viewBox="0 0 606 606" fill="none" xmlns="http://www.w3.org/2000/svg">
<path d="M595.064 100.537C589.024 100.537 584.127 105.433 584.127 111.473V584.126H496.679V559.499H549.018C555.058 559.499 559.955 554.602 559.955 548.563V355.187C559.955 349.147 555.058 344.251 549.018 344.251H502.285V320.079H549.018C555.058 320.079 559.955 315.183 559.955 309.143V56.526C559.955 50.4861 555.058 45.5896 549.018 45.5896H326.022C319.982 45.5896 315.086 50.4861 315.086 56.526V214.948H290.913V56.526C290.913 50.4861 286.017 45.5896 279.977 45.5896H56.9818C50.9419 45.5896 46.0454 50.4861 46.0454 56.526V262.287V309.142C46.0454 315.181 50.9419 320.078 56.9818 320.078H96.528C102.568 320.078 107.464 315.181 107.464 309.142C107.464 303.102 102.568 298.205 96.528 298.205H67.9182V273.223H114.327C153.017 273.223 184.494 241.747 184.494 203.057V67.4624H269.04V225.884C269.04 231.924 273.937 236.82 279.977 236.82H326.022C332.062 236.82 336.959 231.924 336.959 225.884V67.4624H538.081V95.5988H509.2C503.16 95.5988 498.263 100.495 498.263 106.535V256.73C498.263 262.77 503.16 267.666 509.2 267.666H538.081V298.205H491.348C485.308 298.205 480.411 303.102 480.411 309.142V355.186C480.411 361.226 485.308 366.122 491.348 366.122H538.081V537.625H485.74C479.7 537.625 474.803 542.521 474.803 548.561V595.062C474.803 601.102 479.7 605.999 485.74 605.999H595.06C601.1 605.999 605.997 601.102 605.997 595.062V111.473C606 105.433 601.104 100.537 595.064 100.537ZM162.622 203.057H162.621C162.621 229.686 140.957 251.35 114.327 251.35H67.9182V67.4624H75.898V74.532C75.898 80.5719 80.7945 85.4684 86.8344 85.4684C92.8743 85.4684 97.7708 80.5719 97.7708 74.532V67.4624H104.333V96.4048C104.333 102.445 109.229 107.341 115.269 107.341C121.309 107.341 126.205 102.445 126.205 96.4048V67.4624H132.767V74.532C132.767 80.5719 137.664 85.4684 143.704 85.4684C149.744 85.4684 154.64 80.5719 154.64 74.532V67.4624H162.621V203.057H162.622ZM538.082 245.794H520.137V117.472H538.082V245.794Z" fill="#ECECEC"/>
<path d="M595.064 0.000976562H10.9364C4.89653 0.000976562 0 4.8975 0 10.9374V595.063C0 601.103 4.89653 606 10.9364 606H397.651C403.691 606 408.587 601.103 408.587 595.063V548.562C408.587 542.522 403.691 537.626 397.651 537.626H336.958V431.153C336.958 425.114 332.062 420.217 326.022 420.217H279.977C273.937 420.217 269.04 425.114 269.04 431.153V537.626H67.9182V512.567H101.174C111.451 512.567 120.532 507.388 125.973 499.508C135.485 504.437 146.414 507.076 157.895 507.076C192.008 507.076 219.763 483.23 219.763 453.92C219.763 445.217 217.272 436.586 212.562 428.96C209.388 423.823 202.648 422.228 197.51 425.404C192.371 428.578 190.779 435.316 193.953 440.455C196.565 444.684 197.889 449.214 197.889 453.92C197.889 471.168 179.946 485.202 157.895 485.202C148.055 485.202 138.613 482.321 131.303 477.202V430.636C138.613 425.518 148.055 422.636 157.895 422.636C164.263 422.636 170.351 423.786 175.991 426.05C181.593 428.301 187.964 425.58 190.214 419.974C192.464 414.369 189.744 408.001 184.139 405.751C175.895 402.441 167.067 400.762 157.893 400.762C146.411 400.762 135.479 403.402 125.964 408.334C120.523 400.46 111.445 395.285 101.17 395.285H67.9182V366.121H369.768C375.808 366.121 380.704 361.224 380.704 355.184V309.14C380.704 303.1 375.808 298.204 369.768 298.204H131.524C125.485 298.204 120.588 303.1 120.588 309.14C120.588 315.18 125.485 320.077 131.524 320.077H358.832V344.248H56.9818C50.9419 344.248 46.0453 349.145 46.0453 355.184V548.561C46.0453 554.601 50.9419 559.498 56.9818 559.498H279.978C286.018 559.498 290.914 554.601 290.914 548.561V442.089H315.087V548.561C315.087 554.601 319.983 559.498 326.023 559.498H386.716V584.125H21.8728V21.8738H584.127V72.5884C584.127 78.6283 589.024 83.5248 595.064 83.5248C601.103 83.5248 606 78.6283 606 72.5884V10.9374C606 4.8975 601.103 0.000976562 595.064 0.000976562ZM67.9182 417.162H101.174V417.161C105.728 417.161 109.432 420.864 109.432 425.419V482.437C109.432 486.989 105.728 490.695 101.174 490.695H67.9182V417.162Z" fill="#ECECEC"/>
<path d="M457.151 95.5989H376.412C370.373 95.5989 365.476 100.495 365.476 106.535V256.73C365.476 262.77 370.373 267.666 376.412 267.666H457.151C463.191 267.666 468.088 262.77 468.088 256.73V221.004V142.261V106.535C468.088 100.495 463.191 95.5989 457.151 95.5989ZM446.215 210.068H425.354V153.197H446.215V210.068ZM446.215 131.324H414.418C408.378 131.324 403.481 136.221 403.481 142.261V221.004C403.481 227.044 408.378 231.941 414.418 231.941H446.215V245.793H387.349V117.472H446.215V131.324Z" fill="#FF0000"/>
<path d="M154.846 464.861C160.886 464.861 165.783 459.965 165.783 453.925C165.783 447.885 160.886 442.988 154.846 442.988C148.806 442.988 143.91 447.885 143.91 453.925C143.91 459.965 148.806 464.861 154.846 464.861Z" fill="#FF0000"/>
<path d="M115.271 222.537C121.311 222.537 126.208 217.64 126.208 211.6C126.208 205.56 121.311 200.664 115.271 200.664C109.231 200.664 104.335 205.56 104.335 211.6C104.335 217.64 109.231 222.537 115.271 222.537Z" fill="#FF0000"/>
<path d="M439.936 475.873C445.976 475.873 450.873 470.976 450.873 464.936C450.873 458.896 445.976 454 439.936 454C433.896 454 429 458.896 429 464.936C429 470.976 433.896 475.873 439.936 475.873Z" fill="#FF0000"/>
</svg>
