<svg width="104" height="173" viewBox="0 0 104 173" fill="none" xmlns="http://www.w3.org/2000/svg">
<path d="M92.1513 0.598877H11.4125C5.37259 0.598877 0.476074 5.49541 0.476074 11.5353V161.73C0.476074 167.77 5.37259 172.666 11.4125 172.666H92.1513C98.1912 172.666 103.088 167.77 103.088 161.73V126.004V47.2609V11.5353C103.088 5.49541 98.1912 0.598877 92.1513 0.598877ZM81.2149 115.068H60.3541V58.1973H81.2149V115.068ZM81.2149 36.3245H49.4177C43.3778 36.3245 38.4813 41.221 38.4813 47.2609V126.004C38.4813 132.044 43.3778 136.941 49.4177 136.941H81.2149V150.793H22.3489V22.4717H81.2149V36.3245Z" fill="#FF0000"/>
</svg>
