<svg width="87" height="87" viewBox="0 0 87 87" fill="none" xmlns="http://www.w3.org/2000/svg">
<g clip-path="url(#clip0)">
<path d="M70.9751 76.9258H69.535L67.1332 65.5173C66.2904 61.5143 62.7102 58.6091 58.6195 58.6091H58.0361C56.2735 52.3815 50.8138 48.1493 44.6827 47.6613L37.5771 21.1421L38.173 20.9824C39.7848 20.5504 40.7862 18.9848 40.5019 17.3403L38.9011 8.07718C38.4362 5.38801 36.8512 3.00214 34.5516 1.53215C32.2526 0.0619855 29.4217 -0.375902 26.7858 0.330292C24.1497 1.03666 21.9173 2.83137 20.6614 5.25411C19.4055 7.67685 19.2254 10.5356 20.1674 13.097L23.4126 21.9197C23.9888 23.4862 25.6387 24.3414 27.2504 23.9095L27.8463 23.7497L34.9506 50.2633C32.0274 52.2716 29.9195 55.2467 28.9608 58.6091H28.3807C24.29 58.6091 20.7096 61.5143 19.867 65.5173L17.4653 76.926H16.0252C14.2579 76.926 12.8198 78.364 12.8198 80.1314V83.7947C12.8198 85.5621 14.2579 87.0001 16.0252 87.0001H56.322C57.0807 87.0001 57.6958 86.385 57.6958 85.6263C57.6958 84.8676 57.0807 84.2525 56.322 84.2525H16.0252C15.7729 84.2525 15.5673 84.0471 15.5673 83.7946V80.1312C15.5673 79.8789 15.7727 79.6733 16.0252 79.6733H28.8468C29.6055 79.6733 30.2206 79.0582 30.2206 78.2995C30.2206 77.5408 29.6055 76.9257 28.8468 76.9257H20.2728L22.5555 66.0831C23.1319 63.3445 25.5818 61.3566 28.3806 61.3566H28.4467C28.2874 63.0839 28.4256 64.8672 28.9002 66.6379C29.945 70.5368 32.4454 73.7955 35.9409 75.8137C39.4365 77.8318 43.5088 78.368 47.4075 77.3233C51.3064 76.2784 54.5651 73.778 56.5833 70.2826C58.1661 67.5414 58.8371 64.4453 58.5494 61.3566H58.6195C61.4182 61.3566 63.8682 63.3445 64.4445 66.0831L66.7274 76.9257H58.1534C57.3947 76.9257 56.7796 77.5408 56.7796 78.2995C56.7796 79.0582 57.3947 79.6733 58.1534 79.6733H70.975C71.2273 79.6733 71.4329 79.8787 71.4329 80.1312V83.7946C71.4329 84.0469 71.2275 84.2525 70.975 84.2525H61.8167C61.058 84.2525 60.4429 84.8676 60.4429 85.6263C60.4429 86.385 61.058 87.0001 61.8167 87.0001H70.975C72.7423 87.0001 74.1804 85.5621 74.1804 83.7947V80.1314C74.1805 78.3639 72.7425 76.9258 70.9751 76.9258ZM28.462 20.7402C28.4586 20.7411 28.4552 20.7421 28.4518 20.743L26.5391 21.2554C26.3089 21.3168 26.0732 21.195 25.991 20.9712L22.746 12.1487C22.0596 10.2829 22.1857 8.28347 23.1006 6.51866C24.0154 4.75386 25.5769 3.49865 27.497 2.98413C28.1053 2.82117 28.7196 2.74046 29.3284 2.74046C30.641 2.74046 31.9273 3.11514 33.0716 3.84682C34.7465 4.91783 35.8552 6.58646 36.1937 8.54515L37.7946 17.8083C37.8352 18.0433 37.6921 18.2669 37.4618 18.3284L28.4721 20.7372C28.4688 20.7384 28.4655 20.7394 28.462 20.7402ZM30.5002 23.0384L34.9232 21.8534L41.8499 47.7044C41.0968 47.7875 40.3396 47.9285 39.5855 48.1306C38.8363 48.3313 38.1159 48.5851 37.426 48.8872L30.5002 23.0384ZM54.204 68.9089C52.5527 71.7689 49.8867 73.8147 46.6966 74.6696C43.5066 75.5245 40.1752 75.0857 37.3147 73.4344C34.4547 71.7831 32.4089 69.1171 31.5542 65.927C29.7897 59.342 33.7115 52.5491 40.2965 50.7848C46.8816 49.02 53.6744 52.9421 55.4389 59.5271C56.2941 62.717 55.8553 66.0488 54.204 68.9089Z" fill="#FFF9F9"/>
<path d="M47.0443 57.2129C46.5091 57.7508 46.5113 58.6206 47.0492 59.1557C48.0066 60.1082 48.534 61.3764 48.534 62.7269C48.534 65.5044 46.2744 67.7641 43.4969 67.7641C42.7382 67.7641 42.123 68.3792 42.123 69.1379C42.123 69.8966 42.7382 70.5117 43.4969 70.5117C47.7894 70.5117 51.2815 67.0196 51.2815 62.7271C51.2815 60.6401 50.4665 58.6802 48.987 57.2082C48.4491 56.6728 47.5792 56.6751 47.0443 57.2129Z" fill="#FFF9F9"/>
<path d="M38.4599 62.7267C38.4599 59.9491 40.7195 57.6895 43.497 57.6895C44.2557 57.6895 44.8708 57.0744 44.8708 56.3157C44.8708 55.557 44.2557 54.9419 43.497 54.9419C39.2045 54.9419 35.7124 58.434 35.7124 62.7265C35.7124 64.8058 36.5222 66.7608 37.9924 68.2311C38.2605 68.4994 38.6123 68.6335 38.9637 68.6335C39.3152 68.6335 39.6668 68.4993 39.9349 68.2311C40.4714 67.6949 40.4714 66.825 39.9349 66.2884C38.9837 65.3372 38.4599 64.0723 38.4599 62.7267Z" fill="#FFF9F9"/>
</g>
<defs>
<clipPath id="clip0">
<rect width="87" height="87" fill="white"/>
</clipPath>
</defs>
</svg>
