<svg width="53" height="53" viewBox="0 0 53 53" fill="none" xmlns="http://www.w3.org/2000/svg">
<g filter="url(#filter0_d)">
<circle cx="26.5" cy="22.5" r="22.5" fill="white"/>
</g>
<path d="M26.5 23.1035C25.0928 23.1035 23.9483 24.1861 23.9483 25.5173V29.138C23.9483 30.4692 25.0928 31.5518 26.5 31.5518C27.9073 31.5518 29.0518 30.4692 29.0518 29.138V25.5173C29.0518 24.1861 27.9073 23.1035 26.5 23.1035ZM27.7759 29.138C27.7759 29.8036 27.2037 30.3449 26.5 30.3449C25.7964 30.3449 25.2242 29.8036 25.2242 29.138V25.5173C25.2242 24.8517 25.7964 24.3104 26.5 24.3104C27.2037 24.3104 27.7759 24.8517 27.7759 25.5173V29.138Z" fill="#7B7B7B"/>
<path d="M33.5173 17.8619V11.1672C33.5173 7.76681 30.3691 5 26.5 5C22.631 5 19.4828 7.76681 19.4828 11.1672V17.8619C16.0277 20.0234 13.7414 23.7274 13.7414 27.931C13.7414 34.5859 19.4649 40 26.5 40C33.5351 40 39.2586 34.5859 39.2586 27.931C39.2586 23.7274 36.9723 20.0234 33.5173 17.8619ZM20.7586 17.1637V11.1672C20.7586 8.43241 23.334 6.2069 26.5 6.2069C29.6661 6.2069 32.2414 8.43241 32.2414 11.1672V17.1643C32.1215 17.107 31.999 17.0563 31.8778 17.0026C31.6271 16.8916 31.3725 16.7878 31.1135 16.6918C30.947 16.6303 30.7799 16.5723 30.6115 16.5174C30.4456 16.4637 30.281 16.41 30.1126 16.3629C29.8338 16.2845 29.5519 16.2175 29.268 16.1572C29.1449 16.1312 29.0211 16.1065 28.8967 16.0835C28.5631 16.0226 28.2275 15.9731 27.8894 15.9375C27.8129 15.9297 27.7363 15.9248 27.6598 15.9182C27.2738 15.8838 26.8879 15.8621 26.5 15.8621C26.1122 15.8621 25.7262 15.8838 25.3415 15.9176C25.265 15.9242 25.1878 15.9291 25.1119 15.9369C24.7738 15.9725 24.4382 16.022 24.1046 16.0829C23.9802 16.1053 23.8564 16.1306 23.7333 16.1566C23.4494 16.2169 23.1675 16.2839 22.8887 16.3623C22.7203 16.4094 22.555 16.4637 22.3898 16.5168C22.2214 16.5717 22.0536 16.6297 21.8878 16.6912C21.6281 16.7866 21.3742 16.8909 21.1235 17.002C21.001 17.0557 20.8786 17.1064 20.7586 17.1637ZM26.5 38.7931C20.1685 38.7931 15.0173 33.9203 15.0173 27.931C15.0173 23.9863 17.2596 20.5358 20.5947 18.6331C21.1816 18.2988 21.7946 18.017 22.4275 17.7877C22.5397 17.7472 22.6527 17.7074 22.7662 17.67C22.9404 17.6127 23.1152 17.5578 23.2919 17.5083C23.5088 17.4485 23.7288 17.3954 23.9508 17.3478C24.1129 17.3128 24.2755 17.282 24.4389 17.2536C24.6743 17.2132 24.9116 17.177 25.1521 17.1504C25.2605 17.1378 25.3696 17.1269 25.4787 17.1178C25.8162 17.0895 26.1555 17.069 26.5 17.069C26.8445 17.069 27.1839 17.0895 27.5213 17.1178C27.6304 17.1275 27.7389 17.1384 27.848 17.1504C28.0885 17.177 28.3258 17.2132 28.5612 17.2536C28.7245 17.282 28.8872 17.3128 29.0492 17.3478C29.2712 17.3954 29.4913 17.4485 29.7082 17.5083C29.8849 17.5572 30.0597 17.6127 30.2338 17.67C30.348 17.7074 30.4603 17.7472 30.5726 17.7877C31.2054 18.017 31.8184 18.2988 32.4053 18.6331C35.7404 20.5358 37.9828 23.9863 37.9828 27.931C37.9828 33.9203 32.8315 38.7931 26.5 38.7931Z" fill="#7B7B7B"/>
<defs>
<filter id="filter0_d" x="0" y="0" width="53" height="53" filterUnits="userSpaceOnUse" color-interpolation-filters="sRGB">
<feFlood flood-opacity="0" result="BackgroundImageFix"/>
<feColorMatrix in="SourceAlpha" type="matrix" values="0 0 0 0 0 0 0 0 0 0 0 0 0 0 0 0 0 0 127 0"/>
<feOffset dy="4"/>
<feGaussianBlur stdDeviation="2"/>
<feColorMatrix type="matrix" values="0 0 0 0 0 0 0 0 0 0 0 0 0 0 0 0 0 0 0.25 0"/>
<feBlend mode="normal" in2="BackgroundImageFix" result="effect1_dropShadow"/>
<feBlend mode="normal" in="SourceGraphic" in2="effect1_dropShadow" result="shape"/>
</filter>
</defs>
</svg>
