<svg width="80" height="80" viewBox="0 0 80 80" fill="none" xmlns="http://www.w3.org/2000/svg">
<g clip-path="url(#clip0)">
<g filter="url(#filter0_d)">
<path d="M79.1595 36.8566L33.9597 11.0052C30.4734 9.00804 25.7014 10.0848 23.4031 13.3738L14.6468 25.8915C13.7874 27.1215 13.3333 28.5632 13.3333 30.0635C13.3333 32.6554 14.7266 35.0696 16.9677 36.363L26.5004 41.8681L24.7784 44.166C23.8457 45.409 23.3331 46.9501 23.3331 48.5043C23.3331 50.1026 23.9184 51.606 24.8612 52.8488L22.324 56.6664H9.99992V51.65C9.99992 50.728 9.25446 49.9999 8.33322 49.9999H1.66671C0.745463 49.9999 0 50.728 0 51.65V68.3316C0 69.2537 0.745463 69.9997 1.66671 69.9997H8.33337C9.25461 69.9997 10.0001 69.2537 10.0001 68.3316V66.6665H22.3242C25.6754 66.6665 28.7857 65.0018 30.6444 62.2114L33.3763 58.1098C33.9024 58.2241 34.433 58.3276 34.9753 58.3276C37.6283 58.3276 40.125 56.9136 41.489 54.6363L43.3203 51.5815L57.5045 59.7728C57.76 59.9211 58.0481 59.9959 58.3378 59.9959C58.4989 59.9959 58.6602 59.9731 58.818 59.9259C59.2575 59.7923 59.6236 59.4844 59.8287 59.0739L61.0626 56.6006C61.2651 56.6159 61.46 56.6597 61.6662 56.6597C68.0985 56.6597 73.3329 51.4207 73.3329 44.9826C73.3329 44.2756 73.2285 43.547 73.0733 42.8021L79.0783 39.7973C79.6284 39.522 79.9816 38.9666 79.9995 38.3508C80.0156 37.7362 79.6934 37.1613 79.1595 36.8566ZM6.66667 66.6665H3.33325V53.3333H6.66651V66.6665H6.66667ZM27.8709 60.3694C26.6323 62.2281 24.5587 63.3381 22.324 63.3381H9.99992V60.0048H22.324C23.4439 60.0048 24.4806 59.4498 25.0975 58.5205L27.4054 55.0574L30.2676 56.7742L27.8709 60.3694ZM38.6309 52.9344C37.4656 54.8728 34.7232 55.563 32.783 54.396L28.5562 51.8602C27.3909 51.1619 26.6665 49.8827 26.6665 48.5237C26.6665 47.6871 26.9432 46.8587 27.4445 46.1881L29.4076 43.5707L40.4325 49.9318L38.6309 52.9344ZM57.6378 56.0106L18.6327 33.5058C17.4202 32.806 16.6666 31.5007 16.6666 30.0993C16.6666 29.2871 16.9124 28.5074 17.3778 27.8418L21.5623 21.8653L62.8068 45.6595L57.6378 56.0106ZM62.7526 53.2282L66.2413 46.2416L69.9437 44.3907C69.9623 44.5953 69.9994 44.807 69.9994 45.0048C69.9994 49.2274 66.8303 52.6891 62.7526 53.2282ZM65.056 43.1081L23.4817 19.1239L26.1343 15.3355C27.0117 14.0822 28.4471 13.3335 29.9771 13.3335C30.7926 13.3335 31.5982 13.5468 32.3062 13.9519L74.8025 38.2356L65.056 43.1081Z" fill="white"/>
</g>
<path d="M55 49.9999C55.9205 49.9999 56.6667 49.2537 56.6667 48.3332C56.6667 47.4127 55.9205 46.6665 55 46.6665C54.0795 46.6665 53.3333 47.4127 53.3333 48.3332C53.3333 49.2537 54.0795 49.9999 55 49.9999Z" fill="white"/>
</g>
<defs>
<filter id="filter0_d" x="-4" y="10.0002" width="88.0001" height="67.9995" filterUnits="userSpaceOnUse" color-interpolation-filters="sRGB">
<feFlood flood-opacity="0" result="BackgroundImageFix"/>
<feColorMatrix in="SourceAlpha" type="matrix" values="0 0 0 0 0 0 0 0 0 0 0 0 0 0 0 0 0 0 127 0"/>
<feOffset dy="4"/>
<feGaussianBlur stdDeviation="2"/>
<feColorMatrix type="matrix" values="0 0 0 0 0 0 0 0 0 0 0 0 0 0 0 0 0 0 0.25 0"/>
<feBlend mode="normal" in2="BackgroundImageFix" result="effect1_dropShadow"/>
<feBlend mode="normal" in="SourceGraphic" in2="effect1_dropShadow" result="shape"/>
</filter>
<clipPath id="clip0">
<rect width="80" height="80" fill="white"/>
</clipPath>
</defs>
</svg>
