<svg width="172" height="185" viewBox="0 0 172 185" fill="none" xmlns="http://www.w3.org/2000/svg">
<g filter="url(#filter0_d)">
<ellipse cx="83" cy="75.5" rx="78" ry="75.5" fill="white"/>
</g>
<path d="M48.2613 168.492L52.6773 179.514L57.0933 168.492H59.4034V182H57.6221V176.74L57.7891 171.062L53.3545 182H51.9908L47.5655 171.09L47.7417 176.74V182H45.9605V168.492H48.2613ZM62.0147 176.888C62.0147 175.905 62.2065 175.02 62.5899 174.235C62.9796 173.449 63.5177 172.843 64.2042 172.417C64.8969 171.99 65.6855 171.776 66.5699 171.776C67.9368 171.776 69.0408 172.25 69.8819 173.196C70.7293 174.142 71.1529 175.401 71.1529 176.972V177.092C71.1529 178.069 70.9643 178.948 70.587 179.727C70.2159 180.5 69.6809 181.103 68.982 181.536C68.2893 181.969 67.4915 182.186 66.5885 182.186C65.2278 182.186 64.1238 181.712 63.2765 180.766C62.4353 179.82 62.0147 178.567 62.0147 177.009V176.888ZM63.7403 177.092C63.7403 178.206 63.997 179.099 64.5104 179.773C65.0299 180.448 65.7226 180.785 66.5885 180.785C67.4605 180.785 68.1533 180.444 68.6666 179.764C69.1799 179.078 69.4366 178.119 69.4366 176.888C69.4366 175.787 69.1738 174.897 68.648 174.216C68.1285 173.53 67.4358 173.187 66.5699 173.187C65.7226 173.187 65.0392 173.524 64.5196 174.198C64.0001 174.872 63.7403 175.837 63.7403 177.092ZM67.3492 167.75H69.4273L66.941 170.478H65.5587L67.3492 167.75ZM73.0778 176.897C73.0778 175.357 73.4427 174.12 74.1725 173.187C74.9023 172.246 75.8579 171.776 77.0392 171.776C78.2143 171.776 79.1452 172.178 79.8317 172.982V167.75H81.548V182H79.9709L79.8874 180.924C79.2008 181.765 78.2453 182.186 77.0207 182.186C75.8579 182.186 74.9085 181.709 74.1725 180.757C73.4427 179.804 73.0778 178.561 73.0778 177.027V176.897ZM74.7941 177.092C74.7941 178.23 75.0291 179.121 75.4992 179.764C75.9692 180.407 76.6186 180.729 77.4474 180.729C78.536 180.729 79.3307 180.24 79.8317 179.263V174.652C79.3184 173.706 78.5298 173.233 77.466 173.233C76.6248 173.233 75.9692 173.558 75.4992 174.207C75.0291 174.856 74.7941 175.818 74.7941 177.092ZM90.6071 181.007C89.9392 181.793 88.9589 182.186 87.6662 182.186C86.5962 182.186 85.7798 181.876 85.217 181.258C84.6604 180.633 84.379 179.712 84.3728 178.493V171.962H86.0891V178.447C86.0891 179.968 86.7076 180.729 87.9445 180.729C89.2557 180.729 90.1278 180.24 90.5608 179.263V171.962H92.2771V182H90.6443L90.6071 181.007ZM96.948 182H95.2317V167.75H96.948V182ZM99.4388 176.888C99.4388 175.905 99.6305 175.02 100.014 174.235C100.404 173.449 100.942 172.843 101.628 172.417C102.321 171.99 103.11 171.776 103.994 171.776C105.361 171.776 106.465 172.25 107.306 173.196C108.153 174.142 108.577 175.401 108.577 176.972V177.092C108.577 178.069 108.388 178.948 108.011 179.727C107.64 180.5 107.105 181.103 106.406 181.536C105.713 181.969 104.916 182.186 104.013 182.186C102.652 182.186 101.548 181.712 100.701 180.766C99.8594 179.82 99.4388 178.567 99.4388 177.009V176.888ZM101.164 177.092C101.164 178.206 101.421 179.099 101.934 179.773C102.454 180.448 103.147 180.785 104.013 180.785C104.885 180.785 105.577 180.444 106.091 179.764C106.604 179.078 106.861 178.119 106.861 176.888C106.861 175.787 106.598 174.897 106.072 174.216C105.553 173.53 104.86 173.187 103.994 173.187C103.147 173.187 102.463 173.524 101.944 174.198C101.424 174.872 101.164 175.837 101.164 177.092ZM116.764 179.337C116.764 178.874 116.588 178.515 116.235 178.261C115.889 178.001 115.28 177.779 114.408 177.593C113.542 177.408 112.852 177.185 112.339 176.925C111.832 176.666 111.454 176.356 111.207 175.998C110.966 175.639 110.845 175.212 110.845 174.717C110.845 173.895 111.191 173.199 111.884 172.63C112.583 172.061 113.474 171.776 114.556 171.776C115.694 171.776 116.616 172.07 117.321 172.658C118.032 173.245 118.388 173.997 118.388 174.912H116.662C116.662 174.442 116.461 174.037 116.059 173.697C115.663 173.357 115.162 173.187 114.556 173.187C113.931 173.187 113.443 173.323 113.09 173.595C112.738 173.867 112.561 174.222 112.561 174.662C112.561 175.076 112.725 175.388 113.053 175.599C113.381 175.809 113.972 176.01 114.825 176.202C115.685 176.393 116.381 176.622 116.912 176.888C117.444 177.154 117.837 177.476 118.091 177.853C118.35 178.224 118.48 178.679 118.48 179.217C118.48 180.114 118.122 180.834 117.404 181.378C116.687 181.917 115.756 182.186 114.612 182.186C113.808 182.186 113.096 182.043 112.478 181.759C111.859 181.474 111.374 181.078 111.021 180.571C110.675 180.058 110.502 179.504 110.502 178.911H112.218C112.249 179.486 112.478 179.944 112.905 180.284C113.338 180.618 113.907 180.785 114.612 180.785C115.261 180.785 115.781 180.655 116.17 180.395C116.566 180.129 116.764 179.777 116.764 179.337Z" fill="white"/>
<path d="M73.2495 77.1516C72.9176 77.3286 72.7083 77.6887 72.7083 78.0834V92.6667C72.7083 93.0614 72.9176 93.4226 73.2495 93.5985C73.4714 93.7165 75.6152 94.75 82.5019 94.75C89.3886 94.75 91.5295 93.7165 91.7504 93.5984C92.0823 93.4214 92.2916 93.0613 92.2916 92.6666V78.0833C92.2916 77.6886 92.0823 77.3285 91.7504 77.1515C91.5285 77.0335 89.3866 76 82.4999 76C75.6133 76 73.4714 77.0335 73.2495 77.1516ZM90.3332 91.918C90.3332 91.918 90.3332 91.918 90.3332 91.918C89.375 92.1927 87.0609 92.6667 82.5018 92.6667C82.0289 92.6667 81.5802 92.6616 81.1546 92.6522C77.2811 92.5662 74.6666 89.2479 74.6666 85.3734C74.6666 81.5009 77.2786 78.184 81.15 78.0979C81.5764 78.0884 82.026 78.0833 82.4999 78.0833C83.3266 78.0833 84.0796 78.0989 84.764 78.126C88.0917 78.258 90.3332 81.1267 90.3332 84.457V91.918C90.3332 91.918 90.3332 91.918 90.3332 91.918Z" fill="#7B7B7B"/>
<path d="M80.5417 69.75C80.5417 70.8985 81.4205 71.8333 82.5 71.8333C83.5796 71.8333 84.4584 70.8985 84.4584 69.75C84.4584 68.6016 83.5796 67.6667 82.5 67.6667C81.4205 67.6667 80.5417 68.6016 80.5417 69.75Z" fill="#7B7B7B"/>
<path d="M99.1458 51H65.8542C65.313 51 64.875 51.4659 64.875 52.0417V56.2084C64.875 56.7841 65.313 57.25 65.8542 57.25H77.3755C78.5834 57.25 79.5625 58.2292 79.5625 59.437C79.5625 60.5949 78.6575 61.5427 77.5071 61.6751C72.8769 62.208 70.7794 63.4631 69.1464 64.4409L68.7945 64.6515C67.5849 65.3656 66.8333 66.7501 66.8333 68.2627V94.1538C66.8333 95.6665 67.5849 97.051 68.7945 97.765L69.1464 97.9756C71.2769 99.2514 74.1943 101 82.5 101C90.8057 101 93.7231 99.2514 95.8536 97.9757L96.2055 97.7651C97.4151 97.051 98.1667 95.6665 98.1667 94.1539V68.2628C98.1667 66.7501 97.4151 65.3656 96.2055 64.6516L95.8536 64.441C94.2207 63.4632 92.1231 62.2081 87.4929 61.6752C86.3425 61.5428 85.4375 60.595 85.4375 59.437C85.4375 58.2292 86.4167 57.25 87.6245 57.25H99.1458C99.687 57.25 100.125 56.7841 100.125 56.2083V52.0417C100.125 51.4659 99.687 51 99.1458 51ZM94.8926 66.2567L95.255 66.4724C95.843 66.8203 96.2083 67.5059 96.2083 68.2627V94.1538C96.2083 94.9106 95.843 95.5963 95.255 95.9441L94.8926 96.16C92.9514 97.3237 90.2922 98.9167 82.5 98.9167C74.7078 98.9167 72.0486 97.3236 70.1074 96.16L69.745 95.9443C69.157 95.5964 68.7917 94.9108 68.7917 94.154V68.2628C68.7917 67.506 69.157 66.8203 69.745 66.4725L70.1074 66.2568C72.0486 65.0931 74.7078 63.5 82.5 63.5C90.2922 63.5 92.9514 65.0931 94.8926 66.2567ZM82.4999 61.4167C81.962 61.4167 81.5208 60.9885 81.5208 60.4506V58.2292C81.5208 57.6884 81.9592 57.25 82.5 57.25C83.0407 57.25 83.4791 57.6884 83.4791 58.2292V60.4505C83.4791 60.9885 83.0379 61.4167 82.4999 61.4167ZM98.1667 55.1667H67.875C67.2997 55.1667 66.8333 54.7003 66.8333 54.125C66.8333 53.5497 67.2997 53.0833 67.875 53.0833H97.1249C97.7002 53.0833 98.1666 53.5497 98.1666 54.125V55.1666C98.1666 55.1667 98.1666 55.1667 98.1667 55.1667Z" fill="#7B7B7B"/>
<defs>
<filter id="filter0_d" x="0" y="0" width="172" height="168" filterUnits="userSpaceOnUse" color-interpolation-filters="sRGB">
<feFlood flood-opacity="0" result="BackgroundImageFix"/>
<feColorMatrix in="SourceAlpha" type="matrix" values="0 0 0 0 0 0 0 0 0 0 0 0 0 0 0 0 0 0 127 0"/>
<feOffset dx="3" dy="9"/>
<feGaussianBlur stdDeviation="4"/>
<feColorMatrix type="matrix" values="0 0 0 0 0 0 0 0 0 0 0 0 0 0 0 0 0 0 0.122 0"/>
<feBlend mode="normal" in2="BackgroundImageFix" result="effect1_dropShadow"/>
<feBlend mode="normal" in="SourceGraphic" in2="effect1_dropShadow" result="shape"/>
</filter>
</defs>
</svg>
