<svg width="24" height="46" viewBox="0 0 24 46" fill="none" xmlns="http://www.w3.org/2000/svg">
<path d="M1.02973 37.8325C1.02973 36.8677 1.21527 35.9987 1.58637 35.2256C1.96365 34.4525 2.49245 33.8525 3.17279 33.4258C3.85932 32.9928 4.63552 32.7764 5.50141 32.7764C6.83734 32.7764 7.9197 33.2464 8.74848 34.1865C9.57725 35.1204 9.99164 36.3605 9.99164 37.9067V38.1387C9.99164 39.1097 9.803 39.9849 9.42572 40.7642C9.05463 41.5373 8.52891 42.1341 7.84857 42.5547C7.16824 42.9753 6.39203 43.1855 5.51996 43.1855C4.19021 43.1855 3.10785 42.7186 2.27289 41.7847C1.44412 40.8446 1.02973 39.6014 1.02973 38.0552V37.8325ZM2.14301 38.1387C2.14301 39.3385 2.45225 40.325 3.07074 41.0981C3.69542 41.8651 4.51182 42.2485 5.51996 42.2485C6.52191 42.2485 7.33214 41.8651 7.95063 41.0981C8.5753 40.325 8.88764 39.3076 8.88764 38.0459V37.8325C8.88764 37.0656 8.74538 36.3636 8.46088 35.7266C8.17637 35.0895 7.77745 34.5978 7.2641 34.2515C6.75076 33.8989 6.16319 33.7227 5.50141 33.7227C4.51182 33.7227 3.70469 34.1123 3.08002 34.8916C2.45535 35.6647 2.14301 36.679 2.14301 37.9346V38.1387ZM13.2803 43V33.8711H11.6196V32.9619H13.2803V31.7466C13.2803 30.7199 13.54 29.9313 14.0596 29.3809C14.5853 28.8304 15.3151 28.5552 16.249 28.5552C16.6696 28.5552 17.0623 28.6077 17.4272 28.7129L17.3438 29.6406C17.0345 29.5664 16.6974 29.5293 16.3325 29.5293C15.7202 29.5293 15.244 29.721 14.9038 30.1045C14.5636 30.4818 14.3936 31.0199 14.3936 31.7188V32.9619H16.7871V33.8711H14.3936V43H13.2803ZM19.7603 43V33.8711H18.0997V32.9619H19.7603V31.7466C19.7603 30.7199 20.0201 29.9313 20.5396 29.3809C21.0653 28.8304 21.7951 28.5552 22.7291 28.5552C23.1496 28.5552 23.5424 28.6077 23.9073 28.7129L23.8238 29.6406C23.5145 29.5664 23.1775 29.5293 22.8126 29.5293C22.2003 29.5293 21.724 29.721 21.3838 30.1045C21.0437 30.4818 20.8736 31.0199 20.8736 31.7188V32.9619H23.2671V33.8711H20.8736V43H19.7603Z" fill="#848484"/>
<circle cx="12.5" cy="10.5" r="10.5" fill="#BA0909"/>
</svg>
