<svg width="22" height="46" viewBox="0 0 22 46" fill="none" xmlns="http://www.w3.org/2000/svg">
<path d="M1.19162 37.8325C1.19162 36.8677 1.37717 35.9987 1.74826 35.2256C2.12554 34.4525 2.65435 33.8525 3.33469 33.4258C4.02121 32.9928 4.79742 32.7764 5.6633 32.7764C6.99924 32.7764 8.08159 33.2464 8.91037 34.1865C9.73915 35.1204 10.1535 36.3605 10.1535 37.9067V38.1387C10.1535 39.1097 9.9649 39.9849 9.58762 40.7642C9.21652 41.5373 8.69081 42.1341 8.01047 42.5547C7.33013 42.9753 6.55393 43.1855 5.68186 43.1855C4.3521 43.1855 3.26975 42.7186 2.43478 41.7847C1.60601 40.8446 1.19162 39.6014 1.19162 38.0552V37.8325ZM2.3049 38.1387C2.3049 39.3385 2.61415 40.325 3.23264 41.0981C3.85731 41.8651 4.67372 42.2485 5.68186 42.2485C6.68381 42.2485 7.49403 41.8651 8.11252 41.0981C8.73719 40.325 9.04953 39.3076 9.04953 38.0459V37.8325C9.04953 37.0656 8.90728 36.3636 8.62277 35.7266C8.33827 35.0895 7.93934 34.5978 7.426 34.2515C6.91265 33.8989 6.32508 33.7227 5.6633 33.7227C4.67372 33.7227 3.86659 34.1123 3.24191 34.8916C2.61724 35.6647 2.3049 36.679 2.3049 37.9346V38.1387ZM13.7019 32.9619L13.739 34.6782C14.1163 34.0597 14.5864 33.5897 15.1492 33.2681C15.712 32.9403 16.3336 32.7764 17.0139 32.7764C18.0901 32.7764 18.8911 33.0794 19.4168 33.6855C19.9425 34.2917 20.2084 35.2008 20.2146 36.4131V43H19.1106V36.4038C19.1044 35.507 18.9127 34.839 18.5354 34.3999C18.1643 33.9608 17.5675 33.7412 16.7449 33.7412C16.0584 33.7412 15.4492 33.9577 14.9173 34.3906C14.3915 34.8174 14.0019 35.3957 13.7483 36.1255V43H12.6443V32.9619H13.7019Z" fill="#848484"/>
<circle cx="11.5" cy="10.5" r="10.5" fill="#02BE36"/>
</svg>
