<svg width="172" height="187" viewBox="0 0 172 187" fill="none" xmlns="http://www.w3.org/2000/svg">
<g filter="url(#filter0_d)">
<ellipse cx="83" cy="75.5" rx="78" ry="75.5" fill="white"/>
</g>
<path d="M49.4094 176.712V182H47.6282V168.492H52.6101C54.0883 168.492 55.2449 168.869 56.0798 169.624C56.921 170.379 57.3416 171.377 57.3416 172.621C57.3416 173.932 56.9303 174.943 56.1077 175.654C55.2913 176.359 54.1192 176.712 52.5916 176.712H49.4094ZM49.4094 175.255H52.6101C53.5626 175.255 54.2924 175.033 54.7996 174.587C55.3067 174.136 55.5603 173.486 55.5603 172.639C55.5603 171.835 55.3067 171.192 54.7996 170.709C54.2924 170.227 53.5966 169.977 52.7122 169.958H49.4094V175.255ZM64.3875 173.502C64.1278 173.459 63.8463 173.437 63.5433 173.437C62.4176 173.437 61.6538 173.916 61.2518 174.875V182H59.5355V171.962H61.2054L61.2332 173.122C61.796 172.225 62.5939 171.776 63.6268 171.776C63.9608 171.776 64.2143 171.82 64.3875 171.906V173.502ZM65.5238 176.888C65.5238 175.905 65.7155 175.02 66.099 174.235C66.4887 173.449 67.0267 172.843 67.7133 172.417C68.406 171.99 69.1945 171.776 70.079 171.776C71.4458 171.776 72.5499 172.25 73.391 173.196C74.2383 174.142 74.662 175.401 74.662 176.972V177.092C74.662 178.069 74.4734 178.948 74.0961 179.727C73.725 180.5 73.19 181.103 72.4911 181.536C71.7984 181.969 71.0005 182.186 70.0975 182.186C68.7369 182.186 67.6329 181.712 66.7855 180.766C65.9444 179.82 65.5238 178.567 65.5238 177.009V176.888ZM67.2494 177.092C67.2494 178.206 67.5061 179.099 68.0194 179.773C68.5389 180.448 69.2317 180.785 70.0975 180.785C70.9696 180.785 71.6623 180.444 72.1757 179.764C72.689 179.078 72.9457 178.119 72.9457 176.888C72.9457 175.787 72.6828 174.897 72.1571 174.216C71.6376 173.53 70.9449 173.187 70.079 173.187C69.2317 173.187 68.5482 173.524 68.0287 174.198C67.5092 174.872 67.2494 175.837 67.2494 177.092ZM78.7763 171.962V183.16C78.7763 185.089 77.9011 186.054 76.1508 186.054C75.7735 186.054 75.4241 185.999 75.1025 185.887V184.514C75.3004 184.564 75.5602 184.588 75.8818 184.588C76.2652 184.588 76.5559 184.483 76.7538 184.273C76.958 184.069 77.06 183.71 77.06 183.197V171.962H78.7763ZM76.8837 169.299C76.8837 169.027 76.9672 168.795 77.1342 168.604C77.3074 168.406 77.5579 168.307 77.8857 168.307C78.2197 168.307 78.4733 168.403 78.6464 168.594C78.8196 168.786 78.9062 169.021 78.9062 169.299C78.9062 169.578 78.8196 169.81 78.6464 169.995C78.4733 170.181 78.2197 170.273 77.8857 170.273C77.5517 170.273 77.3012 170.181 77.1342 169.995C76.9672 169.81 76.8837 169.578 76.8837 169.299ZM85.9058 182.186C84.5451 182.186 83.438 181.74 82.5845 180.85C81.731 179.953 81.3042 178.756 81.3042 177.259V176.944C81.3042 175.948 81.4928 175.061 81.8701 174.281C82.2536 173.496 82.7855 172.883 83.4658 172.444C84.1523 171.999 84.8945 171.776 85.6924 171.776C86.9974 171.776 88.0117 172.206 88.7354 173.066C89.459 173.926 89.8208 175.156 89.8208 176.758V177.473H83.0205C83.0452 178.462 83.3328 179.263 83.8833 179.875C84.4399 180.482 85.145 180.785 85.9985 180.785C86.6047 180.785 87.118 180.661 87.5386 180.414C87.9591 180.166 88.3271 179.838 88.6426 179.43L89.6909 180.247C88.8498 181.539 87.5881 182.186 85.9058 182.186ZM85.6924 173.187C84.9997 173.187 84.4183 173.44 83.9482 173.947C83.4782 174.448 83.1875 175.153 83.0762 176.062H88.1045V175.933C88.055 175.061 87.82 174.386 87.3994 173.91C86.9788 173.428 86.4098 173.187 85.6924 173.187ZM94.334 169.531V171.962H96.2081V173.289H94.334V179.514C94.334 179.916 94.4175 180.219 94.5845 180.423C94.7515 180.621 95.036 180.72 95.438 180.72C95.636 180.72 95.9081 180.683 96.2545 180.608V182C95.803 182.124 95.3638 182.186 94.9371 182.186C94.1701 182.186 93.5919 181.954 93.2022 181.49C92.8126 181.026 92.6177 180.367 92.6177 179.514V173.289H90.7901V171.962H92.6177V169.531H94.334ZM97.7711 176.888C97.7711 175.905 97.9628 175.02 98.3463 174.235C98.736 173.449 99.274 172.843 99.9606 172.417C100.653 171.99 101.442 171.776 102.326 171.776C103.693 171.776 104.797 172.25 105.638 173.196C106.486 174.142 106.909 175.401 106.909 176.972V177.092C106.909 178.069 106.721 178.948 106.343 179.727C105.972 180.5 105.437 181.103 104.738 181.536C104.046 181.969 103.248 182.186 102.345 182.186C100.984 182.186 99.8802 181.712 99.0328 180.766C98.1917 179.82 97.7711 178.567 97.7711 177.009V176.888ZM99.4967 177.092C99.4967 178.206 99.7534 179.099 100.267 179.773C100.786 180.448 101.479 180.785 102.345 180.785C103.217 180.785 103.91 180.444 104.423 179.764C104.936 179.078 105.193 178.119 105.193 176.888C105.193 175.787 104.93 174.897 104.404 174.216C103.885 173.53 103.192 173.187 102.326 173.187C101.479 173.187 100.796 173.524 100.276 174.198C99.7565 174.872 99.4967 175.837 99.4967 177.092ZM115.096 179.337C115.096 178.874 114.92 178.515 114.568 178.261C114.221 178.001 113.612 177.779 112.74 177.593C111.874 177.408 111.184 177.185 110.671 176.925C110.164 176.666 109.787 176.356 109.539 175.998C109.298 175.639 109.177 175.212 109.177 174.717C109.177 173.895 109.524 173.199 110.216 172.63C110.915 172.061 111.806 171.776 112.888 171.776C114.026 171.776 114.948 172.07 115.653 172.658C116.364 173.245 116.72 173.997 116.72 174.912H114.994C114.994 174.442 114.793 174.037 114.391 173.697C113.995 173.357 113.494 173.187 112.888 173.187C112.264 173.187 111.775 173.323 111.423 173.595C111.07 173.867 110.894 174.222 110.894 174.662C110.894 175.076 111.058 175.388 111.385 175.599C111.713 175.809 112.304 176.01 113.157 176.202C114.017 176.393 114.713 176.622 115.245 176.888C115.777 177.154 116.169 177.476 116.423 177.853C116.683 178.224 116.813 178.679 116.813 179.217C116.813 180.114 116.454 180.834 115.737 181.378C115.019 181.917 114.088 182.186 112.944 182.186C112.14 182.186 111.429 182.043 110.81 181.759C110.192 181.474 109.706 181.078 109.354 180.571C109.007 180.058 108.834 179.504 108.834 178.911H110.55C110.581 179.486 110.81 179.944 111.237 180.284C111.67 180.618 112.239 180.785 112.944 180.785C113.593 180.785 114.113 180.655 114.503 180.395C114.898 180.129 115.096 179.777 115.096 179.337Z" fill="white"/>
<g clip-path="url(#clip0)">
<path d="M82.5 92.3712C78.7024 92.3712 75.613 95.4615 75.613 99.2582C75.613 103.055 78.7024 106.145 82.5 106.145C86.2977 106.145 89.387 103.055 89.387 99.2582C89.387 95.4615 86.2977 92.3712 82.5 92.3712ZM82.5 104.178C79.7875 104.178 77.5808 101.971 77.5808 99.2582C77.5808 96.5457 79.7875 94.3389 82.5 94.3389C85.2125 94.3389 87.4193 96.5457 87.4193 99.2582C87.4193 101.971 85.2125 104.178 82.5 104.178Z" fill="#7B7B7B"/>
<path d="M61.8389 85.4843H55.9358V87.452H61.8389V85.4843Z" fill="#7B7B7B"/>
<path d="M61.8389 89.4197H55.9358V91.3874H61.8389V89.4197Z" fill="#7B7B7B"/>
<path d="M109.064 85.4843H103.161V87.452H109.064V85.4843Z" fill="#7B7B7B"/>
<path d="M109.064 89.4197H103.161V91.3874H109.064V89.4197Z" fill="#7B7B7B"/>
<path d="M107.096 63.2964H94.2823C94.8038 62.0548 95.1196 60.7276 95.2268 59.361H108.08C110.792 59.361 112.999 57.1542 112.999 54.4417C112.999 51.7292 110.792 49.5224 108.08 49.5224H91.7085C91.5934 49.4033 91.4891 49.2774 91.3691 49.1613C88.8416 46.7282 85.5132 45.462 82.0008 45.5958C78.6527 45.7247 75.592 47.2211 73.3615 49.5224H60.6767L53.5604 52.1906C52.6267 52.5399 52 53.445 52 54.4417C52 55.4383 52.6267 56.3435 53.5594 56.6927L60.6767 59.361H69.7675C69.8738 60.7315 70.1994 62.0548 70.7199 63.2964H57.9032V73.135H52V86.909H65.774V73.135H59.8709V65.2641H71.6772V65.1323C72.6689 66.7173 73.9892 68.1035 75.6126 69.1435V70.1834H73.6449V72.1511H75.6126V74.1189H73.6449V76.0866H75.6913C75.8399 77.1177 76.2118 78.0769 76.7657 78.9093L74.0316 77.0517L68.7059 82.3764L70.8635 85.5513C70.7405 85.8199 70.6274 86.0914 70.5251 86.362L66.7579 87.0792V94.6097L70.5251 95.3269C70.6274 95.5975 70.7405 95.869 70.8635 96.1376L68.7059 99.3125L74.0316 104.637L77.2065 102.481C77.476 102.605 77.7466 102.718 78.0162 102.82L78.7344 106.586H86.2649L86.9831 102.82C87.2527 102.718 87.5232 102.605 87.7928 102.481L90.9677 104.637L96.2933 99.3125L94.1357 96.1376C94.2587 95.869 94.3719 95.5975 94.4742 95.3269L98.2414 94.6097V87.0792L94.4742 86.362C94.3719 86.0914 94.2587 85.8199 94.1357 85.5513L96.2933 82.3764L90.9677 77.0517L88.2336 78.9093C88.7875 78.0779 89.1584 77.1186 89.307 76.0876H91.3544V74.1198H89.3866V72.1521H91.3544V70.1844H89.3866V69.1435C91.0061 68.1055 92.3284 66.7153 93.3221 65.1244V65.2641H105.128V73.135H99.2252V86.909H112.999V73.135H107.096V63.2964ZM59.8709 56.9574L54.2501 54.85C54.0809 54.786 53.9677 54.6227 53.9677 54.4417C53.9677 54.2606 54.0809 54.0973 54.2511 54.0334L59.8709 51.9259V56.9574ZM63.8063 75.1027V84.9413H53.9677V75.1027H63.8063ZM99.2252 57.3933H95.2406C95.1904 56.7242 95.0881 56.068 94.9366 55.4255H99.2252V57.3933ZM105.128 51.4901H108.08C109.707 51.4901 111.032 52.8144 111.032 54.4417C111.032 56.069 109.707 57.3933 108.08 57.3933H105.128V51.4901ZM101.193 51.4901H103.161V57.3933H101.193V51.4901ZM99.2252 51.4901V53.4578H94.3109C94.0255 52.7731 93.6713 52.1178 93.268 51.4901H99.2252ZM69.7626 57.3933H61.8386V55.4255H70.0745C69.9171 56.066 69.8157 56.7232 69.7626 57.3933ZM70.6933 53.5552V53.4578H61.8386V51.4901H71.7933C71.3663 52.1424 70.9973 52.8321 70.6933 53.5552ZM90.7276 79.594L93.751 82.6164L91.8601 85.3978L92.1267 85.9163C92.3992 86.4496 92.6255 86.9897 92.7977 87.523L92.9767 88.0779L96.2737 88.7065V92.9824L92.9758 93.6111L92.7967 94.166C92.6245 94.6992 92.3992 95.2394 92.1257 95.7726L91.8591 96.2911L93.7501 99.0725L90.7267 102.095L87.9453 100.205L87.4258 100.472C86.8886 100.746 86.3485 100.972 85.8202 101.143L85.2653 101.323L84.6376 104.618H80.3617L79.733 101.322L79.1781 101.142C78.6498 100.971 78.1096 100.746 77.5725 100.471L77.053 100.204L74.2716 102.094L71.2482 99.0715L73.1392 96.2901L72.8726 95.7716C72.6 95.2384 72.3738 94.6982 72.2016 94.165L72.0225 93.6101L68.7256 92.9824V88.7065L72.0235 88.0779L72.2026 87.523C72.3747 86.9897 72.6 86.4496 72.8736 85.9163L73.1402 85.3978L71.2492 82.6164L74.2726 79.594L77.055 81.484L77.5744 81.2174C77.9099 81.0442 78.2503 80.8967 78.5898 80.7638C79.6996 81.5352 81.0465 81.9897 82.4996 81.9897C83.9528 81.9897 85.2997 81.5352 86.4115 80.7638C86.7489 80.8967 87.0883 81.0442 87.4278 81.2174L87.9463 81.484L90.7276 79.594ZM87.4189 72.1511V74.1189H77.5803V72.1511H87.4189ZM79.5481 60.3448H77.5803C76.4951 60.3448 75.6126 59.4623 75.6126 58.3771C75.6126 57.2919 76.4951 56.4094 77.5803 56.4094C78.6655 56.4094 79.5481 57.2919 79.5481 58.3771V60.3448ZM81.5158 70.1834V62.3125H83.4835V70.1834H81.5158ZM87.3196 76.0866C86.8621 78.3288 84.8747 80.022 82.4996 80.022C80.1246 80.022 78.1372 78.3288 77.6797 76.0866H87.3196ZM87.9099 67.7395L87.4189 68.0239V70.1834H85.4512V62.3125H87.4189C89.5893 62.3125 91.3544 60.5475 91.3544 58.3771C91.3544 56.2067 89.5893 54.4417 87.4189 54.4417C85.2485 54.4417 83.4835 56.2067 83.4835 58.3771V60.3448H81.5158V58.3771C81.5158 56.2067 79.7507 54.4417 77.5803 54.4417C75.4099 54.4417 73.6449 56.2067 73.6449 58.3771C73.6449 60.5475 75.4099 62.3125 77.5803 62.3125H79.5481V70.1834H77.5803V68.0239L77.0894 67.7395C73.6626 65.7541 71.5896 62.0695 71.6801 58.1233C71.809 52.5143 76.4715 47.777 82.0746 47.5635C82.2182 47.5566 82.3599 47.5547 82.5026 47.5547C85.3184 47.5547 87.9689 48.6202 90.0045 50.579C92.1434 52.6383 93.3221 55.4078 93.3221 58.3771C93.3221 62.2181 91.2481 65.8053 87.9099 67.7395ZM85.4512 60.3448V58.3771C85.4512 57.2919 86.3337 56.4094 87.4189 56.4094C88.5041 56.4094 89.3866 57.2919 89.3866 58.3771C89.3866 59.4623 88.5041 60.3448 87.4189 60.3448H85.4512ZM111.032 75.1027V84.9413H101.193V75.1027H111.032Z" fill="#7B7B7B"/>
</g>
<defs>
<filter id="filter0_d" x="0" y="0" width="172" height="168" filterUnits="userSpaceOnUse" color-interpolation-filters="sRGB">
<feFlood flood-opacity="0" result="BackgroundImageFix"/>
<feColorMatrix in="SourceAlpha" type="matrix" values="0 0 0 0 0 0 0 0 0 0 0 0 0 0 0 0 0 0 127 0"/>
<feOffset dx="3" dy="9"/>
<feGaussianBlur stdDeviation="4"/>
<feColorMatrix type="matrix" values="0 0 0 0 0 0 0 0 0 0 0 0 0 0 0 0 0 0 0.122 0"/>
<feBlend mode="normal" in2="BackgroundImageFix" result="effect1_dropShadow"/>
<feBlend mode="normal" in="SourceGraphic" in2="effect1_dropShadow" result="shape"/>
</filter>
<clipPath id="clip0">
<rect width="61" height="61" fill="white" transform="translate(52 54)"/>
</clipPath>
</defs>
</svg>
