<svg width="172" height="176" viewBox="0 0 172 176" fill="none" xmlns="http://www.w3.org/2000/svg">
<g filter="url(#filter0_d)">
<ellipse cx="83" cy="75.5" rx="78" ry="75.5" fill="white"/>
</g>
<path d="M27.9747 168.714C27.8077 170.143 27.2789 171.247 26.3883 172.026C25.5038 172.799 24.3256 173.186 22.8536 173.186C21.2579 173.186 19.9776 172.613 19.0128 171.469C18.0541 170.325 17.5748 168.794 17.5748 166.877V165.578C17.5748 164.323 17.7974 163.219 18.2428 162.266C18.6942 161.314 19.3313 160.584 20.1539 160.077C20.9765 159.563 21.9289 159.307 23.0113 159.307C24.4462 159.307 25.5966 159.709 26.4625 160.513C27.3284 161.311 27.8324 162.418 27.9747 163.834H26.1842C26.0295 162.758 25.6925 161.979 25.1729 161.496C24.6596 161.014 23.939 160.772 23.0113 160.772C21.8733 160.772 20.9796 161.193 20.3302 162.034C19.6869 162.875 19.3653 164.072 19.3653 165.625V166.933C19.3653 168.398 19.6715 169.564 20.2838 170.43C20.8961 171.296 21.7527 171.729 22.8536 171.729C23.8432 171.729 24.6008 171.506 25.1265 171.061C25.6584 170.61 26.011 169.827 26.1842 168.714H27.9747ZM36.5328 173C36.4339 172.802 36.3535 172.45 36.2916 171.942C35.4938 172.771 34.5413 173.186 33.4342 173.186C32.4446 173.186 31.6313 172.907 30.9943 172.351C30.3634 171.788 30.048 171.076 30.048 170.217C30.048 169.172 30.4438 168.361 31.2355 167.786C32.0333 167.205 33.1528 166.914 34.5939 166.914H36.2638V166.125C36.2638 165.526 36.0844 165.049 35.7257 164.697C35.367 164.338 34.8382 164.159 34.1393 164.159C33.527 164.159 33.0136 164.313 32.5993 164.623C32.1849 164.932 31.9777 165.306 31.9777 165.745H30.2521C30.2521 165.244 30.4284 164.762 30.7809 164.298C31.1396 163.828 31.622 163.457 32.2282 163.185C32.8405 162.912 33.5115 162.776 34.2413 162.776C35.3979 162.776 36.304 163.067 36.9596 163.648C37.6152 164.224 37.9554 165.018 37.9801 166.033V170.653C37.9801 171.574 38.0976 172.307 38.3327 172.852V173H36.5328ZM33.6847 171.692C34.2228 171.692 34.733 171.553 35.2155 171.274C35.6979 170.996 36.0473 170.634 36.2638 170.189V168.129H34.9186C32.8157 168.129 31.7643 168.745 31.7643 169.976C31.7643 170.514 31.9437 170.934 32.3024 171.237C32.6611 171.54 33.1219 171.692 33.6847 171.692ZM40.4431 167.897C40.4431 166.357 40.808 165.12 41.5378 164.187C42.2676 163.246 43.2232 162.776 44.4045 162.776C45.5796 162.776 46.5104 163.178 47.197 163.982V158.75H48.9133V173H47.3361L47.2526 171.924C46.5661 172.765 45.6105 173.186 44.3859 173.186C43.2232 173.186 42.2738 172.709 41.5378 171.757C40.808 170.804 40.4431 169.561 40.4431 168.027V167.897ZM42.1594 168.092C42.1594 169.23 42.3944 170.121 42.8645 170.764C43.3345 171.407 43.9839 171.729 44.8127 171.729C45.9012 171.729 46.696 171.24 47.197 170.263V165.652C46.6836 164.706 45.895 164.233 44.8312 164.233C43.9901 164.233 43.3345 164.558 42.8645 165.207C42.3944 165.856 42.1594 166.818 42.1594 168.092ZM57.9724 173C57.8735 172.802 57.7931 172.45 57.7312 171.942C56.9334 172.771 55.9809 173.186 54.8738 173.186C53.8842 173.186 53.0709 172.907 52.4338 172.351C51.803 171.788 51.4876 171.076 51.4876 170.217C51.4876 169.172 51.8834 168.361 52.6751 167.786C53.4729 167.205 54.5924 166.914 56.0335 166.914H57.7034V166.125C57.7034 165.526 57.524 165.049 57.1653 164.697C56.8066 164.338 56.2778 164.159 55.5789 164.159C54.9666 164.159 54.4532 164.313 54.0388 164.623C53.6244 164.932 53.4172 165.306 53.4172 165.745H51.6917C51.6917 165.244 51.8679 164.762 52.2205 164.298C52.5792 163.828 53.0616 163.457 53.6677 163.185C54.28 162.912 54.9511 162.776 55.6809 162.776C56.8375 162.776 57.7436 163.067 58.3992 163.648C59.0548 164.224 59.3949 165.018 59.4197 166.033V170.653C59.4197 171.574 59.5372 172.307 59.7722 172.852V173H57.9724ZM55.1243 171.692C55.6624 171.692 56.1726 171.553 56.655 171.274C57.1375 170.996 57.4869 170.634 57.7034 170.189V168.129H56.3582C54.2553 168.129 53.2039 168.745 53.2039 169.976C53.2039 170.514 53.3832 170.934 53.742 171.237C54.1007 171.54 54.5614 171.692 55.1243 171.692ZM68.1448 170.337C68.1448 169.874 67.9686 169.515 67.616 169.261C67.2697 169.001 66.6605 168.779 65.7884 168.593C64.9225 168.408 64.2329 168.185 63.7195 167.925C63.2124 167.666 62.8351 167.356 62.5877 166.998C62.3465 166.639 62.2259 166.212 62.2259 165.717C62.2259 164.895 62.5722 164.199 63.265 163.63C63.9639 163.061 64.8545 162.776 65.9368 162.776C67.0749 162.776 67.9964 163.07 68.7015 163.658C69.4127 164.245 69.7684 164.997 69.7684 165.912H68.0428C68.0428 165.442 67.8418 165.037 67.4398 164.697C67.0439 164.357 66.543 164.187 65.9368 164.187C65.3122 164.187 64.8236 164.323 64.471 164.595C64.1185 164.867 63.9422 165.222 63.9422 165.662C63.9422 166.076 64.1061 166.388 64.4339 166.599C64.7617 166.809 65.3524 167.01 66.2059 167.202C67.0656 167.393 67.7614 167.622 68.2933 167.888C68.8252 168.154 69.2179 168.476 69.4715 168.853C69.7313 169.224 69.8611 169.679 69.8611 170.217C69.8611 171.114 69.5024 171.834 68.785 172.378C68.0675 172.917 67.1367 173.186 65.9925 173.186C65.1885 173.186 64.4772 173.043 63.8587 172.759C63.2402 172.474 62.7547 172.078 62.4022 171.571C62.0558 171.058 61.8826 170.504 61.8826 169.911H63.5989C63.6299 170.486 63.8587 170.944 64.2855 171.284C64.7184 171.618 65.2874 171.785 65.9925 171.785C66.6419 171.785 67.1614 171.655 67.5511 171.395C67.9469 171.129 68.1448 170.777 68.1448 170.337ZM74.6156 160.531V162.962H76.4896V164.289H74.6156V170.514C74.6156 170.916 74.6991 171.219 74.8661 171.423C75.0331 171.621 75.3176 171.72 75.7196 171.72C75.9175 171.72 76.1897 171.683 76.536 171.608V173C76.0845 173.124 75.6454 173.186 75.2186 173.186C74.4517 173.186 73.8734 172.954 73.4838 172.49C73.0941 172.026 72.8993 171.367 72.8993 170.514V164.289H71.0717V162.962H72.8993V160.531H74.6156ZM83.5449 164.502C83.2851 164.459 83.0037 164.437 82.7006 164.437C81.575 164.437 80.8111 164.916 80.4091 165.875V173H78.6928V162.962H80.3627L80.3906 164.122C80.9534 163.225 81.7512 162.776 82.7841 162.776C83.1181 162.776 83.3717 162.82 83.5449 162.906V164.502ZM91.1475 173C91.0485 172.802 90.9681 172.45 90.9062 171.942C90.1084 172.771 89.1559 173.186 88.0488 173.186C87.0592 173.186 86.2459 172.907 85.6089 172.351C84.978 171.788 84.6626 171.076 84.6626 170.217C84.6626 169.172 85.0584 168.361 85.8501 167.786C86.6479 167.205 87.7674 166.914 89.2085 166.914H90.8784V166.125C90.8784 165.526 90.6991 165.049 90.3403 164.697C89.9816 164.338 89.4528 164.159 88.7539 164.159C88.1416 164.159 87.6283 164.313 87.2139 164.623C86.7995 164.932 86.5923 165.306 86.5923 165.745H84.8667C84.8667 165.244 85.043 164.762 85.3955 164.298C85.7542 163.828 86.2367 163.457 86.8428 163.185C87.4551 162.912 88.1261 162.776 88.856 162.776C90.0125 162.776 90.9186 163.067 91.5742 163.648C92.2298 164.224 92.57 165.018 92.5947 166.033V170.653C92.5947 171.574 92.7122 172.307 92.9473 172.852V173H91.1475ZM88.2993 171.692C88.8374 171.692 89.3477 171.553 89.8301 171.274C90.3125 170.996 90.6619 170.634 90.8784 170.189V168.129H89.5332C87.4303 168.129 86.3789 168.745 86.3789 169.976C86.3789 170.514 86.5583 170.934 86.917 171.237C87.2757 171.54 87.7365 171.692 88.2993 171.692ZM100.327 164.502C100.067 164.459 99.786 164.437 99.483 164.437C98.3573 164.437 97.5935 164.916 97.1915 165.875V173H95.4752V162.962H97.1451L97.1729 164.122C97.7357 163.225 98.5336 162.776 99.5665 162.776C99.9004 162.776 100.154 162.82 100.327 162.906V164.502ZM108.63 162.962L108.686 164.224C109.453 163.259 110.455 162.776 111.692 162.776C113.813 162.776 114.883 163.973 114.902 166.367V173H113.185V166.357C113.179 165.634 113.012 165.099 112.684 164.752C112.363 164.406 111.859 164.233 111.172 164.233C110.615 164.233 110.127 164.381 109.706 164.678C109.286 164.975 108.958 165.365 108.723 165.847V173H107.007V162.962H108.63ZM117.225 167.888C117.225 166.905 117.417 166.02 117.801 165.235C118.19 164.449 118.728 163.843 119.415 163.417C120.107 162.99 120.896 162.776 121.781 162.776C123.147 162.776 124.251 163.25 125.093 164.196C125.94 165.142 126.364 166.401 126.364 167.972V168.092C126.364 169.069 126.175 169.948 125.798 170.727C125.426 171.5 124.892 172.103 124.193 172.536C123.5 172.969 122.702 173.186 121.799 173.186C120.438 173.186 119.334 172.712 118.487 171.766C117.646 170.82 117.225 169.567 117.225 168.009V167.888ZM118.951 168.092C118.951 169.206 119.208 170.099 119.721 170.773C120.24 171.448 120.933 171.785 121.799 171.785C122.671 171.785 123.364 171.444 123.877 170.764C124.391 170.078 124.647 169.119 124.647 167.888C124.647 166.787 124.384 165.897 123.859 165.216C123.339 164.53 122.646 164.187 121.781 164.187C120.933 164.187 120.25 164.524 119.73 165.198C119.211 165.872 118.951 166.837 118.951 168.092ZM131.869 170.671L134.356 162.962H136.109L132.51 173H131.201L127.565 162.962H129.318L131.869 170.671ZM137.348 167.888C137.348 166.905 137.539 166.02 137.923 165.235C138.312 164.449 138.85 163.843 139.537 163.417C140.23 162.99 141.018 162.776 141.903 162.776C143.27 162.776 144.374 163.25 145.215 164.196C146.062 165.142 146.486 166.401 146.486 167.972V168.092C146.486 169.069 146.297 169.948 145.92 170.727C145.549 171.5 145.014 172.103 144.315 172.536C143.622 172.969 142.824 173.186 141.921 173.186C140.561 173.186 139.457 172.712 138.609 171.766C137.768 170.82 137.348 169.567 137.348 168.009V167.888ZM139.073 168.092C139.073 169.206 139.33 170.099 139.843 170.773C140.363 171.448 141.055 171.785 141.921 171.785C142.793 171.785 143.486 171.444 143.999 170.764C144.513 170.078 144.769 169.119 144.769 167.888C144.769 166.787 144.507 165.897 143.981 165.216C143.461 164.53 142.769 164.187 141.903 164.187C141.055 164.187 140.372 164.524 139.852 165.198C139.333 165.872 139.073 166.837 139.073 168.092Z" fill="white"/>
<g clip-path="url(#clip0)">
<path d="M38 59.0239H57.9148V38.4453H38V59.0239ZM43.2741 43.8952H52.6413V53.5747H43.2741V43.8952Z" fill="#7B7B7B"/>
<path d="M64.2437 38.4453V59.0239H128V38.4453H64.2437ZM122.726 53.5747H69.5178V43.8952H122.726V53.5747Z" fill="#7B7B7B"/>
<path d="M38 85.7266H57.9148V65.1479H38V85.7266ZM43.2741 70.5972H52.6413V80.2766H43.2741V70.5972Z" fill="#7B7B7B"/>
<path d="M64.2437 85.7266H128V65.1479H64.2437V85.7266ZM69.5178 70.5972H122.726V80.2766H69.5178V70.5972Z" fill="#7B7B7B"/>
<path d="M38 112.429H57.9148V91.8499H38V112.429ZM43.2741 97.2998H52.6413V106.979H43.2741V97.2998Z" fill="#7B7B7B"/>
<path d="M64.2437 112.429H128V91.8499H64.2437V112.429ZM69.5178 97.2998H122.726V106.979H69.5178V97.2998Z" fill="#7B7B7B"/>
</g>
<defs>
<filter id="filter0_d" x="0" y="0" width="172" height="168" filterUnits="userSpaceOnUse" color-interpolation-filters="sRGB">
<feFlood flood-opacity="0" result="BackgroundImageFix"/>
<feColorMatrix in="SourceAlpha" type="matrix" values="0 0 0 0 0 0 0 0 0 0 0 0 0 0 0 0 0 0 127 0"/>
<feOffset dx="3" dy="9"/>
<feGaussianBlur stdDeviation="4"/>
<feColorMatrix type="matrix" values="0 0 0 0 0 0 0 0 0 0 0 0 0 0 0 0 0 0 0.122 0"/>
<feBlend mode="normal" in2="BackgroundImageFix" result="effect1_dropShadow"/>
<feBlend mode="normal" in="SourceGraphic" in2="effect1_dropShadow" result="shape"/>
</filter>
<clipPath id="clip0">
<rect width="90" height="93" fill="white" transform="translate(38 29)"/>
</clipPath>
</defs>
</svg>
