<svg width="74" height="101" viewBox="0 0 74 101" fill="none" xmlns="http://www.w3.org/2000/svg">
<path d="M2.23242 91.5947V97H1.75781V84.2031H5.75684C7.06348 84.2031 8.07715 84.5342 8.79785 85.1963C9.52441 85.8525 9.8877 86.7666 9.8877 87.9385C9.8877 89.0986 9.5332 89.9951 8.82422 90.6279C8.12109 91.2607 7.11914 91.583 5.81836 91.5947H2.23242ZM2.23242 91.1201H5.75684C6.91113 91.1201 7.80762 90.8418 8.44629 90.2852C9.09082 89.7285 9.41309 88.9521 9.41309 87.9561C9.41309 86.9248 9.09082 86.1221 8.44629 85.5479C7.80762 84.9678 6.91113 84.6777 5.75684 84.6777H2.23242V91.1201ZM16.5146 87.833L15.8994 87.7803C15.0908 87.7803 14.4141 88.0439 13.8691 88.5713C13.3242 89.0928 12.9668 89.8252 12.7969 90.7686V97H12.3223V87.4902H12.7969V89.4678C13.0547 88.8057 13.4414 88.2812 13.957 87.8945C14.4727 87.5078 15.1201 87.3145 15.8994 87.3145C16.1748 87.3145 16.3975 87.3467 16.5674 87.4111L16.5146 87.833ZM17.4551 92.0605C17.4551 91.1523 17.6279 90.3379 17.9736 89.6172C18.3252 88.8906 18.8174 88.3252 19.4502 87.9209C20.0889 87.5166 20.8096 87.3145 21.6123 87.3145C22.4092 87.3145 23.124 87.5107 23.7568 87.9033C24.3896 88.2959 24.8818 88.8525 25.2334 89.5732C25.5908 90.2939 25.7725 91.1055 25.7783 92.0078V92.4297C25.7783 93.3438 25.6055 94.1611 25.2598 94.8818C24.9141 95.6025 24.4219 96.165 23.7832 96.5693C23.1504 96.9736 22.4326 97.1758 21.6299 97.1758C20.8271 97.1758 20.1064 96.9766 19.4678 96.5781C18.835 96.1797 18.3428 95.623 17.9912 94.9082C17.6396 94.1875 17.4609 93.3789 17.4551 92.4824V92.0605ZM17.9297 92.4297C17.9297 93.2207 18.085 93.9473 18.3955 94.6094C18.7119 95.2656 19.1484 95.7783 19.7051 96.1475C20.2676 96.5166 20.9092 96.7012 21.6299 96.7012C22.7139 96.7012 23.5957 96.2939 24.2754 95.4795C24.9609 94.665 25.3037 93.6162 25.3037 92.333V92.0605C25.3037 91.2812 25.1455 90.5605 24.8291 89.8984C24.5127 89.2363 24.0732 88.7207 23.5107 88.3516C22.9541 87.9766 22.3213 87.7891 21.6123 87.7891C20.5283 87.7891 19.6436 88.2021 18.958 89.0283C18.2725 89.8545 17.9297 90.8945 17.9297 92.1484V92.4297ZM28.6875 87.4902V98.1338C28.6875 99.0127 28.4678 99.6836 28.0283 100.146C27.5889 100.609 26.9736 100.841 26.1826 100.841C25.8955 100.841 25.6084 100.782 25.3213 100.665L25.3477 100.208C25.6289 100.313 25.9072 100.366 26.1826 100.366C26.8389 100.366 27.3398 100.17 27.6855 99.7773C28.0371 99.3906 28.2129 98.8428 28.2129 98.1338V87.4902H28.6875ZM28.0107 84.5195C28.0107 84.3848 28.0576 84.2705 28.1514 84.1768C28.2451 84.0771 28.3594 84.0273 28.4941 84.0273C28.6289 84.0273 28.7432 84.0771 28.8369 84.1768C28.9365 84.2705 28.9863 84.3848 28.9863 84.5195C28.9863 84.6543 28.9365 84.7686 28.8369 84.8623C28.7432 84.9561 28.6289 85.0029 28.4941 85.0029C28.3594 85.0029 28.2451 84.9561 28.1514 84.8623C28.0576 84.7686 28.0107 84.6543 28.0107 84.5195ZM35.4287 97.1758C34.6611 97.1758 33.9551 96.9707 33.3105 96.5605C32.6719 96.1445 32.1709 95.5762 31.8076 94.8555C31.4443 94.1348 31.2627 93.335 31.2627 92.4561V92.0605C31.2627 91.1816 31.4385 90.376 31.79 89.6436C32.1416 88.9111 32.625 88.3398 33.2402 87.9297C33.8555 87.5195 34.5264 87.3145 35.2529 87.3145C36.3135 87.3145 37.1807 87.6924 37.8545 88.4482C38.5283 89.2041 38.8652 90.1973 38.8652 91.4277V91.9287H31.7373V92.4473C31.7373 93.2207 31.8984 93.9385 32.2207 94.6006C32.5488 95.2568 32.9971 95.7725 33.5654 96.1475C34.1396 96.5225 34.7607 96.71 35.4287 96.71C36.0674 96.71 36.6094 96.6045 37.0547 96.3936C37.5059 96.1768 37.9043 95.8457 38.25 95.4004L38.584 95.6377C37.875 96.6631 36.8232 97.1758 35.4287 97.1758ZM35.2529 87.7891C34.3271 87.7891 33.542 88.1348 32.8975 88.8262C32.2529 89.5117 31.875 90.3877 31.7637 91.4541H38.3906V91.3398C38.3906 90.6953 38.2529 90.0977 37.9775 89.5469C37.708 88.9902 37.333 88.5596 36.8525 88.2549C36.3779 87.9443 35.8447 87.7891 35.2529 87.7891ZM42.1436 84.9238V87.4902H44.3057V87.9736H42.1436V94.7236C42.1436 95.3975 42.252 95.8955 42.4688 96.2178C42.6914 96.54 43.0605 96.7012 43.5762 96.7012C43.834 96.7012 44.1475 96.6748 44.5166 96.6221L44.5957 97.0703C44.4023 97.1406 44.0713 97.1758 43.6025 97.1758C42.9111 97.1758 42.416 96.9854 42.1172 96.6045C41.8184 96.2178 41.666 95.6113 41.6602 94.7852V87.9736H39.9023V87.4902H41.6602V84.9238H42.1436ZM47.3643 97H46.8896V87.4902H47.3643V97ZM46.6436 84.5195C46.6436 84.3848 46.6904 84.2705 46.7842 84.1768C46.8779 84.0771 46.9922 84.0273 47.127 84.0273C47.2617 84.0273 47.376 84.0771 47.4697 84.1768C47.5693 84.2705 47.6191 84.3848 47.6191 84.5195C47.6191 84.6543 47.5693 84.7686 47.4697 84.8623C47.376 84.9561 47.2617 85.0029 47.127 85.0029C46.9922 85.0029 46.8779 84.9561 46.7842 84.8623C46.6904 84.7686 46.6436 84.6543 46.6436 84.5195ZM56.3467 94.6709C56.3467 93.5166 55.3623 92.7314 53.3936 92.3154C52.21 92.0635 51.3867 91.7412 50.9238 91.3486C50.4609 90.9502 50.2295 90.4053 50.2295 89.7139C50.2295 89.0166 50.5225 88.4424 51.1084 87.9912C51.7002 87.54 52.4678 87.3145 53.4111 87.3145C54.4365 87.3145 55.2598 87.5605 55.8809 88.0527C56.502 88.5391 56.8125 89.1982 56.8125 90.0303H56.3291C56.3291 89.3916 56.0596 88.8584 55.5205 88.4307C54.9814 88.0029 54.2783 87.7891 53.4111 87.7891C52.5791 87.7891 51.9199 87.9707 51.4336 88.334C50.9473 88.6973 50.7041 89.1514 50.7041 89.6963C50.7041 90.124 50.7949 90.4609 50.9766 90.707C51.1582 90.9473 51.4541 91.167 51.8643 91.3662C52.2744 91.5596 52.8721 91.7471 53.6572 91.9287C54.4424 92.1104 55.0635 92.3242 55.5205 92.5703C55.9775 92.8164 56.3086 93.1094 56.5137 93.4492C56.7188 93.7832 56.8213 94.1934 56.8213 94.6797C56.8213 95.4297 56.5137 96.0332 55.8984 96.4902C55.2832 96.9473 54.4775 97.1758 53.4814 97.1758C52.415 97.1758 51.5537 96.9355 50.8975 96.4551C50.2471 95.9688 49.9219 95.3447 49.9219 94.583H50.3965C50.4434 95.251 50.7363 95.7725 51.2754 96.1475C51.8203 96.5166 52.5557 96.7012 53.4814 96.7012C54.3311 96.7012 55.0195 96.5049 55.5469 96.1123C56.0801 95.7139 56.3467 95.2334 56.3467 94.6709ZM60.5127 84.9238V87.4902H62.6748V87.9736H60.5127V94.7236C60.5127 95.3975 60.6211 95.8955 60.8379 96.2178C61.0605 96.54 61.4297 96.7012 61.9453 96.7012C62.2031 96.7012 62.5166 96.6748 62.8857 96.6221L62.9648 97.0703C62.7715 97.1406 62.4404 97.1758 61.9717 97.1758C61.2803 97.1758 60.7852 96.9854 60.4863 96.6045C60.1875 96.2178 60.0352 95.6113 60.0293 94.7852V87.9736H58.2715V87.4902H60.0293V84.9238H60.5127ZM71.2881 97C71.1709 96.5957 71.1123 96.0156 71.1123 95.2598C70.7373 95.8691 70.2246 96.3408 69.5742 96.6748C68.9238 97.0088 68.1885 97.1758 67.3682 97.1758C66.4893 97.1758 65.7803 96.9385 65.2412 96.4639C64.708 95.9834 64.4414 95.3594 64.4414 94.5918C64.4414 93.7188 64.834 93.0215 65.6191 92.5C66.4102 91.9727 67.459 91.7031 68.7656 91.6914H71.1123V90.3027C71.1123 89.5059 70.8604 88.8877 70.3564 88.4482C69.8584 88.0088 69.1436 87.7891 68.2119 87.7891C67.3447 87.7891 66.6211 88.0117 66.041 88.457C65.4609 88.9023 65.1709 89.4531 65.1709 90.1094L64.6963 90.0918C64.6963 89.3184 65.0361 88.6621 65.7158 88.123C66.3955 87.584 67.2275 87.3145 68.2119 87.3145C69.2373 87.3145 70.0518 87.5723 70.6553 88.0879C71.2588 88.5977 71.5693 89.3184 71.5869 90.25V94.7939C71.5869 95.8369 71.6689 96.5459 71.833 96.9209V97H71.2881ZM67.3682 96.71C68.2588 96.71 69.0234 96.5107 69.6621 96.1123C70.3066 95.7139 70.79 95.1543 71.1123 94.4336V92.1748H68.915C67.5557 92.1748 66.5156 92.4443 65.7949 92.9834C65.209 93.4229 64.916 93.9707 64.916 94.627C64.916 95.207 65.1475 95.6992 65.6104 96.1035C66.0732 96.5078 66.6592 96.71 67.3682 96.71Z" fill="#7B7B7B"/>
<path d="M69 34.5C69 15.4767 53.5233 0 34.5 0C15.4767 0 0 15.4767 0 34.5C0 41.559 2.1341 48.1275 5.78702 53.6007C5.79134 53.6072 5.7933 53.6149 5.79256 53.6227C5.79181 53.6305 5.79384 53.6384 5.7983 53.6449L6.02945 53.9833C6.23645 54.2858 6.45955 54.5721 6.67575 54.8665C6.76315 54.9861 6.8494 55.1068 6.9391 55.2264C7.2128 55.5898 7.49455 55.9463 7.7809 56.2971C7.8637 56.3983 7.94765 56.4983 8.0316 56.5984C9.36215 58.1911 10.8226 59.6493 12.3935 60.9615C12.489 61.0408 12.5833 61.1213 12.6799 61.2007C13.0226 61.4801 13.3687 61.7538 13.7218 62.0195C13.8644 62.1276 14.0093 62.2323 14.153 62.3381C14.4888 62.5841 14.8246 62.8279 15.1697 63.0614C15.3537 63.1867 15.5445 63.3041 15.7308 63.4259C16.2092 63.7365 16.6922 64.0366 17.1845 64.3218C17.5271 64.5219 17.871 64.7208 18.2218 64.9094C18.4333 65.0233 18.6495 65.1291 18.8634 65.2383C19.236 65.4292 19.6121 65.6144 19.9928 65.7915C20.1848 65.8801 20.3768 65.9674 20.57 66.0526C21.0105 66.248 21.4567 66.4332 21.9063 66.6103C22.0455 66.6655 22.1835 66.7218 22.3238 66.7759C23.5578 67.2428 24.8251 67.643 26.1211 67.9673C26.174 67.9811 26.2281 67.9914 26.281 68.0041C26.8537 68.1444 27.4321 68.2698 28.0163 68.3813C28.1715 68.4112 28.3268 68.4376 28.482 68.4652C28.5012 68.4691 28.5196 68.4721 28.5385 68.475C28.5448 68.476 28.5491 68.4819 28.5482 68.4882C28.5472 68.4946 28.5516 68.5005 28.558 68.5014L29.1536 68.5848C29.2916 68.6067 29.4296 68.6228 29.5676 68.6423L29.6941 68.6596C29.7183 68.663 29.7413 68.6642 29.7654 68.6665C29.8275 68.6745 29.8908 68.6826 29.9529 68.6907C30.1415 68.716 30.329 68.7401 30.5175 68.7631C30.9741 68.816 31.433 68.8574 31.8953 68.8919C31.9918 68.8988 32.0884 68.9103 32.1839 68.9172C32.2943 68.9241 32.4058 68.9321 32.5163 68.939C33.174 68.9758 33.8341 69 34.5 69C35.1658 69 35.826 68.9758 36.4826 68.939C36.5965 68.9321 36.7103 68.9241 36.8242 68.916C36.9207 68.9091 37.0173 68.8976 37.1151 68.8907C37.5728 68.8562 38.0294 68.8148 38.4825 68.7631C38.6711 68.7412 38.8596 68.716 39.0471 68.6907C39.1218 68.6803 39.1966 68.6722 39.2702 68.6619C39.2932 68.6584 39.3173 68.6573 39.3403 68.655L39.4565 68.6389C39.5865 68.6205 39.7175 68.6044 39.8463 68.5837L40.4789 68.4946C40.4859 68.4936 40.4907 68.4872 40.4897 68.4803C40.4888 68.4737 40.493 68.4676 40.4996 68.4665C40.5061 68.4654 40.5126 68.4644 40.5191 68.463C40.6744 68.4353 40.8296 68.4089 40.9848 68.379C41.569 68.2674 42.1475 68.1421 42.7202 68.0018C42.7731 67.9892 42.8271 67.9776 42.88 67.965C44.1761 67.6407 45.4434 67.2405 46.6773 66.7736C46.8176 66.7207 46.9568 66.6632 47.0971 66.608C47.5467 66.4309 47.9918 66.2458 48.4323 66.0514C48.6255 65.9663 48.8186 65.8789 49.0095 65.7904C49.3902 65.6133 49.7662 65.4281 50.1388 65.2372C50.3539 65.128 50.569 65.021 50.7806 64.9083C51.1313 64.7197 51.474 64.5208 51.8178 64.3206C52.31 64.0343 52.7942 63.7353 53.2715 63.4248C53.4589 63.3029 53.6487 63.1856 53.8326 63.0602C54.1765 62.8268 54.5134 62.583 54.8492 62.3369C54.993 62.2311 55.1379 62.1264 55.2805 62.0183C55.6324 61.7527 55.9797 61.479 56.3224 61.1995C56.419 61.1202 56.5133 61.0397 56.6087 60.9603C58.1796 59.647 59.6401 58.19 60.9719 56.5961C61.0558 56.496 61.1386 56.3971 61.2202 56.2959C61.5066 55.9452 61.7883 55.5887 62.062 55.2253C62.1517 55.1068 62.2368 54.9861 62.3254 54.8653C62.5416 54.5709 62.7647 54.2846 62.9717 53.9822L63.2029 53.6438C63.2073 53.6373 63.2093 53.6294 63.2086 53.6215C63.2079 53.6138 63.2098 53.606 63.2141 53.5995C66.8659 48.1275 69 41.559 69 34.5ZM66.7 34.5C66.7 34.7474 66.6972 34.9941 66.6916 35.2402C66.5571 41.1428 57.4927 41.2957 51.8087 39.6987C50.8469 39.4284 49.8483 39.2468 48.8228 39.1626C48.8005 39.1608 48.78 39.1494 48.7669 39.1314C48.7524 39.1117 48.7294 39.1 48.705 39.1H47.5076H42.0118H40.6709C40.4386 39.1 40.25 38.9114 40.25 38.6802V37.9385C40.25 37.7281 40.4213 37.59 40.5674 37.5337C47.9723 34.7495 52.5906 23.2001 51.6223 15.1225C51.3207 12.6091 54.5543 9.20697 56.4084 10.9305C62.7354 16.812 66.7 25.2004 66.7 34.5ZM60.4187 53.5785C60.3255 53.7038 60.2324 53.828 60.1381 53.9523C59.8816 54.2892 59.6229 54.6239 59.3538 54.9505C59.3262 54.9838 59.2975 55.016 59.2699 55.0493C58.3406 56.1671 57.3367 57.2205 56.2672 58.2038C56.2039 58.2624 56.1407 58.3222 56.0763 58.3797C55.7578 58.6684 55.4312 58.949 55.1011 59.225C54.9976 59.3112 54.8929 59.3963 54.7883 59.4814C54.4674 59.7425 54.1443 59.9989 53.8142 60.2473C53.7027 60.3313 53.5877 60.4106 53.475 60.4935C53.2351 60.6694 52.9 60.494 52.9 60.1965V56.35C52.9 55.7149 52.3851 55.2 51.75 55.2C51.1149 55.2 50.6 55.7149 50.6 56.35V62.2113C50.6 62.3084 50.5484 62.3978 50.4643 62.4461C50.171 62.614 49.8778 62.7808 49.5799 62.9384C49.3764 63.0464 49.1694 63.1511 48.9624 63.2557C48.6151 63.4305 48.2655 63.5996 47.9124 63.7617C47.7399 63.8411 47.5686 63.9204 47.395 63.9963C46.9522 64.1895 46.5048 64.3736 46.0541 64.5472C45.9609 64.5828 45.87 64.6219 45.7769 64.6564C44.6269 65.0865 43.4516 65.4522 42.2544 65.7489C42.1682 65.7708 42.0808 65.788 41.9945 65.8087C41.4989 65.9272 40.9998 66.0353 40.4972 66.1296C40.3032 66.1657 40.1188 66.0322 40.0893 65.8371L38.2136 53.4122C38.1729 53.1426 38.3817 52.9 38.6543 52.9C38.9005 52.9 39.1 52.7005 39.1 52.4543V51.9117C39.1 51.1224 39.9796 50.6515 40.6364 51.0893L42.1982 52.1302C43.2514 52.8322 44.6837 52.3873 45.1538 51.2121L47.2067 46.08C48.2899 43.3721 51.1507 41.5796 53.7383 42.9252C57.3025 44.7786 59.9352 48.1847 60.713 52.3187C60.7961 52.7603 60.6866 53.2176 60.4187 53.5785ZM27.0043 65.8099C26.9181 65.7892 26.8318 65.7708 26.7456 65.7501C25.5484 65.4522 24.372 65.0877 23.222 64.6576C23.1288 64.6231 23.0368 64.584 22.9448 64.5483C22.494 64.3747 22.0466 64.1907 21.6051 63.9975C21.4314 63.9216 21.2589 63.8422 21.0864 63.7629C20.7334 63.6007 20.3837 63.4317 20.0364 63.2569C19.8295 63.1522 19.6224 63.0487 19.4189 62.9395C19.121 62.7819 18.8278 62.614 18.5345 62.4473C18.451 62.398 18.3988 62.3095 18.3988 62.2125V56.35C18.3988 55.7149 17.884 55.2 17.2488 55.2C16.6137 55.2 16.0988 55.7149 16.0988 56.35V60.1965C16.0988 60.4935 15.764 60.6681 15.5238 60.4935C15.4111 60.4106 15.2962 60.3313 15.1846 60.2473C14.8546 59.9989 14.5314 59.7425 14.2117 59.4826C14.1059 59.3975 14.0012 59.3112 13.8966 59.225C13.5665 58.9501 13.2411 58.6695 12.9237 58.3809C12.8581 58.3222 12.7949 58.2613 12.7305 58.2026C11.661 57.2194 10.6571 56.1671 9.729 55.0493C9.7014 55.016 9.67265 54.9838 9.64505 54.9505C9.37595 54.6239 9.1172 54.2892 8.86075 53.9523C8.76645 53.828 8.67215 53.7038 8.58015 53.5785C8.31397 53.2169 8.2039 52.7606 8.28696 52.3194C9.06526 48.1851 11.6977 44.7788 15.2617 42.9252C17.8493 41.5796 20.7101 43.3721 21.7933 46.08L23.8462 51.2121C24.3163 52.3873 25.7486 52.8322 26.8018 52.1302L28.3636 51.0893C29.0204 50.6516 29.9 51.1224 29.9 51.9117V52.4527C29.9 52.6997 30.1003 52.9 30.3473 52.9C30.6205 52.9 30.8299 53.1428 30.7897 53.4131L28.9456 65.8138C28.914 66.0257 28.7133 66.1717 28.5027 66.1319C28.0002 66.0364 27.5 65.9284 27.0043 65.8099ZM29.3146 35.4096C23.8153 33.3753 19.55 23.9775 19.55 17.25C19.55 16.9661 19.6686 16.6936 19.8474 16.473L20.4136 15.7745C22.3123 13.516 25.553 12.8696 28.4774 14.1645C29.6528 14.6867 30.9051 14.95 32.2 14.95C32.7725 14.95 33.3353 14.8979 33.883 14.7971C38.543 13.9402 43.8779 11.0659 47.3788 14.2588C48.8623 15.6118 49.5297 17.5444 49.303 19.5394C48.5636 26.0463 44.8063 33.4832 39.759 35.3809C38.6595 35.7949 37.95 36.7989 37.95 37.9385V38.6802C37.95 39.1454 38.0675 39.5835 38.2743 39.9666C38.7876 40.9174 39.2968 42.3579 38.6048 43.1878C38.3342 43.5124 37.9334 43.7 37.5108 43.7H31.4892C31.0666 43.7 30.6659 43.5123 30.3954 43.1877C29.7036 42.3577 30.2132 40.916 30.7262 39.965C30.9327 39.5822 31.05 39.1446 31.05 38.6802V37.95C31.05 36.8161 30.3542 35.7949 29.3146 35.4096ZM34.546 2.3023C34.5598 2.3023 34.5713 2.3023 34.584 2.3023C35.1463 2.30575 35.6995 2.3368 36.2285 2.39775C38.5379 2.65529 40.698 3.45957 42.5751 4.67564C44.8111 6.12415 42.5405 8.35048 39.9717 7.64405C39.4087 7.48956 38.818 7.78112 38.5997 8.32255C37.5406 10.9503 35.029 12.65 32.2 12.65C31.2282 12.65 30.2887 12.4522 29.4089 12.0624C28.6738 11.737 27.923 11.5072 27.1715 11.3692C24.8442 10.9418 22.2648 8.34038 23.9395 6.66885C26.7616 3.8525 30.5095 2.3023 34.546 2.3023ZM39.1 46.6364C39.1 46.3456 39.202 46.064 39.3882 45.8406L42.548 42.0495C42.891 41.638 43.3991 41.4 43.9349 41.4C45.2122 41.4 46.0856 42.69 45.6113 43.8759L44.4222 46.8491C43.7714 48.4765 41.7881 49.0929 40.3295 48.121L39.6538 47.6708C39.3078 47.4403 39.1 47.0521 39.1 46.6364ZM37.2197 66.5712C36.9093 66.5976 36.5976 66.6275 36.2894 66.646C35.6983 66.6781 35.1037 66.7 34.508 66.7C34.4689 66.7 34.4287 66.6965 34.3896 66.6965C33.8318 66.6943 33.2752 66.677 32.7221 66.646C32.4185 66.6287 32.1126 66.5988 31.8067 66.5735C31.4576 66.5435 31.2102 66.2263 31.2617 65.8797L32.9986 54.1965C33.1093 53.4515 33.7489 52.9 34.502 52.9C35.2539 52.9 35.8928 53.4497 36.005 54.1932L37.7673 65.8731C37.8198 66.2212 37.5705 66.5412 37.2197 66.5712ZM36.8 48.5323C36.8 49.6743 35.8743 50.6 34.7323 50.6H34.2677C33.1257 50.6 32.2 49.6743 32.2 48.5323V48.3C32.2 47.0297 33.2297 46 34.5 46C35.7703 46 36.8 47.0297 36.8 48.3V48.5323ZM29.6119 45.8405C29.798 46.0639 29.9 46.3456 29.9 46.6364C29.9 47.0521 29.6923 47.4403 29.3464 47.6709L28.6715 48.1209C27.2132 49.0933 25.2296 48.4772 24.5788 46.8497L23.3897 43.8758C22.9155 42.6899 23.7889 41.4 25.0661 41.4C25.602 41.4 26.1101 41.638 26.4532 42.0497L29.6119 45.8405ZM22.1467 4.77268C22.3168 4.70175 22.4452 4.91051 22.3146 5.04045C19.0486 8.3007 17.25 12.635 17.25 17.25C17.25 24.8734 22.0685 35.1819 28.5166 37.5659C28.6534 37.6176 28.75 37.7752 28.75 37.95V38.6802C28.75 38.9114 28.5614 39.1 28.3302 39.1H26.9893H21.4935H20.8668C20.6492 39.1 20.4334 39.1503 20.2166 39.1676C19.4323 39.2302 18.6638 39.3496 17.9152 39.522C11.8899 40.9099 2.3 40.6831 2.3 34.5C2.3 21.1203 10.5065 9.62817 22.1467 4.77268Z" fill="#7B7B7B"/>
</svg>
