<svg width="197" height="187" viewBox="0 0 197 187" fill="none" xmlns="http://www.w3.org/2000/svg">
<g filter="url(#filter0_d)">
<ellipse cx="99" cy="75.5" rx="78" ry="75.5" fill="white"/>
</g>
<path d="M11.7357 177.714C11.5687 179.143 11.0399 180.247 10.1493 181.026C9.26482 181.799 8.0866 182.186 6.61459 182.186C5.01889 182.186 3.73862 181.613 2.77377 180.469C1.81511 179.325 1.33578 177.794 1.33578 175.877V174.578C1.33578 173.323 1.55844 172.219 2.00375 171.266C2.45525 170.314 3.0923 169.584 3.91489 169.077C4.73748 168.563 5.68995 168.307 6.77231 168.307C8.2072 168.307 9.35759 168.709 10.2235 169.513C11.0894 170.311 11.5934 171.418 11.7357 172.834H9.94516C9.79054 171.758 9.45346 170.979 8.93393 170.496C8.42058 170.014 7.70004 169.772 6.77231 169.772C5.63429 169.772 4.74057 170.193 4.09116 171.034C3.44793 171.875 3.12631 173.072 3.12631 174.625V175.933C3.12631 177.398 3.43246 178.564 4.04477 179.43C4.65707 180.296 5.51368 180.729 6.61459 180.729C7.60418 180.729 8.36183 180.506 8.88754 180.061C9.41944 179.61 9.77198 178.827 9.94516 177.714H11.7357ZM20.2939 182C20.1949 181.802 20.1145 181.45 20.0526 180.942C19.2548 181.771 18.3023 182.186 17.1952 182.186C16.2056 182.186 15.3923 181.907 14.7553 181.351C14.1244 180.788 13.809 180.076 13.809 179.217C13.809 178.172 14.2048 177.361 14.9965 176.786C15.7943 176.205 16.9138 175.914 18.3549 175.914H20.0248V175.125C20.0248 174.526 19.8454 174.049 19.4867 173.697C19.128 173.338 18.5992 173.159 17.9003 173.159C17.288 173.159 16.7746 173.313 16.3603 173.623C15.9459 173.932 15.7387 174.306 15.7387 174.745H14.0131C14.0131 174.244 14.1894 173.762 14.5419 173.298C14.9006 172.828 15.383 172.457 15.9892 172.185C16.6015 171.912 17.2725 171.776 18.0023 171.776C19.1589 171.776 20.065 172.067 20.7206 172.648C21.3762 173.224 21.7164 174.018 21.7411 175.033V179.653C21.7411 180.574 21.8586 181.307 22.0937 181.852V182H20.2939ZM17.4457 180.692C17.9838 180.692 18.494 180.553 18.9765 180.274C19.4589 179.996 19.8083 179.634 20.0248 179.189V177.129H18.6796C16.5767 177.129 15.5253 177.745 15.5253 178.976C15.5253 179.514 15.7047 179.934 16.0634 180.237C16.4221 180.54 16.8829 180.692 17.4457 180.692ZM24.2041 176.897C24.2041 175.357 24.569 174.12 25.2988 173.187C26.0286 172.246 26.9842 171.776 28.1655 171.776C29.3406 171.776 30.2714 172.178 30.958 172.982V167.75H32.6743V182H31.0971L31.0136 180.924C30.3271 181.765 29.3715 182.186 28.1469 182.186C26.9842 182.186 26.0348 181.709 25.2988 180.757C24.569 179.804 24.2041 178.561 24.2041 177.027V176.897ZM25.9204 177.092C25.9204 178.23 26.1554 179.121 26.6255 179.764C27.0955 180.407 27.7449 180.729 28.5737 180.729C29.6622 180.729 30.457 180.24 30.958 179.263V174.652C30.4446 173.706 29.6561 173.233 28.5922 173.233C27.7511 173.233 27.0955 173.558 26.6255 174.207C26.1554 174.856 25.9204 175.818 25.9204 177.092ZM41.7334 182C41.6345 181.802 41.5541 181.45 41.4922 180.942C40.6944 181.771 39.7419 182.186 38.6348 182.186C37.6452 182.186 36.8319 181.907 36.1948 181.351C35.564 180.788 35.2486 180.076 35.2486 179.217C35.2486 178.172 35.6444 177.361 36.4361 176.786C37.2339 176.205 38.3534 175.914 39.7945 175.914H41.4644V175.125C41.4644 174.526 41.285 174.049 40.9263 173.697C40.5676 173.338 40.0388 173.159 39.3399 173.159C38.7276 173.159 38.2142 173.313 37.7998 173.623C37.3854 173.932 37.1782 174.306 37.1782 174.745H35.4527C35.4527 174.244 35.6289 173.762 35.9815 173.298C36.3402 172.828 36.8226 172.457 37.4287 172.185C38.041 171.912 38.7121 171.776 39.4419 171.776C40.5985 171.776 41.5046 172.067 42.1602 172.648C42.8158 173.224 43.1559 174.018 43.1807 175.033V179.653C43.1807 180.574 43.2982 181.307 43.5332 181.852V182H41.7334ZM38.8853 180.692C39.4234 180.692 39.9336 180.553 40.416 180.274C40.8985 179.996 41.2479 179.634 41.4644 179.189V177.129H40.1192C38.0163 177.129 36.9649 177.745 36.9649 178.976C36.9649 179.514 37.1442 179.934 37.503 180.237C37.8617 180.54 38.3225 180.692 38.8853 180.692ZM51.9058 179.337C51.9058 178.874 51.7296 178.515 51.377 178.261C51.0307 178.001 50.4215 177.779 49.5494 177.593C48.6835 177.408 47.9939 177.185 47.4805 176.925C46.9734 176.666 46.5961 176.356 46.3487 175.998C46.1075 175.639 45.9869 175.212 45.9869 174.717C45.9869 173.895 46.3333 173.199 47.026 172.63C47.7249 172.061 48.6155 171.776 49.6978 171.776C50.8359 171.776 51.7574 172.07 52.4625 172.658C53.1737 173.245 53.5294 173.997 53.5294 174.912H51.8038C51.8038 174.442 51.6028 174.037 51.2008 173.697C50.8049 173.357 50.304 173.187 49.6978 173.187C49.0732 173.187 48.5846 173.323 48.232 173.595C47.8795 173.867 47.7032 174.222 47.7032 174.662C47.7032 175.076 47.8671 175.388 48.1949 175.599C48.5227 175.809 49.1134 176.01 49.9669 176.202C50.8266 176.393 51.5224 176.622 52.0543 176.888C52.5862 177.154 52.9789 177.476 53.2325 177.853C53.4923 178.224 53.6222 178.679 53.6222 179.217C53.6222 180.114 53.2634 180.834 52.546 181.378C51.8285 181.917 50.8977 182.186 49.7535 182.186C48.9495 182.186 48.2382 182.043 47.6197 181.759C47.0012 181.474 46.5157 181.078 46.1632 180.571C45.8168 180.058 45.6436 179.504 45.6436 178.911H47.3599C47.3909 179.486 47.6197 179.944 48.0465 180.284C48.4794 180.618 49.0484 180.785 49.7535 180.785C50.4029 180.785 50.9224 180.655 51.3121 180.395C51.7079 180.129 51.9058 179.777 51.9058 179.337ZM58.3766 169.531V171.962H60.2506V173.289H58.3766V179.514C58.3766 179.916 58.4601 180.219 58.6271 180.423C58.7941 180.621 59.0786 180.72 59.4806 180.72C59.6785 180.72 59.9507 180.683 60.297 180.608V182C59.8455 182.124 59.4064 182.186 58.9796 182.186C58.2127 182.186 57.6344 181.954 57.2448 181.49C56.8551 181.026 56.6603 180.367 56.6603 179.514V173.289H54.8327V171.962H56.6603V169.531H58.3766ZM67.3059 173.502C67.0461 173.459 66.7647 173.437 66.4616 173.437C65.336 173.437 64.5721 173.916 64.1701 174.875V182H62.4538V171.962H64.1237L64.1516 173.122C64.7144 172.225 65.5122 171.776 66.5451 171.776C66.8791 171.776 67.1327 171.82 67.3059 171.906V173.502ZM74.9085 182C74.8095 181.802 74.7291 181.45 74.6673 180.942C73.8694 181.771 72.9169 182.186 71.8098 182.186C70.8202 182.186 70.0069 181.907 69.3699 181.351C68.739 180.788 68.4236 180.076 68.4236 179.217C68.4236 178.172 68.8194 177.361 69.6111 176.786C70.409 176.205 71.5284 175.914 72.9695 175.914H74.6394V175.125C74.6394 174.526 74.4601 174.049 74.1013 173.697C73.7426 173.338 73.2138 173.159 72.5149 173.159C71.9026 173.159 71.3893 173.313 70.9749 173.623C70.5605 173.932 70.3533 174.306 70.3533 174.745H68.6277C68.6277 174.244 68.804 173.762 69.1565 173.298C69.5152 172.828 69.9977 172.457 70.6038 172.185C71.2161 171.912 71.8871 171.776 72.617 171.776C73.7735 171.776 74.6796 172.067 75.3352 172.648C75.9908 173.224 76.331 174.018 76.3557 175.033V179.653C76.3557 180.574 76.4732 181.307 76.7083 181.852V182H74.9085ZM72.0603 180.692C72.5984 180.692 73.1087 180.553 73.5911 180.274C74.0735 179.996 74.4229 179.634 74.6394 179.189V177.129H73.2942C71.1913 177.129 70.1399 177.745 70.1399 178.976C70.1399 179.514 70.3193 179.934 70.678 180.237C71.0367 180.54 71.4975 180.692 72.0603 180.692ZM84.0882 173.502C83.8284 173.459 83.547 173.437 83.244 173.437C82.1183 173.437 81.3545 173.916 80.9525 174.875V182H79.2362V171.962H80.9061L80.9339 173.122C81.4967 172.225 82.2946 171.776 83.3275 171.776C83.6614 171.776 83.915 171.82 84.0882 171.906V173.502ZM92.3911 171.962L92.4467 173.224C93.2137 172.259 94.2156 171.776 95.4526 171.776C97.574 171.776 98.644 172.973 98.6625 175.367V182H96.9462V175.357C96.9401 174.634 96.7731 174.099 96.4453 173.752C96.1236 173.406 95.6196 173.233 94.9331 173.233C94.3764 173.233 93.8878 173.381 93.4672 173.678C93.0467 173.975 92.7189 174.365 92.4838 174.847V182H90.7675V171.962H92.3911ZM100.986 176.888C100.986 175.905 101.178 175.02 101.562 174.235C101.951 173.449 102.489 172.843 103.176 172.417C103.868 171.99 104.657 171.776 105.542 171.776C106.908 171.776 108.012 172.25 108.854 173.196C109.701 174.142 110.125 175.401 110.125 176.972V177.092C110.125 178.069 109.936 178.948 109.559 179.727C109.188 180.5 108.653 181.103 107.954 181.536C107.261 181.969 106.463 182.186 105.56 182.186C104.199 182.186 103.095 181.712 102.248 180.766C101.407 179.82 100.986 178.567 100.986 177.009V176.888ZM102.712 177.092C102.712 178.206 102.969 179.099 103.482 179.773C104.001 180.448 104.694 180.785 105.56 180.785C106.432 180.785 107.125 180.444 107.638 179.764C108.152 179.078 108.408 178.119 108.408 176.888C108.408 175.787 108.145 174.897 107.62 174.216C107.1 173.53 106.407 173.187 105.542 173.187C104.694 173.187 104.011 173.524 103.491 174.198C102.972 174.872 102.712 175.837 102.712 177.092ZM115.63 179.671L118.117 171.962H119.87L116.271 182H114.962L111.326 171.962H113.079L115.63 179.671ZM121.109 176.888C121.109 175.905 121.3 175.02 121.684 174.235C122.073 173.449 122.611 172.843 123.298 172.417C123.991 171.99 124.779 171.776 125.664 171.776C127.031 171.776 128.135 172.25 128.976 173.196C129.823 174.142 130.247 175.401 130.247 176.972V177.092C130.247 178.069 130.058 178.948 129.681 179.727C129.31 180.5 128.775 181.103 128.076 181.536C127.383 181.969 126.585 182.186 125.682 182.186C124.322 182.186 123.218 181.712 122.37 180.766C121.529 179.82 121.109 178.567 121.109 177.009V176.888ZM122.834 177.092C122.834 178.206 123.091 179.099 123.604 179.773C124.124 180.448 124.816 180.785 125.682 180.785C126.554 180.785 127.247 180.444 127.76 179.764C128.274 179.078 128.53 178.119 128.53 176.888C128.53 175.787 128.268 174.897 127.742 174.216C127.222 173.53 126.53 173.187 125.664 173.187C124.816 173.187 124.133 173.524 123.613 174.198C123.094 174.872 122.834 175.837 122.834 177.092ZM145.971 177.092C145.971 178.62 145.622 179.851 144.923 180.785C144.224 181.719 143.278 182.186 142.084 182.186C140.866 182.186 139.907 181.799 139.208 181.026V185.859H137.492V171.962H139.06L139.143 173.075C139.842 172.209 140.813 171.776 142.056 171.776C143.262 171.776 144.215 172.231 144.914 173.14C145.619 174.049 145.971 175.314 145.971 176.935V177.092ZM144.255 176.897C144.255 175.766 144.014 174.872 143.531 174.216C143.049 173.561 142.387 173.233 141.546 173.233C140.507 173.233 139.728 173.694 139.208 174.615V179.412C139.722 180.327 140.507 180.785 141.565 180.785C142.387 180.785 143.04 180.46 143.522 179.811C144.011 179.155 144.255 178.184 144.255 176.897ZM153.203 173.502C152.943 173.459 152.662 173.437 152.359 173.437C151.233 173.437 150.469 173.916 150.067 174.875V182H148.351V171.962H150.021L150.049 173.122C150.611 172.225 151.409 171.776 152.442 171.776C152.776 171.776 153.03 171.82 153.203 171.906V173.502ZM154.339 176.888C154.339 175.905 154.531 175.02 154.914 174.235C155.304 173.449 155.842 172.843 156.529 172.417C157.221 171.99 158.01 171.776 158.894 171.776C160.261 171.776 161.365 172.25 162.206 173.196C163.054 174.142 163.477 175.401 163.477 176.972V177.092C163.477 178.069 163.289 178.948 162.911 179.727C162.54 180.5 162.005 181.103 161.307 181.536C160.614 181.969 159.816 182.186 158.913 182.186C157.552 182.186 156.448 181.712 155.601 180.766C154.76 179.82 154.339 178.567 154.339 177.009V176.888ZM156.065 177.092C156.065 178.206 156.321 179.099 156.835 179.773C157.354 180.448 158.047 180.785 158.913 180.785C159.785 180.785 160.478 180.444 160.991 179.764C161.504 179.078 161.761 178.119 161.761 176.888C161.761 175.787 161.498 174.897 160.973 174.216C160.453 173.53 159.76 173.187 158.894 173.187C158.047 173.187 157.364 173.524 156.844 174.198C156.325 174.872 156.065 175.837 156.065 177.092ZM167.592 171.962V183.16C167.592 185.089 166.717 186.054 164.966 186.054C164.589 186.054 164.24 185.999 163.918 185.887V184.514C164.116 184.564 164.376 184.588 164.697 184.588C165.081 184.588 165.371 184.483 165.569 184.273C165.773 184.069 165.875 183.71 165.875 183.197V171.962H167.592ZM165.699 169.299C165.699 169.027 165.783 168.795 165.95 168.604C166.123 168.406 166.373 168.307 166.701 168.307C167.035 168.307 167.289 168.403 167.462 168.594C167.635 168.786 167.722 169.021 167.722 169.299C167.722 169.578 167.635 169.81 167.462 169.995C167.289 170.181 167.035 170.273 166.701 170.273C166.367 170.273 166.117 170.181 165.95 169.995C165.783 169.81 165.699 169.578 165.699 169.299ZM174.721 182.186C173.36 182.186 172.253 181.74 171.4 180.85C170.546 179.953 170.12 178.756 170.12 177.259V176.944C170.12 175.948 170.308 175.061 170.686 174.281C171.069 173.496 171.601 172.883 172.281 172.444C172.968 171.999 173.71 171.776 174.508 171.776C175.813 171.776 176.827 172.206 177.551 173.066C178.274 173.926 178.636 175.156 178.636 176.758V177.473H171.836C171.861 178.462 172.148 179.263 172.699 179.875C173.255 180.482 173.96 180.785 174.814 180.785C175.42 180.785 175.933 180.661 176.354 180.414C176.775 180.166 177.143 179.838 177.458 179.43L178.506 180.247C177.665 181.539 176.403 182.186 174.721 182.186ZM174.508 173.187C173.815 173.187 173.234 173.44 172.764 173.947C172.294 174.448 172.003 175.153 171.892 176.062H176.92V175.933C176.87 175.061 176.635 174.386 176.215 173.91C175.794 173.428 175.225 173.187 174.508 173.187ZM183.149 169.531V171.962H185.023V173.289H183.149V179.514C183.149 179.916 183.233 180.219 183.4 180.423C183.567 180.621 183.851 180.72 184.253 180.72C184.451 180.72 184.724 180.683 185.07 180.608V182C184.618 182.124 184.179 182.186 183.752 182.186C182.986 182.186 182.407 181.954 182.018 181.49C181.628 181.026 181.433 180.367 181.433 179.514V173.289H179.606V171.962H181.433V169.531H183.149ZM186.587 176.888C186.587 175.905 186.778 175.02 187.162 174.235C187.551 173.449 188.089 172.843 188.776 172.417C189.469 171.99 190.257 171.776 191.142 171.776C192.509 171.776 193.613 172.25 194.454 173.196C195.301 174.142 195.725 175.401 195.725 176.972V177.092C195.725 178.069 195.536 178.948 195.159 179.727C194.788 180.5 194.253 181.103 193.554 181.536C192.861 181.969 192.063 182.186 191.16 182.186C189.8 182.186 188.696 181.712 187.848 180.766C187.007 179.82 186.587 178.567 186.587 177.009V176.888ZM188.312 177.092C188.312 178.206 188.569 179.099 189.082 179.773C189.602 180.448 190.294 180.785 191.16 180.785C192.032 180.785 192.725 180.444 193.238 179.764C193.752 179.078 194.008 178.119 194.008 176.888C194.008 175.787 193.746 174.897 193.22 174.216C192.7 173.53 192.008 173.187 191.142 173.187C190.294 173.187 189.611 173.524 189.091 174.198C188.572 174.872 188.312 175.837 188.312 177.092Z" fill="white"/>
<g clip-path="url(#clip0)">
<path d="M98.5 92.3713C94.7024 92.3713 91.613 95.4616 91.613 99.2584C91.613 103.055 94.7024 106.145 98.5 106.145C102.298 106.145 105.387 103.055 105.387 99.2584C105.387 95.4616 102.298 92.3713 98.5 92.3713ZM98.5 104.178C95.7875 104.178 93.5808 101.971 93.5808 99.2584C93.5808 96.5459 95.7875 94.3391 98.5 94.3391C101.213 94.3391 103.419 96.5459 103.419 99.2584C103.419 101.971 101.213 104.178 98.5 104.178Z" fill="#7B7B7B"/>
<path d="M77.8389 85.4841H71.9358V87.4518H77.8389V85.4841Z" fill="#7B7B7B"/>
<path d="M77.8389 89.4197H71.9358V91.3874H77.8389V89.4197Z" fill="#7B7B7B"/>
<path d="M125.064 85.4841H119.161V87.4518H125.064V85.4841Z" fill="#7B7B7B"/>
<path d="M125.064 89.4197H119.161V91.3874H125.064V89.4197Z" fill="#7B7B7B"/>
<path d="M123.096 63.2964H110.282C110.804 62.0548 111.12 60.7276 111.227 59.361H124.08C126.792 59.361 128.999 57.1542 128.999 54.4417C128.999 51.7292 126.792 49.5224 124.08 49.5224H107.709C107.593 49.4033 107.489 49.2774 107.369 49.1613C104.842 46.7282 101.513 45.462 98.0008 45.5958C94.6527 45.7247 91.592 47.2211 89.3615 49.5224H76.6767L69.5604 52.1906C68.6267 52.5399 68 53.445 68 54.4417C68 55.4383 68.6267 56.3435 69.5594 56.6927L76.6767 59.361H85.7675C85.8738 60.7315 86.1994 62.0548 86.7199 63.2964H73.9032V73.135H68V86.909H81.774V73.135H75.8709V65.2641H87.6772V65.1323C88.6689 66.7173 89.9892 68.1035 91.6126 69.1435V70.1834H89.6449V72.1511H91.6126V74.1189H89.6449V76.0866H91.6913C91.8399 77.1177 92.2118 78.0769 92.7657 78.9093L90.0316 77.0517L84.7059 82.3764L86.8635 85.5513C86.7405 85.8199 86.6274 86.0914 86.5251 86.362L82.7579 87.0792V94.6097L86.5251 95.3269C86.6274 95.5975 86.7405 95.869 86.8635 96.1376L84.7059 99.3125L90.0316 104.637L93.2065 102.481C93.476 102.605 93.7466 102.718 94.0162 102.82L94.7344 106.586H102.265L102.983 102.82C103.253 102.718 103.523 102.605 103.793 102.481L106.968 104.637L112.293 99.3125L110.136 96.1376C110.259 95.869 110.372 95.5975 110.474 95.3269L114.241 94.6097V87.0792L110.474 86.362C110.372 86.0914 110.259 85.8199 110.136 85.5513L112.293 82.3764L106.968 77.0517L104.234 78.9093C104.787 78.0779 105.158 77.1186 105.307 76.0876H107.354V74.1198H105.387V72.1521H107.354V70.1844H105.387V69.1435C107.006 68.1055 108.328 66.7153 109.322 65.1244V65.2641H121.128V73.135H115.225V86.909H128.999V73.135H123.096V63.2964ZM75.8709 56.9574L70.2501 54.85C70.0809 54.786 69.9677 54.6227 69.9677 54.4417C69.9677 54.2606 70.0809 54.0973 70.2511 54.0334L75.8709 51.9259V56.9574ZM79.8063 75.1027V84.9413H69.9677V75.1027H79.8063ZM115.225 57.3933H111.241C111.19 56.7242 111.088 56.068 110.937 55.4255H115.225V57.3933ZM121.128 51.4901H124.08C125.707 51.4901 127.032 52.8144 127.032 54.4417C127.032 56.069 125.707 57.3933 124.08 57.3933H121.128V51.4901ZM117.193 51.4901H119.161V57.3933H117.193V51.4901ZM115.225 51.4901V53.4578H110.311C110.026 52.7731 109.671 52.1178 109.268 51.4901H115.225ZM85.7626 57.3933H77.8386V55.4255H86.0745C85.9171 56.066 85.8157 56.7232 85.7626 57.3933ZM86.6933 53.5552V53.4578H77.8386V51.4901H87.7933C87.3663 52.1424 86.9973 52.8321 86.6933 53.5552ZM106.728 79.594L109.751 82.6164L107.86 85.3978L108.127 85.9163C108.399 86.4496 108.626 86.9897 108.798 87.523L108.977 88.0779L112.274 88.7065V92.9824L108.976 93.6111L108.797 94.166C108.625 94.6992 108.399 95.2394 108.126 95.7726L107.859 96.2911L109.75 99.0725L106.727 102.095L103.945 100.205L103.426 100.472C102.889 100.746 102.348 100.972 101.82 101.143L101.265 101.323L100.638 104.618H96.3617L95.733 101.322L95.1781 101.142C94.6498 100.971 94.1096 100.746 93.5725 100.471L93.053 100.204L90.2716 102.094L87.2482 99.0715L89.1392 96.2901L88.8726 95.7716C88.6 95.2384 88.3738 94.6982 88.2016 94.165L88.0225 93.6101L84.7256 92.9824V88.7065L88.0235 88.0779L88.2026 87.523C88.3747 86.9897 88.6 86.4496 88.8736 85.9163L89.1402 85.3978L87.2492 82.6164L90.2726 79.594L93.055 81.484L93.5744 81.2174C93.9099 81.0442 94.2503 80.8967 94.5898 80.7638C95.6996 81.5352 97.0465 81.9897 98.4996 81.9897C99.9528 81.9897 101.3 81.5352 102.411 80.7638C102.749 80.8967 103.088 81.0442 103.428 81.2174L103.946 81.484L106.728 79.594ZM103.419 72.1511V74.1189H93.5803V72.1511H103.419ZM95.5481 60.3448H93.5803C92.4951 60.3448 91.6126 59.4623 91.6126 58.3771C91.6126 57.2919 92.4951 56.4094 93.5803 56.4094C94.6655 56.4094 95.5481 57.2919 95.5481 58.3771V60.3448ZM97.5158 70.1834V62.3125H99.4835V70.1834H97.5158ZM103.32 76.0866C102.862 78.3288 100.875 80.022 98.4996 80.022C96.1246 80.022 94.1372 78.3288 93.6797 76.0866H103.32ZM103.91 67.7395L103.419 68.0239V70.1834H101.451V62.3125H103.419C105.589 62.3125 107.354 60.5475 107.354 58.3771C107.354 56.2067 105.589 54.4417 103.419 54.4417C101.249 54.4417 99.4835 56.2067 99.4835 58.3771V60.3448H97.5158V58.3771C97.5158 56.2067 95.7507 54.4417 93.5803 54.4417C91.4099 54.4417 89.6449 56.2067 89.6449 58.3771C89.6449 60.5475 91.4099 62.3125 93.5803 62.3125H95.5481V70.1834H93.5803V68.0239L93.0894 67.7395C89.6626 65.7541 87.5896 62.0695 87.6801 58.1233C87.809 52.5143 92.4715 47.777 98.0746 47.5635C98.2182 47.5566 98.3599 47.5547 98.5026 47.5547C101.318 47.5547 103.969 48.6202 106.005 50.579C108.143 52.6383 109.322 55.4078 109.322 58.3771C109.322 62.2181 107.248 65.8053 103.91 67.7395ZM101.451 60.3448V58.3771C101.451 57.2919 102.334 56.4094 103.419 56.4094C104.504 56.4094 105.387 57.2919 105.387 58.3771C105.387 59.4623 104.504 60.3448 103.419 60.3448H101.451ZM127.032 75.1027V84.9413H117.193V75.1027H127.032Z" fill="#7B7B7B"/>
</g>
<defs>
<filter id="filter0_d" x="16" y="0" width="172" height="168" filterUnits="userSpaceOnUse" color-interpolation-filters="sRGB">
<feFlood flood-opacity="0" result="BackgroundImageFix"/>
<feColorMatrix in="SourceAlpha" type="matrix" values="0 0 0 0 0 0 0 0 0 0 0 0 0 0 0 0 0 0 127 0"/>
<feOffset dx="3" dy="9"/>
<feGaussianBlur stdDeviation="4"/>
<feColorMatrix type="matrix" values="0 0 0 0 0 0 0 0 0 0 0 0 0 0 0 0 0 0 0.122 0"/>
<feBlend mode="normal" in2="BackgroundImageFix" result="effect1_dropShadow"/>
<feBlend mode="normal" in="SourceGraphic" in2="effect1_dropShadow" result="shape"/>
</filter>
<clipPath id="clip0">
<rect width="61" height="61" fill="white" transform="translate(68 54)"/>
</clipPath>
</defs>
</svg>
