<svg width="172" height="187" viewBox="0 0 172 187" fill="none" xmlns="http://www.w3.org/2000/svg">
<g filter="url(#filter0_d)">
<ellipse cx="83" cy="75.5" rx="78" ry="75.5" fill="white"/>
</g>
<path d="M13.5139 180.543H19.9153V182H11.7234V168.492H13.5139V180.543ZM23.7327 182H22.0164V171.962H23.7327V182ZM21.8772 169.299C21.8772 169.021 21.9607 168.786 22.1277 168.594C22.3009 168.403 22.5545 168.307 22.8885 168.307C23.2225 168.307 23.476 168.403 23.6492 168.594C23.8224 168.786 23.909 169.021 23.909 169.299C23.909 169.578 23.8224 169.81 23.6492 169.995C23.476 170.181 23.2225 170.273 22.8885 170.273C22.5545 170.273 22.3009 170.181 22.1277 169.995C21.9607 169.81 21.8772 169.578 21.8772 169.299ZM32.5228 179.337C32.5228 178.874 32.3465 178.515 31.994 178.261C31.6477 178.001 31.0384 177.779 30.1664 177.593C29.3005 177.408 28.6109 177.185 28.0975 176.925C27.5904 176.666 27.2131 176.356 26.9657 175.998C26.7245 175.639 26.6039 175.212 26.6039 174.717C26.6039 173.895 26.9502 173.199 27.6429 172.63C28.3418 172.061 29.2325 171.776 30.3148 171.776C31.4528 171.776 32.3744 172.07 33.0795 172.658C33.7907 173.245 34.1463 173.997 34.1463 174.912H32.4208C32.4208 174.442 32.2198 174.037 31.8177 173.697C31.4219 173.357 30.9209 173.187 30.3148 173.187C29.6901 173.187 29.2015 173.323 28.849 173.595C28.4964 173.867 28.3202 174.222 28.3202 174.662C28.3202 175.076 28.4841 175.388 28.8119 175.599C29.1397 175.809 29.7303 176.01 30.5838 176.202C31.4436 176.393 32.1394 176.622 32.6713 176.888C33.2032 177.154 33.5959 177.476 33.8495 177.853C34.1092 178.224 34.2391 178.679 34.2391 179.217C34.2391 180.114 33.8804 180.834 33.163 181.378C32.4455 181.917 31.5147 182.186 30.3705 182.186C29.5664 182.186 28.8552 182.043 28.2367 181.759C27.6182 181.474 27.1327 181.078 26.7801 180.571C26.4338 180.058 26.2606 179.504 26.2606 178.911H27.9769C28.0078 179.486 28.2367 179.944 28.6634 180.284C29.0964 180.618 29.6654 180.785 30.3705 180.785C31.0199 180.785 31.5394 180.655 31.9291 180.395C32.3249 180.129 32.5228 179.777 32.5228 179.337ZM38.9936 169.531V171.962H40.8676V173.289H38.9936V179.514C38.9936 179.916 39.0771 180.219 39.2441 180.423C39.4111 180.621 39.6956 180.72 40.0976 180.72C40.2955 180.72 40.5676 180.683 40.914 180.608V182C40.4625 182.124 40.0234 182.186 39.5966 182.186C38.8297 182.186 38.2514 181.954 37.8617 181.49C37.4721 181.026 37.2773 180.367 37.2773 179.514V173.289H35.4496V171.962H37.2773V169.531H38.9936ZM49.268 182C49.1691 181.802 49.0887 181.45 49.0268 180.942C48.229 181.771 47.2765 182.186 46.1694 182.186C45.1798 182.186 44.3665 181.907 43.7295 181.351C43.0986 180.788 42.7832 180.076 42.7832 179.217C42.7832 178.172 43.179 177.361 43.9707 176.786C44.7685 176.205 45.888 175.914 47.3291 175.914H48.999V175.125C48.999 174.526 48.8196 174.049 48.4609 173.697C48.1022 173.338 47.5734 173.159 46.8745 173.159C46.2622 173.159 45.7488 173.313 45.3345 173.623C44.9201 173.932 44.7129 174.306 44.7129 174.745H42.9873C42.9873 174.244 43.1636 173.762 43.5161 173.298C43.8748 172.828 44.3572 172.457 44.9634 172.185C45.5757 171.912 46.2467 171.776 46.9765 171.776C48.1331 171.776 49.0392 172.067 49.6948 172.648C50.3504 173.224 50.6906 174.018 50.7153 175.033V179.653C50.7153 180.574 50.8328 181.307 51.0679 181.852V182H49.268ZM46.4199 180.692C46.958 180.692 47.4682 180.553 47.9507 180.274C48.4331 179.996 48.7825 179.634 48.999 179.189V177.129H47.6538C45.5509 177.129 44.4995 177.745 44.4995 178.976C44.4995 179.514 44.6789 179.934 45.0376 180.237C45.3963 180.54 45.8571 180.692 46.4199 180.692ZM58.0812 176.897C58.0812 175.357 58.4461 174.12 59.1759 173.187C59.9057 172.246 60.8613 171.776 62.0426 171.776C63.2177 171.776 64.1485 172.178 64.8351 172.982V167.75H66.5514V182H64.9742L64.8907 180.924C64.2042 181.765 63.2486 182.186 62.024 182.186C60.8613 182.186 59.9119 181.709 59.1759 180.757C58.4461 179.804 58.0812 178.561 58.0812 177.027V176.897ZM59.7975 177.092C59.7975 178.23 60.0325 179.121 60.5025 179.764C60.9726 180.407 61.622 180.729 62.4508 180.729C63.5393 180.729 64.3341 180.24 64.8351 179.263V174.652C64.3217 173.706 63.5331 173.233 62.4693 173.233C61.6282 173.233 60.9726 173.558 60.5025 174.207C60.0325 174.856 59.7975 175.818 59.7975 177.092ZM73.5788 182.186C72.2181 182.186 71.111 181.74 70.2575 180.85C69.404 179.953 68.9772 178.756 68.9772 177.259V176.944C68.9772 175.948 69.1659 175.061 69.5431 174.281C69.9266 173.496 70.4585 172.883 71.1388 172.444C71.8254 171.999 72.5675 171.776 73.3654 171.776C74.6704 171.776 75.6847 172.206 76.4084 173.066C77.132 173.926 77.4938 175.156 77.4938 176.758V177.473H70.6935C70.7183 178.462 71.0059 179.263 71.5563 179.875C72.113 180.482 72.818 180.785 73.6715 180.785C74.2777 180.785 74.791 180.661 75.2116 180.414C75.6322 180.166 76.0002 179.838 76.3156 179.43L77.3639 180.247C76.5228 181.539 75.2611 182.186 73.5788 182.186ZM73.3654 173.187C72.6727 173.187 72.0913 173.44 71.6213 173.947C71.1512 174.448 70.8605 175.153 70.7492 176.062H75.7775V175.933C75.728 175.061 75.493 174.386 75.0724 173.91C74.6519 173.428 74.0828 173.187 73.3654 173.187ZM93.0608 177.092C93.0608 178.62 92.7114 179.851 92.0125 180.785C91.3136 181.719 90.3673 182.186 89.1736 182.186C87.9552 182.186 86.9965 181.799 86.2976 181.026V185.859H84.5813V171.962H86.1492L86.2327 173.075C86.9316 172.209 87.9026 171.776 89.1458 171.776C90.3518 171.776 91.3043 172.231 92.0032 173.14C92.7083 174.049 93.0608 175.314 93.0608 176.935V177.092ZM91.3445 176.897C91.3445 175.766 91.1033 174.872 90.6209 174.216C90.1385 173.561 89.4767 173.233 88.6355 173.233C87.5965 173.233 86.8172 173.694 86.2976 174.615V179.412C86.811 180.327 87.5965 180.785 88.6541 180.785C89.4767 180.785 90.1292 180.46 90.6116 179.811C91.1002 179.155 91.3445 178.184 91.3445 176.897ZM100.292 173.502C100.033 173.459 99.7511 173.437 99.4481 173.437C98.3224 173.437 97.5586 173.916 97.1566 174.875V182H95.4403V171.962H97.1102L97.138 173.122C97.7009 172.225 98.4987 171.776 99.5316 171.776C99.8656 171.776 100.119 171.82 100.292 171.906V173.502ZM101.429 176.888C101.429 175.905 101.62 175.02 102.004 174.235C102.393 173.449 102.932 172.843 103.618 172.417C104.311 171.99 105.099 171.776 105.984 171.776C107.351 171.776 108.455 172.25 109.296 173.196C110.143 174.142 110.567 175.401 110.567 176.972V177.092C110.567 178.069 110.378 178.948 110.001 179.727C109.63 180.5 109.095 181.103 108.396 181.536C107.703 181.969 106.905 182.186 106.002 182.186C104.642 182.186 103.538 181.712 102.69 180.766C101.849 179.82 101.429 178.567 101.429 177.009V176.888ZM103.154 177.092C103.154 178.206 103.411 179.099 103.924 179.773C104.444 180.448 105.136 180.785 106.002 180.785C106.874 180.785 107.567 180.444 108.08 179.764C108.594 179.078 108.85 178.119 108.85 176.888C108.85 175.787 108.588 174.897 108.062 174.216C107.542 173.53 106.85 173.187 105.984 173.187C105.136 173.187 104.453 173.524 103.933 174.198C103.414 174.872 103.154 175.837 103.154 177.092ZM114.681 171.962V183.16C114.681 185.089 113.806 186.054 112.056 186.054C111.678 186.054 111.329 185.999 111.007 185.887V184.514C111.205 184.564 111.465 184.588 111.787 184.588C112.17 184.588 112.461 184.483 112.659 184.273C112.863 184.069 112.965 183.71 112.965 183.197V171.962H114.681ZM112.789 169.299C112.789 169.027 112.872 168.795 113.039 168.604C113.212 168.406 113.463 168.307 113.79 168.307C114.124 168.307 114.378 168.403 114.551 168.594C114.724 168.786 114.811 169.021 114.811 169.299C114.811 169.578 114.724 169.81 114.551 169.995C114.378 170.181 114.124 170.273 113.79 170.273C113.457 170.273 113.206 170.181 113.039 169.995C112.872 169.81 112.789 169.578 112.789 169.299ZM121.811 182.186C120.45 182.186 119.343 181.74 118.489 180.85C117.636 179.953 117.209 178.756 117.209 177.259V176.944C117.209 175.948 117.398 175.061 117.775 174.281C118.158 173.496 118.69 172.883 119.371 172.444C120.057 171.999 120.799 171.776 121.597 171.776C122.902 171.776 123.917 172.206 124.64 173.066C125.364 173.926 125.726 175.156 125.726 176.758V177.473H118.925C118.95 178.462 119.238 179.263 119.788 179.875C120.345 180.482 121.05 180.785 121.903 180.785C122.509 180.785 123.023 180.661 123.443 180.414C123.864 180.166 124.232 179.838 124.547 179.43L125.596 180.247C124.755 181.539 123.493 182.186 121.811 182.186ZM121.597 173.187C120.904 173.187 120.323 173.44 119.853 173.947C119.383 174.448 119.092 175.153 118.981 176.062H124.009V175.933C123.96 175.061 123.725 174.386 123.304 173.91C122.884 173.428 122.315 173.187 121.597 173.187ZM130.239 169.531V171.962H132.113V173.289H130.239V179.514C130.239 179.916 130.322 180.219 130.489 180.423C130.656 180.621 130.941 180.72 131.343 180.72C131.541 180.72 131.813 180.683 132.159 180.608V182C131.708 182.124 131.269 182.186 130.842 182.186C130.075 182.186 129.497 181.954 129.107 181.49C128.717 181.026 128.523 180.367 128.523 179.514V173.289H126.695V171.962H128.523V169.531H130.239ZM133.676 176.888C133.676 175.905 133.868 175.02 134.251 174.235C134.641 173.449 135.179 172.843 135.865 172.417C136.558 171.99 137.347 171.776 138.231 171.776C139.598 171.776 140.702 172.25 141.543 173.196C142.39 174.142 142.814 175.401 142.814 176.972V177.092C142.814 178.069 142.625 178.948 142.248 179.727C141.877 180.5 141.342 181.103 140.643 181.536C139.95 181.969 139.153 182.186 138.25 182.186C136.889 182.186 135.785 181.712 134.938 180.766C134.096 179.82 133.676 178.567 133.676 177.009V176.888ZM135.402 177.092C135.402 178.206 135.658 179.099 136.172 179.773C136.691 180.448 137.384 180.785 138.25 180.785C139.122 180.785 139.814 180.444 140.328 179.764C140.841 179.078 141.098 178.119 141.098 176.888C141.098 175.787 140.835 174.897 140.309 174.216C139.79 173.53 139.097 173.187 138.231 173.187C137.384 173.187 136.7 173.524 136.181 174.198C135.661 174.872 135.402 175.837 135.402 177.092ZM151.001 179.337C151.001 178.874 150.825 178.515 150.472 178.261C150.126 178.001 149.517 177.779 148.645 177.593C147.779 177.408 147.089 177.185 146.576 176.925C146.069 176.666 145.691 176.356 145.444 175.998C145.203 175.639 145.082 175.212 145.082 174.717C145.082 173.895 145.429 173.199 146.121 172.63C146.82 172.061 147.711 171.776 148.793 171.776C149.931 171.776 150.853 172.07 151.558 172.658C152.269 173.245 152.625 173.997 152.625 174.912H150.899C150.899 174.442 150.698 174.037 150.296 173.697C149.9 173.357 149.399 173.187 148.793 173.187C148.168 173.187 147.68 173.323 147.327 173.595C146.975 173.867 146.799 174.222 146.799 174.662C146.799 175.076 146.962 175.388 147.29 175.599C147.618 175.809 148.209 176.01 149.062 176.202C149.922 176.393 150.618 176.622 151.15 176.888C151.681 177.154 152.074 177.476 152.328 177.853C152.588 178.224 152.717 178.679 152.717 179.217C152.717 180.114 152.359 180.834 151.641 181.378C150.924 181.917 149.993 182.186 148.849 182.186C148.045 182.186 147.334 182.043 146.715 181.759C146.097 181.474 145.611 181.078 145.258 180.571C144.912 180.058 144.739 179.504 144.739 178.911H146.455C146.486 179.486 146.715 179.944 147.142 180.284C147.575 180.618 148.144 180.785 148.849 180.785C149.498 180.785 150.018 180.655 150.407 180.395C150.803 180.129 151.001 179.777 151.001 179.337Z" fill="white"/>
<g clip-path="url(#clip0)">
<path d="M82.5 92.3713C78.7024 92.3713 75.613 95.4616 75.613 99.2584C75.613 103.055 78.7024 106.145 82.5 106.145C86.2977 106.145 89.387 103.055 89.387 99.2584C89.387 95.4616 86.2977 92.3713 82.5 92.3713ZM82.5 104.178C79.7875 104.178 77.5808 101.971 77.5808 99.2584C77.5808 96.5459 79.7875 94.3391 82.5 94.3391C85.2125 94.3391 87.4193 96.5459 87.4193 99.2584C87.4193 101.971 85.2125 104.178 82.5 104.178Z" fill="#7B7B7B"/>
<path d="M61.8389 85.4841H55.9358V87.4518H61.8389V85.4841Z" fill="#7B7B7B"/>
<path d="M61.8389 89.4197H55.9358V91.3874H61.8389V89.4197Z" fill="#7B7B7B"/>
<path d="M109.064 85.4841H103.161V87.4518H109.064V85.4841Z" fill="#7B7B7B"/>
<path d="M109.064 89.4197H103.161V91.3874H109.064V89.4197Z" fill="#7B7B7B"/>
<path d="M107.096 63.2964H94.2823C94.8038 62.0548 95.1196 60.7276 95.2268 59.361H108.08C110.792 59.361 112.999 57.1542 112.999 54.4417C112.999 51.7292 110.792 49.5224 108.08 49.5224H91.7085C91.5934 49.4033 91.4891 49.2774 91.3691 49.1613C88.8416 46.7282 85.5132 45.462 82.0008 45.5958C78.6527 45.7247 75.592 47.2211 73.3615 49.5224H60.6767L53.5604 52.1906C52.6267 52.5399 52 53.445 52 54.4417C52 55.4383 52.6267 56.3435 53.5594 56.6927L60.6767 59.361H69.7675C69.8738 60.7315 70.1994 62.0548 70.7199 63.2964H57.9032V73.135H52V86.909H65.774V73.135H59.8709V65.2641H71.6772V65.1323C72.6689 66.7173 73.9892 68.1035 75.6126 69.1435V70.1834H73.6449V72.1511H75.6126V74.1189H73.6449V76.0866H75.6913C75.8399 77.1177 76.2118 78.0769 76.7657 78.9093L74.0316 77.0517L68.7059 82.3764L70.8635 85.5513C70.7405 85.8199 70.6274 86.0914 70.5251 86.362L66.7579 87.0792V94.6097L70.5251 95.3269C70.6274 95.5975 70.7405 95.869 70.8635 96.1376L68.7059 99.3125L74.0316 104.637L77.2065 102.481C77.476 102.605 77.7466 102.718 78.0162 102.82L78.7344 106.586H86.2649L86.9831 102.82C87.2527 102.718 87.5232 102.605 87.7928 102.481L90.9677 104.637L96.2933 99.3125L94.1357 96.1376C94.2587 95.869 94.3719 95.5975 94.4742 95.3269L98.2414 94.6097V87.0792L94.4742 86.362C94.3719 86.0914 94.2587 85.8199 94.1357 85.5513L96.2933 82.3764L90.9677 77.0517L88.2336 78.9093C88.7875 78.0779 89.1584 77.1186 89.307 76.0876H91.3544V74.1198H89.3866V72.1521H91.3544V70.1844H89.3866V69.1435C91.0061 68.1055 92.3284 66.7153 93.3221 65.1244V65.2641H105.128V73.135H99.2252V86.909H112.999V73.135H107.096V63.2964ZM59.8709 56.9574L54.2501 54.85C54.0809 54.786 53.9677 54.6227 53.9677 54.4417C53.9677 54.2606 54.0809 54.0973 54.2511 54.0334L59.8709 51.9259V56.9574ZM63.8063 75.1027V84.9413H53.9677V75.1027H63.8063ZM99.2252 57.3933H95.2406C95.1904 56.7242 95.0881 56.068 94.9366 55.4255H99.2252V57.3933ZM105.128 51.4901H108.08C109.707 51.4901 111.032 52.8144 111.032 54.4417C111.032 56.069 109.707 57.3933 108.08 57.3933H105.128V51.4901ZM101.193 51.4901H103.161V57.3933H101.193V51.4901ZM99.2252 51.4901V53.4578H94.3109C94.0255 52.7731 93.6713 52.1178 93.268 51.4901H99.2252ZM69.7626 57.3933H61.8386V55.4255H70.0745C69.9171 56.066 69.8157 56.7232 69.7626 57.3933ZM70.6933 53.5552V53.4578H61.8386V51.4901H71.7933C71.3663 52.1424 70.9973 52.8321 70.6933 53.5552ZM90.7276 79.594L93.751 82.6164L91.8601 85.3978L92.1267 85.9163C92.3992 86.4496 92.6255 86.9897 92.7977 87.523L92.9767 88.0779L96.2737 88.7065V92.9824L92.9758 93.6111L92.7967 94.166C92.6245 94.6992 92.3992 95.2394 92.1257 95.7726L91.8591 96.2911L93.7501 99.0725L90.7267 102.095L87.9453 100.205L87.4258 100.472C86.8886 100.746 86.3485 100.972 85.8202 101.143L85.2653 101.323L84.6376 104.618H80.3617L79.733 101.322L79.1781 101.142C78.6498 100.971 78.1096 100.746 77.5725 100.471L77.053 100.204L74.2716 102.094L71.2482 99.0715L73.1392 96.2901L72.8726 95.7716C72.6 95.2384 72.3738 94.6982 72.2016 94.165L72.0225 93.6101L68.7256 92.9824V88.7065L72.0235 88.0779L72.2026 87.523C72.3747 86.9897 72.6 86.4496 72.8736 85.9163L73.1402 85.3978L71.2492 82.6164L74.2726 79.594L77.055 81.484L77.5744 81.2174C77.9099 81.0442 78.2503 80.8967 78.5898 80.7638C79.6996 81.5352 81.0465 81.9897 82.4996 81.9897C83.9528 81.9897 85.2997 81.5352 86.4115 80.7638C86.7489 80.8967 87.0883 81.0442 87.4278 81.2174L87.9463 81.484L90.7276 79.594ZM87.4189 72.1511V74.1189H77.5803V72.1511H87.4189ZM79.5481 60.3448H77.5803C76.4951 60.3448 75.6126 59.4623 75.6126 58.3771C75.6126 57.2919 76.4951 56.4094 77.5803 56.4094C78.6655 56.4094 79.5481 57.2919 79.5481 58.3771V60.3448ZM81.5158 70.1834V62.3125H83.4835V70.1834H81.5158ZM87.3196 76.0866C86.8621 78.3288 84.8747 80.022 82.4996 80.022C80.1246 80.022 78.1372 78.3288 77.6797 76.0866H87.3196ZM87.9099 67.7395L87.4189 68.0239V70.1834H85.4512V62.3125H87.4189C89.5893 62.3125 91.3544 60.5475 91.3544 58.3771C91.3544 56.2067 89.5893 54.4417 87.4189 54.4417C85.2485 54.4417 83.4835 56.2067 83.4835 58.3771V60.3448H81.5158V58.3771C81.5158 56.2067 79.7507 54.4417 77.5803 54.4417C75.4099 54.4417 73.6449 56.2067 73.6449 58.3771C73.6449 60.5475 75.4099 62.3125 77.5803 62.3125H79.5481V70.1834H77.5803V68.0239L77.0894 67.7395C73.6626 65.7541 71.5896 62.0695 71.6801 58.1233C71.809 52.5143 76.4715 47.777 82.0746 47.5635C82.2182 47.5566 82.3599 47.5547 82.5026 47.5547C85.3184 47.5547 87.9689 48.6202 90.0045 50.579C92.1434 52.6383 93.3221 55.4078 93.3221 58.3771C93.3221 62.2181 91.2481 65.8053 87.9099 67.7395ZM85.4512 60.3448V58.3771C85.4512 57.2919 86.3337 56.4094 87.4189 56.4094C88.5041 56.4094 89.3866 57.2919 89.3866 58.3771C89.3866 59.4623 88.5041 60.3448 87.4189 60.3448H85.4512ZM111.032 75.1027V84.9413H101.193V75.1027H111.032Z" fill="#7B7B7B"/>
</g>
<defs>
<filter id="filter0_d" x="0" y="0" width="172" height="168" filterUnits="userSpaceOnUse" color-interpolation-filters="sRGB">
<feFlood flood-opacity="0" result="BackgroundImageFix"/>
<feColorMatrix in="SourceAlpha" type="matrix" values="0 0 0 0 0 0 0 0 0 0 0 0 0 0 0 0 0 0 127 0"/>
<feOffset dx="3" dy="9"/>
<feGaussianBlur stdDeviation="4"/>
<feColorMatrix type="matrix" values="0 0 0 0 0 0 0 0 0 0 0 0 0 0 0 0 0 0 0.122 0"/>
<feBlend mode="normal" in2="BackgroundImageFix" result="effect1_dropShadow"/>
<feBlend mode="normal" in="SourceGraphic" in2="effect1_dropShadow" result="shape"/>
</filter>
<clipPath id="clip0">
<rect width="61" height="61" fill="white" transform="translate(52 54)"/>
</clipPath>
</defs>
</svg>
