<svg width="172" height="176" viewBox="0 0 172 176" fill="none" xmlns="http://www.w3.org/2000/svg">
<g filter="url(#filter0_d)">
<ellipse cx="83" cy="75.5" rx="78" ry="75.5" fill="white"/>
</g>
<path d="M27.9747 168.714C27.8077 170.143 27.2789 171.247 26.3883 172.026C25.5038 172.799 24.3256 173.186 22.8536 173.186C21.2579 173.186 19.9776 172.613 19.0128 171.469C18.0541 170.325 17.5748 168.794 17.5748 166.877V165.578C17.5748 164.323 17.7974 163.219 18.2428 162.266C18.6942 161.314 19.3313 160.584 20.1539 160.077C20.9765 159.563 21.9289 159.307 23.0113 159.307C24.4462 159.307 25.5966 159.709 26.4625 160.513C27.3284 161.311 27.8324 162.418 27.9747 163.834H26.1842C26.0295 162.758 25.6925 161.979 25.1729 161.496C24.6596 161.014 23.939 160.772 23.0113 160.772C21.8733 160.772 20.9796 161.193 20.3302 162.034C19.6869 162.875 19.3653 164.072 19.3653 165.625V166.933C19.3653 168.398 19.6715 169.564 20.2838 170.43C20.8961 171.296 21.7527 171.729 22.8536 171.729C23.8432 171.729 24.6008 171.506 25.1265 171.061C25.6584 170.61 26.011 169.827 26.1842 168.714H27.9747ZM36.5328 173C36.4339 172.802 36.3535 172.45 36.2916 171.942C35.4938 172.771 34.5413 173.186 33.4342 173.186C32.4446 173.186 31.6313 172.907 30.9943 172.351C30.3634 171.788 30.048 171.076 30.048 170.217C30.048 169.172 30.4438 168.361 31.2355 167.786C32.0333 167.205 33.1528 166.914 34.5939 166.914H36.2638V166.125C36.2638 165.526 36.0844 165.049 35.7257 164.697C35.367 164.338 34.8382 164.159 34.1393 164.159C33.527 164.159 33.0136 164.313 32.5993 164.623C32.1849 164.932 31.9777 165.306 31.9777 165.745H30.2521C30.2521 165.244 30.4284 164.762 30.7809 164.298C31.1396 163.828 31.622 163.457 32.2282 163.185C32.8405 162.912 33.5115 162.776 34.2413 162.776C35.3979 162.776 36.304 163.067 36.9596 163.648C37.6152 164.224 37.9554 165.018 37.9801 166.033V170.653C37.9801 171.574 38.0976 172.307 38.3327 172.852V173H36.5328ZM33.6847 171.692C34.2228 171.692 34.733 171.553 35.2155 171.274C35.6979 170.996 36.0473 170.634 36.2638 170.189V168.129H34.9186C32.8157 168.129 31.7643 168.745 31.7643 169.976C31.7643 170.514 31.9437 170.934 32.3024 171.237C32.6611 171.54 33.1219 171.692 33.6847 171.692ZM40.4431 167.897C40.4431 166.357 40.808 165.12 41.5378 164.187C42.2676 163.246 43.2232 162.776 44.4045 162.776C45.5796 162.776 46.5104 163.178 47.197 163.982V158.75H48.9133V173H47.3361L47.2526 171.924C46.5661 172.765 45.6105 173.186 44.3859 173.186C43.2232 173.186 42.2738 172.709 41.5378 171.757C40.808 170.804 40.4431 169.561 40.4431 168.027V167.897ZM42.1594 168.092C42.1594 169.23 42.3944 170.121 42.8645 170.764C43.3345 171.407 43.9839 171.729 44.8127 171.729C45.9012 171.729 46.696 171.24 47.197 170.263V165.652C46.6836 164.706 45.895 164.233 44.8312 164.233C43.9901 164.233 43.3345 164.558 42.8645 165.207C42.3944 165.856 42.1594 166.818 42.1594 168.092ZM57.9724 173C57.8735 172.802 57.7931 172.45 57.7312 171.942C56.9334 172.771 55.9809 173.186 54.8738 173.186C53.8842 173.186 53.0709 172.907 52.4338 172.351C51.803 171.788 51.4876 171.076 51.4876 170.217C51.4876 169.172 51.8834 168.361 52.6751 167.786C53.4729 167.205 54.5924 166.914 56.0335 166.914H57.7034V166.125C57.7034 165.526 57.524 165.049 57.1653 164.697C56.8066 164.338 56.2778 164.159 55.5789 164.159C54.9666 164.159 54.4532 164.313 54.0388 164.623C53.6244 164.932 53.4172 165.306 53.4172 165.745H51.6917C51.6917 165.244 51.8679 164.762 52.2205 164.298C52.5792 163.828 53.0616 163.457 53.6677 163.185C54.28 162.912 54.9511 162.776 55.6809 162.776C56.8375 162.776 57.7436 163.067 58.3992 163.648C59.0548 164.224 59.3949 165.018 59.4197 166.033V170.653C59.4197 171.574 59.5372 172.307 59.7722 172.852V173H57.9724ZM55.1243 171.692C55.6624 171.692 56.1726 171.553 56.655 171.274C57.1375 170.996 57.4869 170.634 57.7034 170.189V168.129H56.3582C54.2553 168.129 53.2039 168.745 53.2039 169.976C53.2039 170.514 53.3832 170.934 53.742 171.237C54.1007 171.54 54.5614 171.692 55.1243 171.692ZM68.1448 170.337C68.1448 169.874 67.9686 169.515 67.616 169.261C67.2697 169.001 66.6605 168.779 65.7884 168.593C64.9225 168.408 64.2329 168.185 63.7195 167.925C63.2124 167.666 62.8351 167.356 62.5877 166.998C62.3465 166.639 62.2259 166.212 62.2259 165.717C62.2259 164.895 62.5722 164.199 63.265 163.63C63.9639 163.061 64.8545 162.776 65.9368 162.776C67.0749 162.776 67.9964 163.07 68.7015 163.658C69.4127 164.245 69.7684 164.997 69.7684 165.912H68.0428C68.0428 165.442 67.8418 165.037 67.4398 164.697C67.0439 164.357 66.543 164.187 65.9368 164.187C65.3122 164.187 64.8236 164.323 64.471 164.595C64.1185 164.867 63.9422 165.222 63.9422 165.662C63.9422 166.076 64.1061 166.388 64.4339 166.599C64.7617 166.809 65.3524 167.01 66.2059 167.202C67.0656 167.393 67.7614 167.622 68.2933 167.888C68.8252 168.154 69.2179 168.476 69.4715 168.853C69.7313 169.224 69.8611 169.679 69.8611 170.217C69.8611 171.114 69.5024 171.834 68.785 172.378C68.0675 172.917 67.1367 173.186 65.9925 173.186C65.1885 173.186 64.4772 173.043 63.8587 172.759C63.2402 172.474 62.7547 172.078 62.4022 171.571C62.0558 171.058 61.8826 170.504 61.8826 169.911H63.5989C63.6299 170.486 63.8587 170.944 64.2855 171.284C64.7184 171.618 65.2874 171.785 65.9925 171.785C66.6419 171.785 67.1614 171.655 67.5511 171.395C67.9469 171.129 68.1448 170.777 68.1448 170.337ZM74.6156 160.531V162.962H76.4896V164.289H74.6156V170.514C74.6156 170.916 74.6991 171.219 74.8661 171.423C75.0331 171.621 75.3176 171.72 75.7196 171.72C75.9175 171.72 76.1897 171.683 76.536 171.608V173C76.0845 173.124 75.6454 173.186 75.2186 173.186C74.4517 173.186 73.8734 172.954 73.4838 172.49C73.0941 172.026 72.8993 171.367 72.8993 170.514V164.289H71.0717V162.962H72.8993V160.531H74.6156ZM83.5449 164.502C83.2851 164.459 83.0037 164.437 82.7006 164.437C81.575 164.437 80.8111 164.916 80.4091 165.875V173H78.6928V162.962H80.3627L80.3906 164.122C80.9534 163.225 81.7512 162.776 82.7841 162.776C83.1181 162.776 83.3717 162.82 83.5449 162.906V164.502ZM91.1475 173C91.0485 172.802 90.9681 172.45 90.9062 171.942C90.1084 172.771 89.1559 173.186 88.0488 173.186C87.0592 173.186 86.2459 172.907 85.6089 172.351C84.978 171.788 84.6626 171.076 84.6626 170.217C84.6626 169.172 85.0584 168.361 85.8501 167.786C86.6479 167.205 87.7674 166.914 89.2085 166.914H90.8784V166.125C90.8784 165.526 90.6991 165.049 90.3403 164.697C89.9816 164.338 89.4528 164.159 88.7539 164.159C88.1416 164.159 87.6283 164.313 87.2139 164.623C86.7995 164.932 86.5923 165.306 86.5923 165.745H84.8667C84.8667 165.244 85.043 164.762 85.3955 164.298C85.7542 163.828 86.2367 163.457 86.8428 163.185C87.4551 162.912 88.1261 162.776 88.856 162.776C90.0125 162.776 90.9186 163.067 91.5742 163.648C92.2298 164.224 92.57 165.018 92.5947 166.033V170.653C92.5947 171.574 92.7122 172.307 92.9473 172.852V173H91.1475ZM88.2993 171.692C88.8374 171.692 89.3477 171.553 89.8301 171.274C90.3125 170.996 90.6619 170.634 90.8784 170.189V168.129H89.5332C87.4303 168.129 86.3789 168.745 86.3789 169.976C86.3789 170.514 86.5583 170.934 86.917 171.237C87.2757 171.54 87.7365 171.692 88.2993 171.692ZM100.327 164.502C100.067 164.459 99.786 164.437 99.483 164.437C98.3573 164.437 97.5935 164.916 97.1915 165.875V173H95.4752V162.962H97.1451L97.1729 164.122C97.7357 163.225 98.5336 162.776 99.5665 162.776C99.9004 162.776 100.154 162.82 100.327 162.906V164.502ZM108.63 162.962L108.686 164.224C109.453 163.259 110.455 162.776 111.692 162.776C113.813 162.776 114.883 163.973 114.902 166.367V173H113.185V166.357C113.179 165.634 113.012 165.099 112.684 164.752C112.363 164.406 111.859 164.233 111.172 164.233C110.615 164.233 110.127 164.381 109.706 164.678C109.286 164.975 108.958 165.365 108.723 165.847V173H107.007V162.962H108.63ZM117.225 167.888C117.225 166.905 117.417 166.02 117.801 165.235C118.19 164.449 118.728 163.843 119.415 163.417C120.107 162.99 120.896 162.776 121.781 162.776C123.147 162.776 124.251 163.25 125.093 164.196C125.94 165.142 126.364 166.401 126.364 167.972V168.092C126.364 169.069 126.175 169.948 125.798 170.727C125.426 171.5 124.892 172.103 124.193 172.536C123.5 172.969 122.702 173.186 121.799 173.186C120.438 173.186 119.334 172.712 118.487 171.766C117.646 170.82 117.225 169.567 117.225 168.009V167.888ZM118.951 168.092C118.951 169.206 119.208 170.099 119.721 170.773C120.24 171.448 120.933 171.785 121.799 171.785C122.671 171.785 123.364 171.444 123.877 170.764C124.391 170.078 124.647 169.119 124.647 167.888C124.647 166.787 124.384 165.897 123.859 165.216C123.339 164.53 122.646 164.187 121.781 164.187C120.933 164.187 120.25 164.524 119.73 165.198C119.211 165.872 118.951 166.837 118.951 168.092ZM131.869 170.671L134.356 162.962H136.109L132.51 173H131.201L127.565 162.962H129.318L131.869 170.671ZM137.348 167.888C137.348 166.905 137.539 166.02 137.923 165.235C138.312 164.449 138.85 163.843 139.537 163.417C140.23 162.99 141.018 162.776 141.903 162.776C143.27 162.776 144.374 163.25 145.215 164.196C146.062 165.142 146.486 166.401 146.486 167.972V168.092C146.486 169.069 146.297 169.948 145.92 170.727C145.549 171.5 145.014 172.103 144.315 172.536C143.622 172.969 142.824 173.186 141.921 173.186C140.561 173.186 139.457 172.712 138.609 171.766C137.768 170.82 137.348 169.567 137.348 168.009V167.888ZM139.073 168.092C139.073 169.206 139.33 170.099 139.843 170.773C140.363 171.448 141.055 171.785 141.921 171.785C142.793 171.785 143.486 171.444 143.999 170.764C144.513 170.078 144.769 169.119 144.769 167.888C144.769 166.787 144.507 165.897 143.981 165.216C143.461 164.53 142.769 164.187 141.903 164.187C141.055 164.187 140.372 164.524 139.852 165.198C139.333 165.872 139.073 166.837 139.073 168.092Z" fill="white"/>
<g clip-path="url(#clip0)">
<path d="M94.0631 63.9978H98.5736C99.157 63.9978 99.6304 63.5189 99.6304 62.9286C99.6304 62.3376 99.157 61.8594 98.5736 61.8594H94.0631C93.479 61.8594 93.0063 62.3376 93.0063 62.9286C93.0063 63.5189 93.479 63.9978 94.0631 63.9978Z" fill="#7B7B7B"/>
<path d="M74.1991 63.9978H90.019C90.6031 63.9978 91.0757 63.5189 91.0757 62.9286C91.0757 62.3376 90.6031 61.8594 90.019 61.8594H74.1991C73.6157 61.8594 73.1423 62.3376 73.1423 62.9286C73.1423 63.5189 73.6157 63.9978 74.1991 63.9978Z" fill="#7B7B7B"/>
<path d="M63.3468 63.9978H70.0748C70.6582 63.9978 71.1315 63.5189 71.1315 62.9286C71.1315 62.3376 70.6582 61.8594 70.0748 61.8594H63.3468C62.7627 61.8594 62.29 62.3376 62.29 62.9286C62.29 63.5189 62.7627 63.9978 63.3468 63.9978Z" fill="#7B7B7B"/>
<path d="M87.508 71.2795H68.7704C68.1863 71.2795 67.7136 71.7585 67.7136 72.3487C67.7136 72.939 68.1863 73.4179 68.7704 73.4179H87.508C88.0915 73.4179 88.5648 72.939 88.5648 72.3487C88.5648 71.7585 88.0915 71.2795 87.508 71.2795Z" fill="#7B7B7B"/>
<path d="M63.3468 73.4179H65.3083C65.8917 73.4179 66.3651 72.939 66.3651 72.3487C66.3651 71.7585 65.8917 71.2795 65.3083 71.2795H63.3468C62.7627 71.2795 62.29 71.7585 62.29 72.3487C62.29 72.939 62.7627 73.4179 63.3468 73.4179Z" fill="#7B7B7B"/>
<path d="M63.3468 83.4257H75.8973C76.4814 83.4257 76.9541 82.9468 76.9541 82.3566C76.9541 81.7663 76.4814 81.2874 75.8973 81.2874H63.3468C62.7627 81.2874 62.29 81.7663 62.29 82.3566C62.29 82.9468 62.7627 83.4257 63.3468 83.4257Z" fill="#7B7B7B"/>
<path d="M68.4201 90.5363H63.3468C62.7627 90.5363 62.29 91.0152 62.29 91.6055C62.29 92.1964 62.7627 92.6747 63.3468 92.6747H68.4201C69.0035 92.6747 69.4769 92.1964 69.4769 91.6055C69.4769 91.0152 69.0035 90.5363 68.4201 90.5363Z" fill="#7B7B7B"/>
<path d="M124.59 56.6846C123.22 54.581 120.425 53.9956 118.343 55.3766L117.196 56.1395H117.193L115.172 57.4851V41.7569C115.169 39.2377 113.151 37.1961 110.661 37.1933H87.5244C86.3183 34.6316 83.7645 33 80.9602 33C78.1552 33 75.6014 34.6316 74.3953 37.1933H51.2586C48.7687 37.1961 46.7508 39.2377 46.748 41.7569V114.438C46.7522 116.957 48.7694 118.997 51.2586 119H110.661C113.15 118.997 115.168 116.957 115.172 114.438V70.6719L124.324 64.5873C126.403 63.2014 126.982 60.3746 125.617 58.2675L124.59 56.6846ZM85.3599 87.9308L84.1105 86.0061L119.882 62.2255L121.132 64.1502L85.3599 87.9308ZM105.048 97.1993H99.4887C96.9988 97.2021 94.9809 99.243 94.9782 101.762V107.239H57.5414C57.1719 107.238 56.8726 106.935 56.872 106.561V49.6332C56.8726 49.2587 57.1719 48.9559 57.5414 48.9545H62.29V51.8899C62.29 52.4802 62.7626 52.9591 63.3467 52.9591H98.5737C99.1571 52.9591 99.6304 52.4802 99.6304 51.8899V48.9545H104.378C104.748 48.9552 105.048 49.2587 105.048 49.6332V64.2149L79.6564 81.0952C79.6399 81.1063 79.6248 81.1182 79.609 81.1307C79.5993 81.1377 79.5897 81.1446 79.5801 81.1523C79.5477 81.178 79.5168 81.2059 79.4872 81.2351L79.4858 81.2365C79.4576 81.2657 79.4308 81.2971 79.406 81.3298C79.3998 81.3374 79.3943 81.3451 79.3881 81.3527C79.3682 81.3799 79.3496 81.4084 79.3324 81.4377C79.3289 81.4425 79.3255 81.4467 79.3221 81.4523L74.5212 89.8228L73.0943 90.7709C72.6065 91.0953 72.471 91.758 72.7916 92.2515C73.1122 92.745 73.7672 92.8821 74.2549 92.5578L75.6819 91.6097L85.1804 90.4737C85.1859 90.4737 85.1914 90.4716 85.1969 90.4709C85.2141 90.4681 85.2306 90.4646 85.2478 90.4611C85.2788 90.4556 85.309 90.4493 85.3386 90.4409C85.3565 90.4361 85.3744 90.4298 85.3916 90.4228C85.4205 90.4131 85.4487 90.4027 85.4762 90.3908C85.4934 90.3832 85.5113 90.3748 85.5278 90.3665C85.5546 90.3525 85.5808 90.3379 85.6062 90.3219C85.6166 90.3156 85.6269 90.3115 85.6372 90.3038L105.048 77.401V97.1993ZM103.597 99.3377L97.0917 105.919V101.762C97.0931 100.424 98.1657 99.3391 99.4887 99.3377H103.597ZM83.2347 88.5524L77.2856 89.2645L80.2928 84.0216L81.7638 86.2874L83.2347 88.5524ZM82.9499 84.2193L81.7005 82.2946L114.704 60.3544L114.707 60.353L117.472 58.5146L118.722 60.4393L82.9499 84.2193ZM110.661 39.3317C111.984 39.3331 113.056 40.4176 113.058 41.7569V58.8898L107.162 62.8102V49.6332C107.16 48.0781 105.915 46.8182 104.378 46.8161H99.6304V43.5041C99.6304 42.9131 99.1571 42.4349 98.5737 42.4349H88.233V40.3591C88.2323 40.0152 88.2083 39.6721 88.1608 39.3317H110.661ZM80.9602 35.1391C83.8085 35.1419 86.1174 37.478 86.1202 40.3605V43.5041C86.1202 44.0943 86.5935 44.5733 87.1769 44.5733H97.5176V50.8207H64.4035V44.5733H74.7434C75.3268 44.5733 75.8002 44.0943 75.8002 43.5041V40.3591C75.8036 37.4773 78.1119 35.1426 80.9602 35.1391ZM113.058 114.438C113.055 115.776 111.983 116.86 110.661 116.862H51.2586C49.9362 116.86 48.8643 115.776 48.8616 114.438V41.7569C48.863 40.4183 49.9355 39.3331 51.2586 39.3317H73.7589C73.7114 39.6721 73.6873 40.0152 73.6867 40.3591V42.4349H63.3467C62.7626 42.4349 62.29 42.9131 62.29 43.5041V46.8161H57.5414C56.0051 46.8188 54.7605 48.0781 54.7584 49.6332V106.562C54.7605 108.115 56.0051 109.375 57.5414 109.377H95.3662C95.5066 109.376 95.6462 109.366 95.7845 109.346C95.8664 109.366 95.9503 109.377 96.0349 109.377C96.3404 109.377 96.6307 109.243 96.8303 109.011C97.1062 108.862 97.358 108.674 97.5788 108.45L106.246 99.683C106.834 99.0906 107.163 98.2845 107.161 97.4443V75.9956L113.057 72.0752L113.058 114.438ZM123.163 62.8005L122.898 62.9766L119.238 57.341L119.504 57.1649C120.61 56.4291 122.096 56.7403 122.823 57.8596L123.85 59.4418C124.575 60.5611 124.268 62.0633 123.163 62.7998V62.8005Z" fill="#7B7B7B"/>
</g>
<defs>
<filter id="filter0_d" x="0" y="0" width="172" height="168" filterUnits="userSpaceOnUse" color-interpolation-filters="sRGB">
<feFlood flood-opacity="0" result="BackgroundImageFix"/>
<feColorMatrix in="SourceAlpha" type="matrix" values="0 0 0 0 0 0 0 0 0 0 0 0 0 0 0 0 0 0 127 0"/>
<feOffset dx="3" dy="9"/>
<feGaussianBlur stdDeviation="4"/>
<feColorMatrix type="matrix" values="0 0 0 0 0 0 0 0 0 0 0 0 0 0 0 0 0 0 0.122 0"/>
<feBlend mode="normal" in2="BackgroundImageFix" result="effect1_dropShadow"/>
<feBlend mode="normal" in="SourceGraphic" in2="effect1_dropShadow" result="shape"/>
</filter>
<clipPath id="clip0">
<rect width="85" height="86" fill="white" transform="translate(44 33)"/>
</clipPath>
</defs>
</svg>
