<svg width="172" height="185" viewBox="0 0 172 185" fill="none" xmlns="http://www.w3.org/2000/svg">
<g filter="url(#filter0_d)">
<ellipse cx="83" cy="75.5" rx="78" ry="75.5" fill="white"/>
</g>
<path d="M24.6812 180.543H31.0826V182H22.8907V168.492H24.6812V180.543ZM34.9 182H33.1837V171.962H34.9V182ZM33.0446 169.299C33.0446 169.021 33.1281 168.786 33.2951 168.594C33.4682 168.403 33.7218 168.307 34.0558 168.307C34.3898 168.307 34.6434 168.403 34.8165 168.594C34.9897 168.786 35.0763 169.021 35.0763 169.299C35.0763 169.578 34.9897 169.81 34.8165 169.995C34.6434 170.181 34.3898 170.273 34.0558 170.273C33.7218 170.273 33.4682 170.181 33.2951 169.995C33.1281 169.81 33.0446 169.578 33.0446 169.299ZM43.6901 179.337C43.6901 178.874 43.5139 178.515 43.1613 178.261C42.815 178.001 42.2058 177.779 41.3337 177.593C40.4678 177.408 39.7782 177.185 39.2648 176.925C38.7577 176.666 38.3804 176.356 38.133 175.998C37.8918 175.639 37.7712 175.212 37.7712 174.717C37.7712 173.895 38.1175 173.199 38.8103 172.63C39.5091 172.061 40.3998 171.776 41.4821 171.776C42.6201 171.776 43.5417 172.07 44.2468 172.658C44.958 173.245 45.3137 173.997 45.3137 174.912H43.5881C43.5881 174.442 43.3871 174.037 42.9851 173.697C42.5892 173.357 42.0882 173.187 41.4821 173.187C40.8575 173.187 40.3688 173.323 40.0163 173.595C39.6638 173.867 39.4875 174.222 39.4875 174.662C39.4875 175.076 39.6514 175.388 39.9792 175.599C40.307 175.809 40.8977 176.01 41.7512 176.202C42.6109 176.393 43.3067 176.622 43.8386 176.888C44.3705 177.154 44.7632 177.476 45.0168 177.853C45.2766 178.224 45.4064 178.679 45.4064 179.217C45.4064 180.114 45.0477 180.834 44.3303 181.378C43.6128 181.917 42.682 182.186 41.5378 182.186C40.7338 182.186 40.0225 182.043 39.404 181.759C38.7855 181.474 38.3 181.078 37.9475 180.571C37.6011 180.058 37.4279 179.504 37.4279 178.911H39.1442C39.1752 179.486 39.404 179.944 39.8308 180.284C40.2637 180.618 40.8327 180.785 41.5378 180.785C42.1872 180.785 42.7067 180.655 43.0964 180.395C43.4922 180.129 43.6901 179.777 43.6901 179.337ZM50.1609 169.531V171.962H52.0349V173.289H50.1609V179.514C50.1609 179.916 50.2444 180.219 50.4114 180.423C50.5784 180.621 50.8629 180.72 51.2649 180.72C51.4628 180.72 51.735 180.683 52.0813 180.608V182C51.6298 182.124 51.1907 182.186 50.7639 182.186C49.997 182.186 49.4187 181.954 49.0291 181.49C48.6394 181.026 48.4446 180.367 48.4446 179.514V173.289H46.617V171.962H48.4446V169.531H50.1609ZM60.4354 182C60.3364 181.802 60.256 181.45 60.1942 180.942C59.3963 181.771 58.4438 182.186 57.3367 182.186C56.3472 182.186 55.5338 181.907 54.8968 181.351C54.2659 180.788 53.9505 180.076 53.9505 179.217C53.9505 178.172 54.3463 177.361 55.138 176.786C55.9359 176.205 57.0553 175.914 58.4964 175.914H60.1663V175.125C60.1663 174.526 59.987 174.049 59.6282 173.697C59.2695 173.338 58.7407 173.159 58.0418 173.159C57.4295 173.159 56.9162 173.313 56.5018 173.623C56.0874 173.932 55.8802 174.306 55.8802 174.745H54.1546C54.1546 174.244 54.3309 173.762 54.6834 173.298C55.0421 172.828 55.5246 172.457 56.1307 172.185C56.743 171.912 57.414 171.776 58.1439 171.776C59.3004 171.776 60.2065 172.067 60.8621 172.648C61.5177 173.224 61.8579 174.018 61.8826 175.033V179.653C61.8826 180.574 62.0001 181.307 62.2352 181.852V182H60.4354ZM57.5872 180.692C58.1253 180.692 58.6356 180.553 59.118 180.274C59.6004 179.996 59.9499 179.634 60.1663 179.189V177.129H58.8211C56.7182 177.129 55.6668 177.745 55.6668 178.976C55.6668 179.514 55.8462 179.934 56.2049 180.237C56.5636 180.54 57.0244 180.692 57.5872 180.692ZM75.8632 181.007C75.1953 181.793 74.2149 182.186 72.9223 182.186C71.8523 182.186 71.0359 181.876 70.4731 181.258C69.9164 180.633 69.635 179.712 69.6288 178.493V171.962H71.3452V178.447C71.3452 179.968 71.9636 180.729 73.2006 180.729C74.5118 180.729 75.3839 180.24 75.8168 179.263V171.962H77.5331V182H75.9003L75.8632 181.007ZM86.1841 179.337C86.1841 178.874 86.0078 178.515 85.6553 178.261C85.3089 178.001 84.6997 177.779 83.8276 177.593C82.9618 177.408 82.2721 177.185 81.7588 176.925C81.2516 176.666 80.8743 176.356 80.627 175.998C80.3857 175.639 80.2651 175.212 80.2651 174.717C80.2651 173.895 80.6115 173.199 81.3042 172.63C82.0031 172.061 82.8937 171.776 83.9761 171.776C85.1141 171.776 86.0356 172.07 86.7407 172.658C87.452 173.245 87.8076 173.997 87.8076 174.912H86.082C86.082 174.442 85.881 174.037 85.479 173.697C85.0832 173.357 84.5822 173.187 83.9761 173.187C83.3514 173.187 82.8628 173.323 82.5103 173.595C82.1577 173.867 81.9814 174.222 81.9814 174.662C81.9814 175.076 82.1453 175.388 82.4731 175.599C82.8009 175.809 83.3916 176.01 84.2451 176.202C85.1048 176.393 85.8006 176.622 86.3325 176.888C86.8644 177.154 87.2572 177.476 87.5107 177.853C87.7705 178.224 87.9004 178.679 87.9004 179.217C87.9004 180.114 87.5417 180.834 86.8242 181.378C86.1068 181.917 85.1759 182.186 84.0317 182.186C83.2277 182.186 82.5164 182.043 81.8979 181.759C81.2795 181.474 80.7939 181.078 80.4414 180.571C80.0951 180.058 79.9219 179.504 79.9219 178.911H81.6382C81.6691 179.486 81.8979 179.944 82.3247 180.284C82.7576 180.618 83.3267 180.785 84.0317 180.785C84.6812 180.785 85.2007 180.655 85.5903 180.395C85.9862 180.129 86.1841 179.777 86.1841 179.337ZM96.5235 181.007C95.8555 181.793 94.8752 182.186 93.5826 182.186C92.5126 182.186 91.6962 181.876 91.1334 181.258C90.5767 180.633 90.2953 179.712 90.2891 178.493V171.962H92.0054V178.447C92.0054 179.968 92.6239 180.729 93.8609 180.729C95.1721 180.729 96.0442 180.24 96.4771 179.263V171.962H98.1934V182H96.5606L96.5235 181.007ZM107.197 182C107.098 181.802 107.018 181.45 106.956 180.942C106.158 181.771 105.205 182.186 104.098 182.186C103.109 182.186 102.295 181.907 101.658 181.351C101.027 180.788 100.712 180.076 100.712 179.217C100.712 178.172 101.108 177.361 101.9 176.786C102.697 176.205 103.817 175.914 105.258 175.914H106.928V175.125C106.928 174.526 106.748 174.049 106.39 173.697C106.031 173.338 105.502 173.159 104.803 173.159C104.191 173.159 103.678 173.313 103.263 173.623C102.849 173.932 102.642 174.306 102.642 174.745H100.916C100.916 174.244 101.092 173.762 101.445 173.298C101.804 172.828 102.286 172.457 102.892 172.185C103.505 171.912 104.176 171.776 104.905 171.776C106.062 171.776 106.968 172.067 107.624 172.648C108.279 173.224 108.619 174.018 108.644 175.033V179.653C108.644 180.574 108.762 181.307 108.997 181.852V182H107.197ZM104.349 180.692C104.887 180.692 105.397 180.553 105.88 180.274C106.362 179.996 106.711 179.634 106.928 179.189V177.129H105.583C103.48 177.129 102.428 177.745 102.428 178.976C102.428 179.514 102.608 179.934 102.966 180.237C103.325 180.54 103.786 180.692 104.349 180.692ZM105.935 167.75H108.013L105.527 170.478H104.145L105.935 167.75ZM116.377 173.502C116.117 173.459 115.835 173.437 115.532 173.437C114.407 173.437 113.643 173.916 113.241 174.875V182H111.525V171.962H113.195L113.222 173.122C113.785 172.225 114.583 171.776 115.616 171.776C115.95 171.776 116.203 171.82 116.377 171.906V173.502ZM120.018 182H118.301V171.962H120.018V182ZM118.162 169.299C118.162 169.021 118.246 168.786 118.413 168.594C118.586 168.403 118.84 168.307 119.174 168.307C119.508 168.307 119.761 168.403 119.934 168.594C120.107 168.786 120.194 169.021 120.194 169.299C120.194 169.578 120.107 169.81 119.934 169.995C119.761 170.181 119.508 170.273 119.174 170.273C118.84 170.273 118.586 170.181 118.413 169.995C118.246 169.81 118.162 169.578 118.162 169.299ZM122.509 176.888C122.509 175.905 122.7 175.02 123.084 174.235C123.473 173.449 124.012 172.843 124.698 172.417C125.391 171.99 126.179 171.776 127.064 171.776C128.431 171.776 129.535 172.25 130.376 173.196C131.223 174.142 131.647 175.401 131.647 176.972V177.092C131.647 178.069 131.458 178.948 131.081 179.727C130.71 180.5 130.175 181.103 129.476 181.536C128.783 181.969 127.985 182.186 127.082 182.186C125.722 182.186 124.618 181.712 123.77 180.766C122.929 179.82 122.509 178.567 122.509 177.009V176.888ZM124.234 177.092C124.234 178.206 124.491 179.099 125.004 179.773C125.524 180.448 126.216 180.785 127.082 180.785C127.954 180.785 128.647 180.444 129.16 179.764C129.674 179.078 129.93 178.119 129.93 176.888C129.93 175.787 129.668 174.897 129.142 174.216C128.622 173.53 127.93 173.187 127.064 173.187C126.216 173.187 125.533 173.524 125.013 174.198C124.494 174.872 124.234 175.837 124.234 177.092ZM139.834 179.337C139.834 178.874 139.658 178.515 139.305 178.261C138.959 178.001 138.349 177.779 137.477 177.593C136.612 177.408 135.922 177.185 135.409 176.925C134.901 176.666 134.524 176.356 134.277 175.998C134.036 175.639 133.915 175.212 133.915 174.717C133.915 173.895 134.261 173.199 134.954 172.63C135.653 172.061 136.543 171.776 137.626 171.776C138.764 171.776 139.685 172.07 140.39 172.658C141.102 173.245 141.457 173.997 141.457 174.912H139.732C139.732 174.442 139.531 174.037 139.129 173.697C138.733 173.357 138.232 173.187 137.626 173.187C137.001 173.187 136.513 173.323 136.16 173.595C135.807 173.867 135.631 174.222 135.631 174.662C135.631 175.076 135.795 175.388 136.123 175.599C136.451 175.809 137.041 176.01 137.895 176.202C138.755 176.393 139.45 176.622 139.982 176.888C140.514 177.154 140.907 177.476 141.161 177.853C141.42 178.224 141.55 178.679 141.55 179.217C141.55 180.114 141.191 180.834 140.474 181.378C139.757 181.917 138.826 182.186 137.682 182.186C136.877 182.186 136.166 182.043 135.548 181.759C134.929 181.474 134.444 181.078 134.091 180.571C133.745 180.058 133.572 179.504 133.572 178.911H135.288C135.319 179.486 135.548 179.944 135.974 180.284C136.407 180.618 136.976 180.785 137.682 180.785C138.331 180.785 138.85 180.655 139.24 180.395C139.636 180.129 139.834 179.777 139.834 179.337Z" fill="white"/>
<path d="M108.014 90.889L98.461 86.113C97.56 85.662 97 84.756 97 83.748V80.367C97.229 80.087 97.47 79.768 97.719 79.416C98.958 77.666 99.951 75.718 100.673 73.617C102.084 72.97 103 71.575 103 70V66C103 65.037 102.64 64.104 102 63.375V58.056C102.056 57.506 102.276 54.232 99.908 51.531C97.854 49.188 94.521 48 90 48C85.479 48 82.146 49.188 80.092 51.53C78.657 53.167 78.174 55.011 78.028 56.335C76.314 55.449 74.294 55 72 55C61.611 55 61.006 63.855 61 64V68.579C60.352 69.285 60 70.1 60 70.909V74.363C60 75.442 60.483 76.448 61.311 77.128C62.136 80.238 64.165 82.588 64.955 83.413V86.156C64.955 86.943 64.527 87.665 63.784 88.071L57.131 92.244C54.583 93.634 53 96.301 53 99.203V103H67H69H113V98.957C113 95.519 111.089 92.427 108.014 90.889ZM67 98.762V101H55V99.203C55 97.033 56.184 95.039 58.141 93.97L64.793 89.797C66.126 89.07 66.954 87.676 66.954 86.156V82.565L66.636 82.268C66.61 82.244 63.953 79.734 63.168 76.313L63.077 75.917L62.735 75.697C62.275 75.399 62 74.9 62 74.363V70.909C62 70.549 62.245 70.121 62.671 69.735L63 69.438L62.998 64.058C63.016 63.771 63.537 57 72 57C74.393 57 76.408 57.553 78 58.644V63.375C77.36 64.104 77 65.037 77 66V70C77 70.304 77.035 70.603 77.101 70.893C77.128 71.009 77.182 71.115 77.219 71.227C77.274 71.395 77.318 71.568 77.395 71.727C77.396 71.729 77.397 71.73 77.398 71.732C77.654 72.26 78.027 72.732 78.497 73.109C78.502 73.128 78.508 73.145 78.513 73.163C78.573 73.392 78.636 73.62 78.704 73.843L78.785 74.104C78.799 74.15 78.816 74.197 78.831 74.243C78.866 74.351 78.9 74.458 78.936 74.564C78.996 74.739 79.059 74.92 79.132 75.117C79.163 75.199 79.197 75.273 79.229 75.354C79.311 75.563 79.393 75.765 79.479 75.965C79.5 76.013 79.518 76.065 79.539 76.112L79.595 76.238C79.621 76.296 79.648 76.348 79.674 76.405C79.772 76.619 79.868 76.826 79.968 77.026C79.984 77.058 79.999 77.093 80.015 77.125C80.078 77.25 80.141 77.368 80.204 77.488C80.312 77.694 80.418 77.888 80.524 78.076C80.576 78.168 80.627 78.258 80.678 78.345C80.822 78.591 80.959 78.817 81.092 79.027C81.121 79.072 81.149 79.119 81.177 79.162C81.419 79.537 81.629 79.841 81.803 80.078C81.849 80.141 81.889 80.195 81.928 80.248C81.95 80.277 81.98 80.319 81.999 80.345V83.654C81.999 84.622 81.471 85.51 80.622 85.974L77.976 87.417L77.515 87.376L77.327 87.771L71.701 90.84C68.801 92.424 67 95.458 67 98.762ZM111 101H69V98.762C69 96.191 70.402 93.828 72.659 92.598L81.58 87.732C83.073 86.917 84 85.354 84 83.655V79.637V79.636L83.806 79.404L83.768 79.359C83.766 79.356 83.704 79.281 83.603 79.149C83.597 79.141 83.591 79.133 83.584 79.125C83.531 79.056 83.469 78.973 83.398 78.874C83.397 78.872 83.396 78.871 83.395 78.869C83.246 78.662 83.059 78.393 82.851 78.069C82.846 78.062 82.842 78.054 82.837 78.047C82.739 77.894 82.635 77.727 82.529 77.55C82.521 77.537 82.513 77.524 82.505 77.51C82.279 77.131 82.039 76.702 81.8 76.227C81.8 76.227 81.799 76.226 81.799 76.225C81.672 75.97 81.545 75.702 81.421 75.423C81.404 75.384 81.386 75.346 81.369 75.307C81.314 75.182 81.259 75.051 81.203 74.916C81.183 74.867 81.163 74.816 81.143 74.766C81.091 74.635 81.038 74.503 80.982 74.352C80.88 74.08 80.784 73.796 80.692 73.503L80.637 73.325C80.631 73.305 80.624 73.285 80.618 73.264C80.524 72.948 80.434 72.625 80.358 72.293L80.267 71.897L79.926 71.677C79.346 71.303 79 70.676 79 70V66C79 65.439 79.238 64.916 79.67 64.525L80 64.228V58V57.646L79.973 57.625C79.939 56.903 79.982 54.69 81.596 52.849C83.253 50.958 86.081 50 90 50C93.905 50 96.727 50.951 98.386 52.828C100.333 55.029 100.011 57.845 100.009 57.869L100 64.228L100.33 64.526C100.762 64.916 101 65.439 101 66V70C101 70.873 100.428 71.637 99.578 71.899L99.08 72.052L98.92 72.547C98.251 74.628 97.298 76.55 96.086 78.26C95.789 78.681 95.5 79.054 95.249 79.339L95 79.623V83.748C95 85.518 95.983 87.109 97.566 87.901L107.119 92.677C109.513 93.874 111 96.28 111 98.957V101Z" fill="#7B7B7B"/>
<defs>
<filter id="filter0_d" x="0" y="0" width="172" height="168" filterUnits="userSpaceOnUse" color-interpolation-filters="sRGB">
<feFlood flood-opacity="0" result="BackgroundImageFix"/>
<feColorMatrix in="SourceAlpha" type="matrix" values="0 0 0 0 0 0 0 0 0 0 0 0 0 0 0 0 0 0 127 0"/>
<feOffset dx="3" dy="9"/>
<feGaussianBlur stdDeviation="4"/>
<feColorMatrix type="matrix" values="0 0 0 0 0 0 0 0 0 0 0 0 0 0 0 0 0 0 0.122 0"/>
<feBlend mode="normal" in2="BackgroundImageFix" result="effect1_dropShadow"/>
<feBlend mode="normal" in="SourceGraphic" in2="effect1_dropShadow" result="shape"/>
</filter>
</defs>
</svg>
