<svg width="62" height="62" viewBox="0 0 62 62" fill="none" xmlns="http://www.w3.org/2000/svg">
<g clip-path="url(#clip0)">
<path d="M52.9203 9.07967C47.0653 3.22459 39.2803 0 31 0C22.7197 0 14.9347 3.22459 9.07967 9.07967C3.22459 14.9347 0 22.7197 0 31C0 39.2803 3.22459 47.0653 9.07967 52.9203C14.9347 58.7754 22.7197 62 31 62C39.2803 62 47.0653 58.7754 52.9203 52.9203C58.7754 47.0653 62 39.2803 62 31C62 22.7197 58.7754 14.9347 52.9203 9.07967ZM31 58.3672C15.9096 58.3672 3.63281 46.0904 3.63281 31C3.63281 15.9096 15.9096 3.63281 31 3.63281C46.0904 3.63281 58.3672 15.9096 58.3672 31C58.3672 46.0904 46.0904 58.3672 31 58.3672Z" fill="white"/>
<path d="M31 14.5312C21.9189 14.5312 14.5312 21.9189 14.5312 31C14.5312 40.0811 21.9189 47.4688 31 47.4688C40.0811 47.4688 47.4688 40.0811 47.4688 31C47.4688 21.9189 40.0811 14.5312 31 14.5312ZM31 43.8359C23.9222 43.8359 18.1641 38.0778 18.1641 31C18.1641 23.9222 23.9222 18.1641 31 18.1641C38.0778 18.1641 43.8359 23.9222 43.8359 31C43.8359 38.0778 38.0778 43.8359 31 43.8359Z" fill="white"/>
<path d="M29.1836 7.26562H32.8164V10.8984H29.1836V7.26562Z" fill="white"/>
<path d="M31 21.7969C25.9254 21.7969 21.7969 25.9254 21.7969 31C21.7969 36.0746 25.9254 40.2031 31 40.2031C36.0746 40.2031 40.2031 36.0746 40.2031 31C40.2031 25.9254 36.0746 21.7969 31 21.7969ZM31 36.5703C27.9287 36.5703 25.4297 34.0713 25.4297 31C25.4297 27.9287 27.9287 25.4297 31 25.4297C34.0713 25.4297 36.5703 27.9287 36.5703 31C36.5703 34.0713 34.0713 36.5703 31 36.5703Z" fill="white"/>
</g>
<defs>
<clipPath id="clip0">
<rect width="62" height="62" fill="white"/>
</clipPath>
</defs>
</svg>
