<svg width="53" height="53" viewBox="0 0 53 53" fill="none" xmlns="http://www.w3.org/2000/svg">
<g filter="url(#filter0_d)">
<circle cx="26.5" cy="22.5" r="22.5" fill="white"/>
</g>
<path d="M26.5 22.1035C25.1688 22.1035 24.0862 23.1861 24.0862 24.5173V28.138C24.0862 29.4692 25.1688 30.5518 26.5 30.5518C27.8312 30.5518 28.9138 29.4692 28.9138 28.138V24.5173C28.9138 23.1861 27.8312 22.1035 26.5 22.1035ZM27.7069 28.138C27.7069 28.8036 27.1656 29.3449 26.5 29.3449C25.8344 29.3449 25.2931 28.8036 25.2931 28.138V24.5173C25.2931 23.8517 25.8344 23.3104 26.5 23.3104C27.1656 23.3104 27.7069 23.8517 27.7069 24.5173V28.138Z" fill="#7B7B7B"/>
<path d="M33.1379 16.8619V10.1672C33.1379 6.76681 30.1599 4 26.5 4C22.8401 4 19.8621 6.76681 19.8621 10.1672C19.8621 10.5009 20.1318 10.7707 20.4655 10.7707C20.7992 10.7707 21.069 10.5009 21.069 10.1672C21.069 7.43241 23.5051 5.2069 26.5 5.2069C29.4949 5.2069 31.931 7.43241 31.931 10.1672V16.1643C31.8176 16.107 31.7017 16.0563 31.5871 16.0026C31.3499 15.8916 31.1091 15.7878 30.8641 15.6918C30.7066 15.6303 30.5485 15.5723 30.3892 15.5174C30.2323 15.4637 30.0766 15.41 29.9173 15.3629C29.6536 15.2845 29.3869 15.2175 29.1184 15.1572C29.0019 15.1312 28.8848 15.1065 28.7672 15.0835C28.4515 15.0226 28.1341 14.9731 27.8143 14.9375C27.7419 14.9297 27.6695 14.9248 27.5971 14.9182C27.232 14.8838 26.8669 14.8621 26.5 14.8621C19.8452 14.8621 14.431 20.2762 14.431 26.931C14.431 33.5859 19.8452 39 26.5 39C33.1548 39 38.569 33.5859 38.569 26.931C38.569 22.7274 36.4062 19.0234 33.1379 16.8619ZM26.5 37.7931C20.5108 37.7931 15.6379 32.9203 15.6379 26.931C15.6379 20.9418 20.5108 16.069 26.5 16.069C26.8259 16.069 27.1469 16.0895 27.4661 16.1178C27.5693 16.1275 27.6719 16.1384 27.7751 16.1504C28.0026 16.177 28.2271 16.2132 28.4497 16.2536C28.6042 16.282 28.7581 16.3128 28.9114 16.3478C29.1214 16.3954 29.3296 16.4485 29.5347 16.5083C29.7019 16.5572 29.8672 16.6127 30.032 16.67C30.14 16.7074 30.2462 16.7472 30.3524 16.7877C30.951 17.017 31.5309 17.2988 32.0861 17.6331C35.2409 19.5358 37.3621 22.9863 37.3621 26.931C37.3621 32.9203 32.4892 37.7931 26.5 37.7931Z" fill="#7B7B7B"/>
<defs>
<filter id="filter0_d" x="0" y="0" width="53" height="53" filterUnits="userSpaceOnUse" color-interpolation-filters="sRGB">
<feFlood flood-opacity="0" result="BackgroundImageFix"/>
<feColorMatrix in="SourceAlpha" type="matrix" values="0 0 0 0 0 0 0 0 0 0 0 0 0 0 0 0 0 0 127 0"/>
<feOffset dy="4"/>
<feGaussianBlur stdDeviation="2"/>
<feColorMatrix type="matrix" values="0 0 0 0 0 0 0 0 0 0 0 0 0 0 0 0 0 0 0.25 0"/>
<feBlend mode="normal" in2="BackgroundImageFix" result="effect1_dropShadow"/>
<feBlend mode="normal" in="SourceGraphic" in2="effect1_dropShadow" result="shape"/>
</filter>
</defs>
</svg>
