<svg width="172" height="185" viewBox="0 0 172 185" fill="none" xmlns="http://www.w3.org/2000/svg">
<g filter="url(#filter0_d)">
<ellipse cx="83" cy="75.5" rx="78" ry="75.5" fill="white"/>
</g>
<path d="M59.7828 177.714C59.6158 179.143 59.087 180.247 58.1963 181.026C57.3119 181.799 56.1337 182.186 54.6617 182.186C53.066 182.186 51.7857 181.613 50.8208 180.469C49.8622 179.325 49.3829 177.794 49.3829 175.877V174.578C49.3829 173.323 49.6055 172.219 50.0508 171.266C50.5023 170.314 51.1394 169.584 51.962 169.077C52.7845 168.563 53.737 168.307 54.8194 168.307C56.2543 168.307 57.4047 168.709 58.2705 169.513C59.1364 170.311 59.6405 171.418 59.7828 172.834H57.9922C57.8376 171.758 57.5005 170.979 56.981 170.496C56.4676 170.014 55.7471 169.772 54.8194 169.772C53.6814 169.772 52.7876 170.193 52.1382 171.034C51.495 171.875 51.1734 173.072 51.1734 174.625V175.933C51.1734 177.398 51.4795 178.564 52.0918 179.43C52.7041 180.296 53.5607 180.729 54.6617 180.729C55.6512 180.729 56.4089 180.506 56.9346 180.061C57.4665 179.61 57.819 178.827 57.9922 177.714H59.7828ZM61.6891 176.888C61.6891 175.905 61.8808 175.02 62.2643 174.235C62.6539 173.449 63.192 172.843 63.8785 172.417C64.5712 171.99 65.3598 171.776 66.2442 171.776C67.6111 171.776 68.7151 172.25 69.5562 173.196C70.4036 174.142 70.8272 175.401 70.8272 176.972V177.092C70.8272 178.069 70.6386 178.948 70.2613 179.727C69.8902 180.5 69.3552 181.103 68.6563 181.536C67.9636 181.969 67.1658 182.186 66.2628 182.186C64.9021 182.186 63.7981 181.712 62.9508 180.766C62.1096 179.82 61.6891 178.567 61.6891 177.009V176.888ZM63.4146 177.092C63.4146 178.206 63.6713 179.099 64.1847 179.773C64.7042 180.448 65.3969 180.785 66.2628 180.785C67.1349 180.785 67.8276 180.444 68.3409 179.764C68.8543 179.078 69.1109 178.119 69.1109 176.888C69.1109 175.787 68.8481 174.897 68.3224 174.216C67.8028 173.53 67.1101 173.187 66.2442 173.187C65.3969 173.187 64.7135 173.524 64.1939 174.198C63.6744 174.872 63.4146 175.837 63.4146 177.092ZM74.7931 171.962L74.8488 173.224C75.6157 172.259 76.6177 171.776 77.8546 171.776C79.9761 171.776 81.0461 172.973 81.0646 175.367V182H79.3483V175.357C79.3421 174.634 79.1751 174.099 78.8473 173.752C78.5257 173.406 78.0216 173.233 77.3351 173.233C76.7785 173.233 76.2899 173.381 75.8693 173.678C75.4487 173.975 75.1209 174.365 74.8859 174.847V182H73.1696V171.962H74.7931ZM86.1716 169.531V171.962H88.0456V173.289H86.1716V179.514C86.1716 179.916 86.2551 180.219 86.4221 180.423C86.5891 180.621 86.8736 180.72 87.2756 180.72C87.4735 180.72 87.7457 180.683 88.092 180.608V182C87.6405 182.124 87.2014 182.186 86.7746 182.186C86.0077 182.186 85.4294 181.954 85.0398 181.49C84.6501 181.026 84.4553 180.367 84.4553 179.514V173.289H82.6277V171.962H84.4553V169.531H86.1716ZM96.4461 182C96.3471 181.802 96.2667 181.45 96.2049 180.942C95.407 181.771 94.4545 182.186 93.3474 182.186C92.3579 182.186 91.5445 181.907 90.9075 181.351C90.2766 180.788 89.9612 180.076 89.9612 179.217C89.9612 178.172 90.357 177.361 91.1487 176.786C91.9466 176.205 93.066 175.914 94.5071 175.914H96.177V175.125C96.177 174.526 95.9977 174.049 95.6389 173.697C95.2802 173.338 94.7514 173.159 94.0525 173.159C93.4402 173.159 92.9269 173.313 92.5125 173.623C92.0981 173.932 91.8909 174.306 91.8909 174.745H90.1653C90.1653 174.244 90.3416 173.762 90.6941 173.298C91.0528 172.828 91.5353 172.457 92.1414 172.185C92.7537 171.912 93.4248 171.776 94.1546 171.776C95.3111 171.776 96.2172 172.067 96.8728 172.648C97.5284 173.224 97.8686 174.018 97.8933 175.033V179.653C97.8933 180.574 98.0109 181.307 98.2459 181.852V182H96.4461ZM93.5979 180.692C94.136 180.692 94.6463 180.553 95.1287 180.274C95.6111 179.996 95.9606 179.634 96.177 179.189V177.129H94.8318C92.7289 177.129 91.6775 177.745 91.6775 178.976C91.6775 179.514 91.8569 179.934 92.2156 180.237C92.5743 180.54 93.0351 180.692 93.5979 180.692ZM103.102 169.531V171.962H104.976V173.289H103.102V179.514C103.102 179.916 103.186 180.219 103.353 180.423C103.52 180.621 103.804 180.72 104.206 180.72C104.404 180.72 104.676 180.683 105.023 180.608V182C104.571 182.124 104.132 182.186 103.705 182.186C102.938 182.186 102.36 181.954 101.971 181.49C101.581 181.026 101.386 180.367 101.386 179.514V173.289H99.5584V171.962H101.386V169.531H103.102ZM106.539 176.888C106.539 175.905 106.731 175.02 107.115 174.235C107.504 173.449 108.042 172.843 108.729 172.417C109.422 171.99 110.21 171.776 111.095 171.776C112.461 171.776 113.565 172.25 114.407 173.196C115.254 174.142 115.678 175.401 115.678 176.972V177.092C115.678 178.069 115.489 178.948 115.112 179.727C114.741 180.5 114.206 181.103 113.507 181.536C112.814 181.969 112.016 182.186 111.113 182.186C109.753 182.186 108.649 181.712 107.801 180.766C106.96 179.82 106.539 178.567 106.539 177.009V176.888ZM108.265 177.092C108.265 178.206 108.522 179.099 109.035 179.773C109.555 180.448 110.247 180.785 111.113 180.785C111.985 180.785 112.678 180.444 113.191 179.764C113.705 179.078 113.961 178.119 113.961 176.888C113.961 175.787 113.698 174.897 113.173 174.216C112.653 173.53 111.961 173.187 111.095 173.187C110.247 173.187 109.564 173.524 109.044 174.198C108.525 174.872 108.265 175.837 108.265 177.092Z" fill="white"/>
<g clip-path="url(#clip0)">
<path d="M106.74 85.928L100.649 80.2095C98.9694 78.6331 96.2367 78.6331 94.5574 80.2095L91.7886 82.8088C90.5163 84.0032 88.446 84.0028 87.1742 82.8093L75.173 71.5332C73.8978 70.3361 73.8976 68.3984 75.173 67.201C75.619 66.7824 76.8996 65.5802 77.9418 64.6018C79.6139 63.0322 79.6372 60.4748 77.9402 58.8819L71.8504 53.1829C70.171 51.6064 67.4384 51.6064 65.7635 53.1788C64.5102 54.3451 64.1059 54.7214 63.5439 55.2444C57.4878 60.9296 57.4878 70.1802 63.5437 75.8652L82.5591 93.7258C88.6294 99.4245 98.4543 99.425 104.525 93.7258L106.74 91.6464C108.42 90.0698 108.42 87.5046 106.74 85.928ZM67.7895 55.089C68.3493 54.5635 69.26 54.5634 69.8216 55.0904L75.9114 60.7894C76.4725 61.3162 76.4725 62.1687 75.9114 62.6956L74.8961 63.6486L66.7795 56.029L67.7895 55.089ZM84.59 91.82L65.5744 73.9592C60.8889 69.5606 60.6314 62.6539 64.7823 57.9664L72.8754 65.564C70.7489 67.8271 70.8375 71.2756 73.1421 73.4391L85.1429 84.7146C85.143 84.7147 85.1432 84.7149 85.1433 84.7149C87.4455 86.8762 91.1187 86.9648 93.5323 84.9658L101.626 92.5635C96.6483 96.4536 89.3077 96.2488 84.59 91.82ZM104.71 89.7403L103.695 90.6934L95.5727 83.0687L96.5878 82.1157C97.1477 81.5902 98.0585 81.5901 98.6183 82.1157L104.71 87.8341C105.27 88.3597 105.27 89.2149 104.71 89.7403Z" fill="#7B7B7B"/>
</g>
<defs>
<filter id="filter0_d" x="0" y="0" width="172" height="168" filterUnits="userSpaceOnUse" color-interpolation-filters="sRGB">
<feFlood flood-opacity="0" result="BackgroundImageFix"/>
<feColorMatrix in="SourceAlpha" type="matrix" values="0 0 0 0 0 0 0 0 0 0 0 0 0 0 0 0 0 0 127 0"/>
<feOffset dx="3" dy="9"/>
<feGaussianBlur stdDeviation="4"/>
<feColorMatrix type="matrix" values="0 0 0 0 0 0 0 0 0 0 0 0 0 0 0 0 0 0 0.122 0"/>
<feBlend mode="normal" in2="BackgroundImageFix" result="effect1_dropShadow"/>
<feBlend mode="normal" in="SourceGraphic" in2="effect1_dropShadow" result="shape"/>
</filter>
<clipPath id="clip0">
<rect width="49" height="46" fill="white" transform="translate(59 52)"/>
</clipPath>
</defs>
</svg>
