<svg width="172" height="185" viewBox="0 0 172 185" fill="none" xmlns="http://www.w3.org/2000/svg">
<g filter="url(#filter0_d)">
<ellipse cx="83" cy="75.5" rx="78" ry="75.5" fill="white"/>
</g>
<path d="M63.6187 176.712V182H61.8375V168.492H66.8194C68.2976 168.492 69.4542 168.869 70.2892 169.624C71.1303 170.379 71.5509 171.377 71.5509 172.621C71.5509 173.932 71.1396 174.943 70.317 175.654C69.5006 176.359 68.3285 176.712 66.8009 176.712H63.6187ZM63.6187 175.255H66.8194C67.7719 175.255 68.5017 175.033 69.0089 174.587C69.516 174.136 69.7696 173.486 69.7696 172.639C69.7696 171.835 69.516 171.192 69.0089 170.709C68.5017 170.227 67.8059 169.977 66.9215 169.958H63.6187V175.255ZM77.7804 182.186C76.4198 182.186 75.3127 181.74 74.4591 180.85C73.6056 179.953 73.1789 178.756 73.1789 177.259V176.944C73.1789 175.948 73.3675 175.061 73.7448 174.281C74.1282 173.496 74.6601 172.883 75.3405 172.444C76.027 171.999 76.7692 171.776 77.567 171.776C78.8721 171.776 79.8864 172.206 80.61 173.066C81.3337 173.926 81.6955 175.156 81.6955 176.758V177.473H74.8952C74.9199 178.462 75.2075 179.263 75.758 179.875C76.3146 180.482 77.0197 180.785 77.8732 180.785C78.4793 180.785 78.9927 180.661 79.4132 180.414C79.8338 180.166 80.2018 179.838 80.5172 179.43L81.5656 180.247C80.7244 181.539 79.4627 182.186 77.7804 182.186ZM77.567 173.187C76.8743 173.187 76.293 173.44 75.8229 173.947C75.3529 174.448 75.0622 175.153 74.9508 176.062H79.9792V175.933C79.9297 175.061 79.6947 174.386 79.2741 173.91C78.8535 173.428 78.2845 173.187 77.567 173.187ZM88.7321 173.502C88.4724 173.459 88.191 173.437 87.8879 173.437C86.7623 173.437 85.9984 173.916 85.5964 174.875V182H83.8801V171.962H85.55L85.5779 173.122C86.1407 172.225 86.9385 171.776 87.9714 171.776C88.3054 171.776 88.559 171.82 88.7321 171.906V173.502ZM91.0838 182V173.289H89.4973V171.962H91.0838V171.108C91.0838 169.989 91.4023 169.117 92.0393 168.492C92.6826 167.868 93.5887 167.555 94.7576 167.555C95.4503 167.555 96.3255 167.744 97.3831 168.121L97.0955 169.568C96.3224 169.259 95.5864 169.104 94.8875 169.104C94.1515 169.104 93.6196 169.271 93.2918 169.605C92.9702 169.933 92.8094 170.428 92.8094 171.09V171.962H94.8596V173.289H92.8094V182H91.0838ZM98.2366 182H96.511V171.962H98.2366V182ZM103.084 182H101.368V167.75H103.084V182Z" fill="white"/>
<path d="M110 75.5C110 60.337 97.663 48 82.5 48C67.337 48 55 60.337 55 75.5C55 83.509 58.444 90.728 63.926 95.758L63.9 95.781L64.792 96.533C64.85 96.582 64.913 96.622 64.971 96.67C65.445 97.063 65.936 97.436 66.436 97.797C66.598 97.914 66.76 98.031 66.925 98.145C67.459 98.513 68.007 98.862 68.567 99.193C68.689 99.265 68.812 99.335 68.935 99.405C69.548 99.754 70.174 100.083 70.815 100.385C70.862 100.407 70.91 100.427 70.957 100.449C73.046 101.42 75.276 102.133 77.608 102.554C77.669 102.565 77.73 102.576 77.792 102.587C78.516 102.712 79.248 102.812 79.989 102.879C80.079 102.887 80.169 102.892 80.26 102.9C80.998 102.961 81.744 103 82.5 103C83.249 103 83.988 102.961 84.722 102.902C84.815 102.894 84.908 102.889 85.001 102.881C85.736 102.814 86.462 102.717 87.179 102.594C87.241 102.583 87.304 102.572 87.366 102.56C89.663 102.148 91.861 101.451 93.923 100.505C93.999 100.47 94.076 100.437 94.152 100.401C94.769 100.111 95.372 99.798 95.963 99.465C96.11 99.382 96.256 99.298 96.402 99.212C96.94 98.895 97.469 98.564 97.983 98.212C98.168 98.086 98.349 97.953 98.532 97.821C98.971 97.505 99.402 97.179 99.821 96.838C99.914 96.763 100.014 96.698 100.105 96.621L101.02 95.857L100.993 95.834C106.523 90.802 110 83.55 110 75.5ZM57 75.5C57 61.439 68.439 50 82.5 50C96.561 50 108 61.439 108 75.5C108 83.077 104.675 89.889 99.411 94.563C99.117 94.36 98.821 94.178 98.518 94.026L90.051 89.793C89.291 89.413 88.819 88.649 88.819 87.8V84.843C89.015 84.601 89.222 84.327 89.436 84.026C90.532 82.478 91.411 80.756 92.052 78.903C93.319 78.301 94.137 77.039 94.137 75.614V72.069C94.137 71.202 93.819 70.361 93.25 69.7V65.033C93.302 64.514 93.486 61.585 91.367 59.169C89.524 57.065 86.541 56 82.5 56C78.459 56 75.476 57.065 73.633 59.168C71.514 61.584 71.698 64.513 71.75 65.032V69.699C71.182 70.36 70.863 71.201 70.863 72.068V75.613C70.863 76.714 71.357 77.741 72.203 78.434C73.013 81.607 74.68 84.009 75.296 84.823V87.717C75.296 88.533 74.851 89.283 74.134 89.675L66.227 93.988C65.975 94.125 65.725 94.285 65.475 94.464C60.276 89.792 57 83.022 57 75.5ZM97.459 96.132C97.109 96.386 96.753 96.632 96.392 96.867C96.226 96.975 96.061 97.083 95.892 97.188C95.42 97.48 94.94 97.758 94.45 98.018C94.342 98.075 94.233 98.129 94.124 98.185C92.998 98.762 91.833 99.258 90.636 99.661C90.594 99.675 90.552 99.69 90.509 99.704C89.882 99.912 89.247 100.097 88.605 100.256C88.603 100.256 88.601 100.257 88.599 100.257C87.951 100.417 87.295 100.55 86.635 100.659C86.617 100.662 86.599 100.666 86.581 100.669C85.96 100.77 85.334 100.843 84.706 100.898C84.595 100.908 84.484 100.915 84.372 100.923C83.751 100.97 83.127 101 82.5 101C81.866 101 81.234 100.969 80.605 100.922C80.496 100.914 80.387 100.907 80.279 100.897C79.645 100.841 79.014 100.766 78.389 100.664C78.361 100.659 78.333 100.654 78.305 100.649C76.983 100.428 75.682 100.103 74.415 99.678C74.376 99.665 74.336 99.651 74.297 99.638C73.668 99.424 73.046 99.187 72.435 98.925C72.431 98.923 72.426 98.921 72.422 98.919C71.844 98.67 71.277 98.394 70.717 98.103C70.644 98.065 70.57 98.029 70.498 97.99C69.987 97.717 69.487 97.422 68.994 97.114C68.848 97.022 68.703 96.929 68.559 96.835C68.105 96.538 67.657 96.229 67.221 95.902C67.176 95.868 67.133 95.832 67.088 95.798C67.12 95.78 67.152 95.762 67.184 95.744L75.091 91.431C76.451 90.689 77.296 89.266 77.296 87.717L77.295 84.115L77.065 83.837C77.043 83.812 74.881 81.182 74.064 77.621L73.973 77.225L73.632 77.004C73.151 76.693 72.863 76.173 72.863 75.612V72.067C72.863 71.602 73.06 71.169 73.42 70.844L73.75 70.546V64.976L73.741 64.845C73.738 64.821 73.443 62.416 75.137 60.485C76.583 58.837 79.061 58 82.5 58C85.926 58 88.396 58.83 89.846 60.466C91.538 62.377 91.261 64.827 91.259 64.847L91.25 70.548L91.58 70.846C91.939 71.17 92.137 71.604 92.137 72.069V75.614C92.137 76.327 91.652 76.974 90.956 77.189L90.459 77.342L90.299 77.837C89.709 79.67 88.869 81.363 87.803 82.869C87.541 83.239 87.286 83.567 87.067 83.818L86.819 84.101V87.8C86.819 89.412 87.715 90.862 89.157 91.582L97.624 95.815C97.678 95.842 97.731 95.87 97.784 95.898C97.677 95.979 97.567 96.054 97.459 96.132Z" fill="#7B7B7B"/>
<defs>
<filter id="filter0_d" x="0" y="0" width="172" height="168" filterUnits="userSpaceOnUse" color-interpolation-filters="sRGB">
<feFlood flood-opacity="0" result="BackgroundImageFix"/>
<feColorMatrix in="SourceAlpha" type="matrix" values="0 0 0 0 0 0 0 0 0 0 0 0 0 0 0 0 0 0 127 0"/>
<feOffset dx="3" dy="9"/>
<feGaussianBlur stdDeviation="4"/>
<feColorMatrix type="matrix" values="0 0 0 0 0 0 0 0 0 0 0 0 0 0 0 0 0 0 0.122 0"/>
<feBlend mode="normal" in2="BackgroundImageFix" result="effect1_dropShadow"/>
<feBlend mode="normal" in="SourceGraphic" in2="effect1_dropShadow" result="shape"/>
</filter>
</defs>
</svg>
