<svg width="363" height="351" viewBox="0 0 363 351" fill="none" xmlns="http://www.w3.org/2000/svg">
<path d="M363 175.5C363 78.7325 281.576 0 181.5 0C81.4242 0 0 78.7325 0 175.5C0 226.612 22.7304 272.682 58.9116 304.783L58.74 304.93L64.6272 309.729C65.01 310.042 65.4258 310.297 65.8086 310.603C68.937 313.111 72.1776 315.492 75.4776 317.795C76.5468 318.542 77.616 319.289 78.705 320.016C82.2294 322.365 85.8462 324.592 89.5422 326.704C90.3474 327.164 91.1592 327.611 91.971 328.057C96.0168 330.285 100.148 332.384 104.379 334.312C104.689 334.452 105.006 334.58 105.316 334.72C119.104 340.917 133.822 345.467 149.213 348.154C149.615 348.224 150.018 348.294 150.427 348.364C155.206 349.162 160.037 349.8 164.927 350.228C165.521 350.279 166.115 350.311 166.716 350.362C171.587 350.751 176.51 351 181.5 351C186.443 351 191.321 350.751 196.165 350.375C196.779 350.324 197.393 350.292 198.007 350.241C202.858 349.813 207.649 349.194 212.381 348.409C212.791 348.339 213.206 348.269 213.616 348.192C228.776 345.563 243.283 341.115 256.892 335.077C257.393 334.854 257.902 334.643 258.403 334.414C262.475 332.563 266.455 330.565 270.356 328.44C271.326 327.911 272.29 327.375 273.253 326.826C276.804 324.803 280.295 322.69 283.688 320.444C284.909 319.64 286.103 318.791 287.311 317.949C290.209 315.932 293.053 313.851 295.819 311.675C296.432 311.197 297.092 310.782 297.693 310.29L303.732 305.415L303.554 305.268C340.052 273.155 363 226.874 363 175.5ZM13.2 175.5C13.2 85.7653 88.6974 12.7636 181.5 12.7636C274.303 12.7636 349.8 85.7653 349.8 175.5C349.8 223.855 327.855 267.328 293.113 297.157C291.172 295.861 289.219 294.7 287.219 293.73L231.337 266.715C226.321 264.29 223.205 259.415 223.205 253.996V235.125C224.499 233.581 225.865 231.832 227.278 229.911C234.511 220.032 240.313 209.043 244.543 197.217C252.905 193.375 258.304 185.322 258.304 176.228V153.604C258.304 148.071 256.205 142.704 252.45 138.485V108.702C252.793 105.389 254.008 86.697 240.022 71.2785C227.858 57.8512 208.171 51.0545 181.5 51.0545C154.829 51.0545 135.142 57.8512 122.978 71.2721C108.992 86.6906 110.207 105.383 110.55 108.695V138.479C106.801 142.697 104.696 148.065 104.696 153.598V176.221C104.696 183.248 107.956 189.802 113.54 194.224C118.886 214.474 129.888 229.803 133.954 234.998V253.467C133.954 258.674 131.017 263.461 126.284 265.962L74.0982 293.487C72.435 294.361 70.785 295.382 69.135 296.525C34.8216 266.709 13.2 223.504 13.2 175.5ZM280.229 307.17C277.919 308.791 275.57 310.361 273.187 311.86C272.092 312.55 271.003 313.239 269.887 313.909C266.772 315.772 263.604 317.547 260.37 319.206C259.657 319.57 258.938 319.914 258.218 320.272C250.787 323.954 243.098 327.119 235.198 329.691C234.92 329.78 234.643 329.876 234.359 329.966C230.221 331.293 226.03 332.474 221.793 333.488C221.78 333.488 221.767 333.495 221.753 333.495C217.477 334.516 213.147 335.365 208.791 336.06C208.672 336.079 208.553 336.105 208.435 336.124C204.336 336.769 200.204 337.234 196.06 337.585C195.327 337.649 194.594 337.694 193.855 337.745C189.757 338.045 185.638 338.236 181.5 338.236C177.316 338.236 173.144 338.039 168.993 337.739C168.274 337.688 167.554 337.643 166.841 337.579C162.657 337.222 158.492 336.743 154.367 336.092C154.183 336.06 153.998 336.028 153.813 335.996C145.088 334.586 136.501 332.512 128.139 329.8C127.882 329.717 127.618 329.627 127.36 329.544C123.209 328.179 119.104 326.666 115.071 324.994C115.045 324.981 115.012 324.969 114.985 324.956C111.17 323.367 107.428 321.605 103.732 319.748C103.25 319.506 102.762 319.276 102.287 319.027C98.9142 317.285 95.6142 315.402 92.3604 313.437C91.3968 312.849 90.4398 312.256 89.4894 311.656C86.493 309.761 83.5362 307.789 80.6586 305.702C80.3616 305.485 80.0778 305.255 79.7808 305.038C79.992 304.923 80.2032 304.808 80.4144 304.694L132.601 277.169C141.577 272.433 147.154 263.352 147.154 253.467L147.147 230.479L145.629 228.705C145.484 228.546 131.215 211.761 125.822 189.036L125.222 186.509L122.971 185.098C119.797 183.114 117.896 179.795 117.896 176.215V153.591C117.896 150.624 119.196 147.86 121.572 145.786L123.75 143.884V108.338L123.691 107.502C123.671 107.349 121.724 92.0003 132.904 79.677C142.448 69.1598 158.803 63.8182 181.5 63.8182C204.112 63.8182 220.414 69.1151 229.984 79.5557C241.151 91.7514 239.323 107.387 239.309 107.514L239.25 143.897L241.428 145.799C243.797 147.867 245.104 150.636 245.104 153.604V176.228C245.104 180.778 241.903 184.907 237.31 186.279L234.029 187.255L232.973 190.414C229.079 202.112 223.535 212.917 216.5 222.528C214.771 224.889 213.088 226.982 211.642 228.584L210.005 230.39V253.996C210.005 264.284 215.919 273.538 225.436 278.132L281.318 305.147C281.675 305.319 282.025 305.498 282.374 305.676C281.668 306.193 280.942 306.672 280.229 307.17Z" fill="white"/>
</svg>
