<svg width="172" height="185" viewBox="0 0 172 185" fill="none" xmlns="http://www.w3.org/2000/svg">
<g filter="url(#filter0_d)">
<ellipse cx="83" cy="75.5" rx="78" ry="75.5" fill="white"/>
</g>
<path d="M55.5037 168.492V177.677C55.4975 178.951 55.0955 179.993 54.2976 180.803C53.506 181.613 52.4298 182.068 51.0691 182.167L50.596 182.186C49.1178 182.186 47.9395 181.787 47.0613 180.989C46.183 180.191 45.7377 179.093 45.7254 177.695V168.492H47.488V177.64C47.488 178.617 47.7571 179.378 48.2952 179.922C48.8333 180.46 49.6002 180.729 50.596 180.729C51.6041 180.729 52.3741 180.46 52.906 179.922C53.4441 179.384 53.7131 178.626 53.7131 177.649V168.492H55.5037ZM64.0804 179.337C64.0804 178.874 63.9041 178.515 63.5516 178.261C63.2052 178.001 62.596 177.779 61.7239 177.593C60.8581 177.408 60.1684 177.185 59.6551 176.925C59.1479 176.666 58.7707 176.356 58.5233 175.998C58.2821 175.639 58.1614 175.212 58.1614 174.717C58.1614 173.895 58.5078 173.199 59.2005 172.63C59.8994 172.061 60.79 171.776 61.8724 171.776C63.0104 171.776 63.932 172.07 64.637 172.658C65.3483 173.245 65.7039 173.997 65.7039 174.912H63.9783C63.9783 174.442 63.7773 174.037 63.3753 173.697C62.9795 173.357 62.4785 173.187 61.8724 173.187C61.2477 173.187 60.7591 173.323 60.4066 173.595C60.054 173.867 59.8778 174.222 59.8778 174.662C59.8778 175.076 60.0417 175.388 60.3695 175.599C60.6973 175.809 61.2879 176.01 62.1414 176.202C63.0011 176.393 63.6969 176.622 64.2288 176.888C64.7607 177.154 65.1535 177.476 65.4071 177.853C65.6668 178.224 65.7967 178.679 65.7967 179.217C65.7967 180.114 65.438 180.834 64.7205 181.378C64.0031 181.917 63.0723 182.186 61.928 182.186C61.124 182.186 60.4127 182.043 59.7943 181.759C59.1758 181.474 58.6903 181.078 58.3377 180.571C57.9914 180.058 57.8182 179.504 57.8182 178.911H59.5345C59.5654 179.486 59.7943 179.944 60.221 180.284C60.654 180.618 61.223 180.785 61.928 180.785C62.5775 180.785 63.097 180.655 63.4866 180.395C63.8825 180.129 64.0804 179.777 64.0804 179.337ZM74.4198 181.007C73.7518 181.793 72.7715 182.186 71.4789 182.186C70.4089 182.186 69.5925 181.876 69.0297 181.258C68.473 180.633 68.1916 179.712 68.1854 178.493V171.962H69.9017V178.447C69.9017 179.968 70.5202 180.729 71.7572 180.729C73.0684 180.729 73.9405 180.24 74.3734 179.263V171.962H76.0897V182H74.4569L74.4198 181.007ZM85.0932 182C84.9942 181.802 84.9138 181.45 84.852 180.942C84.0541 181.771 83.1017 182.186 81.9946 182.186C81.005 182.186 80.1917 181.907 79.5546 181.351C78.9238 180.788 78.6083 180.076 78.6083 179.217C78.6083 178.172 79.0042 177.361 79.7958 176.786C80.5937 176.205 81.7132 175.914 83.1542 175.914H84.8242V175.125C84.8242 174.526 84.6448 174.049 84.2861 173.697C83.9274 173.338 83.3985 173.159 82.6996 173.159C82.0873 173.159 81.574 173.313 81.1596 173.623C80.7452 173.932 80.538 174.306 80.538 174.745H78.8124C78.8124 174.244 78.9887 173.762 79.3413 173.298C79.7 172.828 80.1824 172.457 80.7885 172.185C81.4008 171.912 82.0719 171.776 82.8017 171.776C83.9583 171.776 84.8644 172.067 85.52 172.648C86.1756 173.224 86.5157 174.018 86.5405 175.033V179.653C86.5405 180.574 86.658 181.307 86.893 181.852V182H85.0932ZM82.2451 180.692C82.7831 180.692 83.2934 180.553 83.7758 180.274C84.2582 179.996 84.6077 179.634 84.8242 179.189V177.129H83.4789C81.3761 177.129 80.3246 177.745 80.3246 178.976C80.3246 179.514 80.504 179.934 80.8627 180.237C81.2215 180.54 81.6822 180.692 82.2451 180.692ZM83.8315 167.75H85.9096L83.4233 170.478H82.041L83.8315 167.75ZM94.2729 173.502C94.0132 173.459 93.7318 173.437 93.4287 173.437C92.3031 173.437 91.5392 173.916 91.1372 174.875V182H89.4209V171.962H91.0908L91.1187 173.122C91.6815 172.225 92.4793 171.776 93.5122 171.776C93.8462 171.776 94.0998 171.82 94.2729 171.906V173.502ZM97.9141 182H96.1978V171.962H97.9141V182ZM96.0587 169.299C96.0587 169.021 96.1422 168.786 96.3091 168.594C96.4823 168.403 96.7359 168.307 97.0699 168.307C97.4039 168.307 97.6575 168.403 97.8306 168.594C98.0038 168.786 98.0904 169.021 98.0904 169.299C98.0904 169.578 98.0038 169.81 97.8306 169.995C97.6575 170.181 97.4039 170.273 97.0699 170.273C96.7359 170.273 96.4823 170.181 96.3091 169.995C96.1422 169.81 96.0587 169.578 96.0587 169.299ZM100.405 176.888C100.405 175.905 100.597 175.02 100.98 174.235C101.37 173.449 101.908 172.843 102.594 172.417C103.287 171.99 104.076 171.776 104.96 171.776C106.327 171.776 107.431 172.25 108.272 173.196C109.119 174.142 109.543 175.401 109.543 176.972V177.092C109.543 178.069 109.354 178.948 108.977 179.727C108.606 180.5 108.071 181.103 107.372 181.536C106.679 181.969 105.882 182.186 104.979 182.186C103.618 182.186 102.514 181.712 101.667 180.766C100.825 179.82 100.405 178.567 100.405 177.009V176.888ZM102.13 177.092C102.13 178.206 102.387 179.099 102.901 179.773C103.42 180.448 104.113 180.785 104.979 180.785C105.851 180.785 106.543 180.444 107.057 179.764C107.57 179.078 107.827 178.119 107.827 176.888C107.827 175.787 107.564 174.897 107.038 174.216C106.519 173.53 105.826 173.187 104.96 173.187C104.113 173.187 103.429 173.524 102.91 174.198C102.39 174.872 102.13 175.837 102.13 177.092ZM117.73 179.337C117.73 178.874 117.554 178.515 117.201 178.261C116.855 178.001 116.246 177.779 115.374 177.593C114.508 177.408 113.818 177.185 113.305 176.925C112.798 176.666 112.42 176.356 112.173 175.998C111.932 175.639 111.811 175.212 111.811 174.717C111.811 173.895 112.158 173.199 112.85 172.63C113.549 172.061 114.44 171.776 115.522 171.776C116.66 171.776 117.582 172.07 118.287 172.658C118.998 173.245 119.354 173.997 119.354 174.912H117.628C117.628 174.442 117.427 174.037 117.025 173.697C116.629 173.357 116.128 173.187 115.522 173.187C114.897 173.187 114.409 173.323 114.056 173.595C113.704 173.867 113.528 174.222 113.528 174.662C113.528 175.076 113.691 175.388 114.019 175.599C114.347 175.809 114.938 176.01 115.791 176.202C116.651 176.393 117.347 176.622 117.879 176.888C118.411 177.154 118.803 177.476 119.057 177.853C119.317 178.224 119.446 178.679 119.446 179.217C119.446 180.114 119.088 180.834 118.37 181.378C117.653 181.917 116.722 182.186 115.578 182.186C114.774 182.186 114.063 182.043 113.444 181.759C112.826 181.474 112.34 181.078 111.987 180.571C111.641 180.058 111.468 179.504 111.468 178.911H113.184C113.215 179.486 113.444 179.944 113.871 180.284C114.304 180.618 114.873 180.785 115.578 180.785C116.227 180.785 116.747 180.655 117.136 180.395C117.532 180.129 117.73 179.777 117.73 179.337Z" fill="white"/>
<path d="M108.014 90.889L98.461 86.113C97.56 85.662 97 84.756 97 83.748V80.367C97.229 80.087 97.47 79.768 97.719 79.416C98.958 77.666 99.951 75.718 100.673 73.617C102.084 72.97 103 71.575 103 70V66C103 65.037 102.64 64.104 102 63.375V58.056C102.056 57.506 102.276 54.232 99.908 51.531C97.854 49.188 94.521 48 90 48C85.479 48 82.146 49.188 80.092 51.53C78.657 53.167 78.174 55.011 78.028 56.335C76.314 55.449 74.294 55 72 55C61.611 55 61.006 63.855 61 64V68.579C60.352 69.285 60 70.1 60 70.909V74.363C60 75.442 60.483 76.448 61.311 77.128C62.136 80.238 64.165 82.588 64.955 83.413V86.156C64.955 86.943 64.527 87.665 63.784 88.071L57.131 92.244C54.583 93.634 53 96.301 53 99.203V103H67H69H113V98.957C113 95.519 111.089 92.427 108.014 90.889ZM67 98.762V101H55V99.203C55 97.033 56.184 95.039 58.141 93.97L64.793 89.797C66.126 89.07 66.954 87.676 66.954 86.156V82.565L66.636 82.268C66.61 82.244 63.953 79.734 63.168 76.313L63.077 75.917L62.735 75.697C62.275 75.399 62 74.9 62 74.363V70.909C62 70.549 62.245 70.121 62.671 69.735L63 69.438L62.998 64.058C63.016 63.771 63.537 57 72 57C74.393 57 76.408 57.553 78 58.644V63.375C77.36 64.104 77 65.037 77 66V70C77 70.304 77.035 70.603 77.101 70.893C77.128 71.009 77.182 71.115 77.219 71.227C77.274 71.395 77.318 71.568 77.395 71.727C77.396 71.729 77.397 71.73 77.398 71.732C77.654 72.26 78.027 72.732 78.497 73.109C78.502 73.128 78.508 73.145 78.513 73.163C78.573 73.392 78.636 73.62 78.704 73.843L78.785 74.104C78.799 74.15 78.816 74.197 78.831 74.243C78.866 74.351 78.9 74.458 78.936 74.564C78.996 74.739 79.059 74.92 79.132 75.117C79.163 75.199 79.197 75.273 79.229 75.354C79.311 75.563 79.393 75.765 79.479 75.965C79.5 76.013 79.518 76.065 79.539 76.112L79.595 76.238C79.621 76.296 79.648 76.348 79.674 76.405C79.772 76.619 79.868 76.826 79.968 77.026C79.984 77.058 79.999 77.093 80.015 77.125C80.078 77.25 80.141 77.368 80.204 77.488C80.312 77.694 80.418 77.888 80.524 78.076C80.576 78.168 80.627 78.258 80.678 78.345C80.822 78.591 80.959 78.817 81.092 79.027C81.121 79.072 81.149 79.119 81.177 79.162C81.419 79.537 81.629 79.841 81.803 80.078C81.849 80.141 81.889 80.195 81.928 80.248C81.95 80.277 81.98 80.319 81.999 80.345V83.654C81.999 84.622 81.471 85.51 80.622 85.974L77.976 87.417L77.515 87.376L77.327 87.771L71.701 90.84C68.801 92.424 67 95.458 67 98.762ZM111 101H69V98.762C69 96.191 70.402 93.828 72.659 92.598L81.58 87.732C83.073 86.917 84 85.354 84 83.655V79.637V79.636L83.806 79.404L83.768 79.359C83.766 79.356 83.704 79.281 83.603 79.149C83.597 79.141 83.591 79.133 83.584 79.125C83.531 79.056 83.469 78.973 83.398 78.874C83.397 78.872 83.396 78.871 83.395 78.869C83.246 78.662 83.059 78.393 82.851 78.069C82.846 78.062 82.842 78.054 82.837 78.047C82.739 77.894 82.635 77.727 82.529 77.55C82.521 77.537 82.513 77.524 82.505 77.51C82.279 77.131 82.039 76.702 81.8 76.227C81.8 76.227 81.799 76.226 81.799 76.225C81.672 75.97 81.545 75.702 81.421 75.423C81.404 75.384 81.386 75.346 81.369 75.307C81.314 75.182 81.259 75.051 81.203 74.916C81.183 74.867 81.163 74.816 81.143 74.766C81.091 74.635 81.038 74.503 80.982 74.352C80.88 74.08 80.784 73.796 80.692 73.503L80.637 73.325C80.631 73.305 80.624 73.285 80.618 73.264C80.524 72.948 80.434 72.625 80.358 72.293L80.267 71.897L79.926 71.677C79.346 71.303 79 70.676 79 70V66C79 65.439 79.238 64.916 79.67 64.525L80 64.228V58V57.646L79.973 57.625C79.939 56.903 79.982 54.69 81.596 52.849C83.253 50.958 86.081 50 90 50C93.905 50 96.727 50.951 98.386 52.828C100.333 55.029 100.011 57.845 100.009 57.869L100 64.228L100.33 64.526C100.762 64.916 101 65.439 101 66V70C101 70.873 100.428 71.637 99.578 71.899L99.08 72.052L98.92 72.547C98.251 74.628 97.298 76.55 96.086 78.26C95.789 78.681 95.5 79.054 95.249 79.339L95 79.623V83.748C95 85.518 95.983 87.109 97.566 87.901L107.119 92.677C109.513 93.874 111 96.28 111 98.957V101Z" fill="#7B7B7B"/>
<defs>
<filter id="filter0_d" x="0" y="0" width="172" height="168" filterUnits="userSpaceOnUse" color-interpolation-filters="sRGB">
<feFlood flood-opacity="0" result="BackgroundImageFix"/>
<feColorMatrix in="SourceAlpha" type="matrix" values="0 0 0 0 0 0 0 0 0 0 0 0 0 0 0 0 0 0 127 0"/>
<feOffset dx="3" dy="9"/>
<feGaussianBlur stdDeviation="4"/>
<feColorMatrix type="matrix" values="0 0 0 0 0 0 0 0 0 0 0 0 0 0 0 0 0 0 0.122 0"/>
<feBlend mode="normal" in2="BackgroundImageFix" result="effect1_dropShadow"/>
<feBlend mode="normal" in="SourceGraphic" in2="effect1_dropShadow" result="shape"/>
</filter>
</defs>
</svg>
