<svg width="70" height="60" viewBox="0 0 80 68" fill="none" xmlns="http://www.w3.org/2000/svg">
<g filter="url(#filter0_d)">
<path d="M79.1595 26.8566L33.9597 1.00521C30.4734 -0.991961 25.7014 0.0847502 23.4031 3.37379L14.6468 15.8915C13.7874 17.1215 13.3333 18.5632 13.3333 20.0635C13.3333 22.6554 14.7266 25.0696 16.9677 26.363L26.5004 31.8681L24.7784 34.166C23.8457 35.409 23.3331 36.9501 23.3331 38.5043C23.3331 40.1026 23.9184 41.606 24.8612 42.8488L22.324 46.6664H9.99992V41.65C9.99992 40.728 9.25446 39.9999 8.33322 39.9999H1.66671C0.745463 39.9999 0 40.728 0 41.65V58.3316C0 59.2537 0.745463 59.9997 1.66671 59.9997H8.33337C9.25461 59.9997 10.0001 59.2537 10.0001 58.3316V56.6665H22.3242C25.6754 56.6665 28.7857 55.0018 30.6444 52.2114L33.3763 48.1098C33.9024 48.2241 34.433 48.3276 34.9753 48.3276C37.6283 48.3276 40.125 46.9136 41.489 44.6363L43.3203 41.5815L57.5045 49.7728C57.76 49.9211 58.0481 49.9959 58.3378 49.9959C58.4989 49.9959 58.6602 49.9731 58.818 49.9259C59.2575 49.7923 59.6236 49.4844 59.8287 49.0739L61.0626 46.6006C61.2651 46.6159 61.46 46.6597 61.6662 46.6597C68.0985 46.6597 73.3329 41.4207 73.3329 34.9826C73.3329 34.2756 73.2285 33.547 73.0733 32.8021L79.0783 29.7973C79.6284 29.522 79.9816 28.9666 79.9995 28.3508C80.0156 27.7363 79.6934 27.1613 79.1595 26.8566ZM6.66667 56.6665H3.33325V43.3333H6.66651V56.6665H6.66667ZM27.8709 50.3694C26.6323 52.2281 24.5587 53.3381 22.324 53.3381H9.99992V50.0048H22.324C23.4439 50.0048 24.4806 49.4498 25.0975 48.5205L27.4054 45.0574L30.2676 46.7742L27.8709 50.3694ZM38.6309 42.9344C37.4656 44.8728 34.7232 45.563 32.783 44.396L28.5562 41.8602C27.3909 41.1619 26.6665 39.8827 26.6665 38.5237C26.6665 37.6871 26.9432 36.8587 27.4445 36.1881L29.4076 33.5707L40.4325 39.9318L38.6309 42.9344ZM57.6378 46.0106L18.6327 23.5058C17.4202 22.806 16.6666 21.5007 16.6666 20.0993C16.6666 19.2871 16.9124 18.5074 17.3778 17.8418L21.5623 11.8653L62.8068 35.6595L57.6378 46.0106ZM62.7526 43.2282L66.2413 36.2416L69.9437 34.3907C69.9623 34.5953 69.9994 34.807 69.9994 35.0048C69.9994 39.2274 66.8303 42.6891 62.7526 43.2282ZM65.056 33.1081L23.4817 9.1239L26.1343 5.33549C27.0117 4.08222 28.4471 3.33347 29.9771 3.33347C30.7926 3.33347 31.5982 3.54675 32.3062 3.95191L74.8025 28.2356L65.056 33.1081Z" fill="white"/>
</g>
<defs>
<filter id="filter0_d" x="-4" y="0.000244141" width="88.0001" height="67.9995" filterUnits="userSpaceOnUse" color-interpolation-filters="sRGB">
<feFlood flood-opacity="0" result="BackgroundImageFix"/>
<feColorMatrix in="SourceAlpha" type="matrix" values="0 0 0 0 0 0 0 0 0 0 0 0 0 0 0 0 0 0 127 0"/>
<feOffset dy="4"/>
<feGaussianBlur stdDeviation="2"/>
<feColorMatrix type="matrix" values="0 0 0 0 0 0 0 0 0 0 0 0 0 0 0 0 0 0 0.25 0"/>
<feBlend mode="normal" in2="BackgroundImageFix" result="effect1_dropShadow"/>
<feBlend mode="normal" in="SourceGraphic" in2="effect1_dropShadow" result="shape"/>
</filter>
</defs>
</svg>
