<?xml version="1.0"?>
<svg xmlns="http://www.w3.org/2000/svg" xmlns:xlink="http://www.w3.org/1999/xlink" version="1.1" id="Layer_1" x="0px" y="0px" viewBox="0 0 512.853 512.853" style="enable-background:new 0 0 512.853 512.853;" xml:space="preserve" width="512px" height="100px" class=""><g><g transform="translate(1 1)">
	<g>
		<g>
			<path d="M272.067,366.36h-8.533c-5.12,0-8.533,3.413-8.533,8.533s3.413,8.533,8.533,8.533h8.533c5.12,0,8.533-3.413,8.533-8.533     S277.187,366.36,272.067,366.36z" data-original="#000000" class="active-path" data-old_color="#000000" fill="#FFFFFF"/>
			<path d="M314.733,221.293V161.56c0-5.12-3.413-8.533-8.533-8.533H203.8c-5.12,0-8.533,3.413-8.533,8.533v59.733     c-5.12,0-8.533,3.413-8.533,8.533s3.413,8.533,8.533,8.533h8.533h102.4h8.533c5.12,0,8.533-3.413,8.533-8.533     S319.853,221.293,314.733,221.293z M297.667,187.16h-34.133v-17.067h34.133V187.16z M246.467,170.093v17.067h-34.133v-17.067     H246.467z M212.333,204.227h34.133v17.067h-34.133V204.227z M263.533,221.293v-17.067h34.133v17.067H263.533z" data-original="#000000" class="active-path" data-old_color="#000000" fill="#FFFFFF"/>
			<path d="M178.2,349.293v-93.867c0-5.12-3.413-8.533-8.533-8.533h-102.4c-5.12,0-8.533,3.413-8.533,8.533v93.867     c-5.12,0-8.533,3.413-8.533,8.533s3.413,8.533,8.533,8.533h8.533h102.4h8.533c5.12,0,8.533-3.413,8.533-8.533     S183.32,349.293,178.2,349.293z M161.133,298.093H127V263.96h34.133V298.093z M109.933,263.96v34.133H75.8V263.96H109.933z      M75.8,315.16h34.133v34.133H75.8V315.16z M127,349.293V315.16h34.133v34.133H127z" data-original="#000000" class="active-path" data-old_color="#000000" fill="#FFFFFF"/>
			<path d="M504.173,289.56c-6.609-0.769-12.854-1.874-18.773-3.242v-71.511l13.653,5.633c0.853,0.853,2.56,0.853,3.413,0.853     c1.707,0,3.413-0.853,5.12-1.707c1.707-1.707,3.413-4.267,3.413-6.827v-42.667c0-3.413-1.707-5.973-5.12-7.68l-88.747-36.723     V50.627h8.533c5.12,0,8.533-3.413,8.533-8.533V7.96c0-5.12-3.413-8.533-8.533-8.533H306.2c-5.12,0-8.533,3.413-8.533,8.533     v34.133c0,5.12,3.413,8.533,8.533,8.533h8.533v32.691l-56.32-23.305c-2.56-0.853-5.12-0.853-6.827,0L4.12,162.413     C0.707,163.267-1,166.68-1,170.093v42.667c0,2.56,1.707,5.12,4.267,6.827c1.707,1.707,5.12,1.707,7.68,0.853l13.653-5.633     v236.886c0,5.12,3.413,8.533,8.533,8.533H203.8h93.867h49.887c8.031,12.271,17.918,23.183,29.473,32.427     c11.093,8.533,22.187,12.8,33.28,17.067l3.413,0.853c1.707,0.853,2.56,0.853,3.413,0.853s1.707,0,3.413-0.853l3.413-0.853     c11.093-4.267,23.04-8.533,33.28-17.067c34.987-27.307,54.613-69.12,54.613-117.76v-76.8     C511.853,293.827,508.44,290.413,504.173,289.56z M314.733,16.493h102.4V33.56H408.6h-85.333h-8.533V16.493z M400.067,50.627     v67.413L331.8,89.88V50.627H400.067z M16.067,176.067L255,77.08l238.933,98.987v23.893l-235.52-97.28     c-0.853-0.853-2.56-0.853-3.413-0.853s-2.56,0-3.413,0.853l-235.52,97.28V176.067z M41.667,417.56h153.6v25.6h-153.6V417.56z      M212.333,443.16V306.627h76.8V443.16H212.333z M337.773,443.16H306.2V298.093c0-5.12-3.413-8.533-8.533-8.533H203.8     c-5.12,0-8.533,3.413-8.533,8.533v102.4h-153.6V207.765L255,119.747l213.333,88.019v73.261     c-5.715-1.818-11.109-3.956-16.191-6.286c-11.416-5.401-21.235-11.586-29.889-17.607c-2.56-1.707-6.827-1.707-9.387,0     c-20.48,13.653-45.227,28.16-81.92,32.427c-4.267,0.853-7.68,4.267-7.68,8.533v76.8c0,1.539,0.02,3.071,0.06,4.596     c0.006,0.236,0.02,0.469,0.027,0.705c0.038,1.295,0.084,2.587,0.151,3.872c0.009,0.164,0.022,0.327,0.031,0.491     c0.074,1.354,0.159,2.704,0.264,4.047c0.009,0.114,0.021,0.227,0.031,0.341c0.111,1.388,0.236,2.771,0.38,4.145     c0.013,0.123,0.03,0.244,0.043,0.367c0.145,1.353,0.303,2.701,0.479,4.041c0.033,0.253,0.074,0.503,0.108,0.756     c0.162,1.188,0.33,2.374,0.517,3.552c0.088,0.554,0.189,1.102,0.282,1.653c0.144,0.848,0.283,1.698,0.44,2.541     c0.2,1.082,0.419,2.156,0.64,3.229c0.057,0.274,0.108,0.552,0.166,0.826C329.339,421.675,333.002,432.75,337.773,443.16z      M493.933,374.893c0,42.667-17.067,80.213-47.787,104.107c-8.533,6.827-18.773,10.24-29.013,14.507     c-11.093-4.267-20.48-7.68-29.013-14.507c-11.004-8.559-20.245-18.877-27.589-30.547c-0.163-0.353-0.352-0.697-0.571-1.026     c-11.17-17.872-17.789-39.645-19.294-62.48c-0.009-0.133-0.017-0.266-0.025-0.399c-0.086-1.36-0.149-2.725-0.198-4.092     c-0.011-0.306-0.026-0.611-0.035-0.917c-0.047-1.54-0.074-3.082-0.075-4.629c0-0.006,0-0.011,0-0.017v-68.267     c33.28-5.973,57.173-18.773,76.8-31.573c11.225,7.263,25.018,15.03,41.747,21.339c10.457,4.056,22.028,7.378,35.053,9.381     V374.893z" data-original="#000000" class="active-path" data-old_color="#000000" fill="#FFFFFF"/>
			<path d="M405.187,316.013l-34.133,17.067c-3.413,1.707-5.12,4.267-5.12,7.68v59.733c0,5.12,3.413,8.533,8.533,8.533     s8.533-3.413,8.533-8.533V345.88l29.867-15.36c3.413-1.707,5.12-6.827,3.413-11.093     C414.573,316.013,409.453,314.307,405.187,316.013z" data-original="#000000" class="active-path" data-old_color="#000000" fill="#FFFFFF"/>
		</g>
	</g>
</g></g> </svg>
