<?xml version="1.0"?>
<svg xmlns="http://www.w3.org/2000/svg" id="_x33_0" enable-background="new 0 0 64 64" height="512px" viewBox="0 0 64 64" width="512px" class=""><g><path d="m17 55h6c1.103 0 2-.897 2-2v-2c0-1.103-.897-2-2-2h-6c-1.103 0-2 .897-2 2v2c0 1.103.897 2 2 2zm0-4h6l.001 2h-6.001z" data-original="#000000" class="active-path" data-old_color="#000000" fill="#865BA3"/><path d="m27 51h2v2h-2z" data-original="#000000" class="active-path" data-old_color="#000000" fill="#865BA3"/><path d="m11 51h2v2h-2z" data-original="#000000" class="active-path" data-old_color="#000000" fill="#865BA3"/><path d="m20 19.586-11.707 11.707 1.414 1.414 1.293-1.293v11.586h18v-11.586l1.293 1.293 1.414-1.414zm6.586 9.414h-13.172l6.586-6.586zm-5.586 12h-2v-4h2zm2 0v-6h-6v6h-4v-10h14v10z" data-original="#000000" class="active-path" data-old_color="#000000" fill="#865BA3"/><path d="m61 33v-12c0-7.72-6.28-14-14-14-3.317 0-6.364 1.165-8.766 3.1-1.037-1.862-3.016-3.1-5.234-3.1h-26c-3.309 0-6 2.691-6 6v44c0 3.309 2.691 6 6 6h26c3.309 0 6-2.691 6-6v-18h22c1.103 0 2-.897 2-2v-2c0-1.103-.897-2-2-2zm-2-12v12h-24v-12c0-6.617 5.383-12 12-12s12 5.383 12 12zm-52 26h26v9c0 .551-.449 1-1 1h-24c-.551 0-1-.449-1-1zm26-8v6h-26v-29c0-.551.449-1 1-1h24c.551 0 1 .449 1 1v5 12c-1.103 0-2 .897-2 2v2c0 1.103.897 2 2 2zm-16-28v-2h2v2h2v-2h2v2c0 1.103-.897 2-2 2h-2c-1.103 0-2-.897-2-2zm19.72.528c-.831.901-1.549 1.905-2.123 3-.516-.908-1.48-1.528-2.597-1.528h-7.556c.344-.591.556-1.268.556-2v-2h8c1.658 0 3.127 1.029 3.72 2.528zm.28 45.472c0 2.206-1.794 4-4 4h-26c-2.206 0-4-1.794-4-4v-44c0-2.206 1.794-4 4-4h8v2c0 .732.212 1.409.556 2h-7.556c-1.654 0-3 1.346-3 3v40c0 1.654 1.346 3 3 3h24c1.654 0 3-1.346 3-3v-17h2zm-4-20v-2h28l.001 2z" data-original="#000000" class="active-path" data-old_color="#000000" fill="#865BA3"/><path d="m47 25c-1.654 0-3 1.346-3 3s1.346 3 3 3 3-1.346 3-3-1.346-3-3-3zm0 4c-.551 0-1-.449-1-1s.449-1 1-1 1 .449 1 1-.449 1-1 1z" data-original="#000000" class="active-path" data-old_color="#000000" fill="#865BA3"/><path d="m43.915 21.198c.102 1.028.958 1.802 1.99 1.802h2.19c1.032 0 1.888-.774 1.986-1.773l.895-6.979c.016-.123.024-.245.024-.368 0-1.588-1.292-2.88-2.88-2.88h-2.24c-1.588 0-2.88 1.292-2.88 2.88 0 .123.008.245.023.366zm1.965-8.198h2.24c.485 0 .88.395.88.88 0 .037-.002.074-.007.112l-.898 7.008-2.193-.027-.895-6.981c-.005-.038-.007-.075-.007-.112 0-.485.395-.88.88-.88z" data-original="#000000" class="active-path" data-old_color="#000000" fill="#865BA3"/><path d="m46 1h2v4h-2z" data-original="#000000" class="active-path" data-old_color="#000000" fill="#865BA3"/><path d="m53.964 3.5h7.071v2h-7.071z" transform="matrix(.707 -.707 .707 .707 13.659 41.977)" data-original="#000000" class="active-path" data-old_color="#000000" fill="#865BA3"/><path d="m35.5.964h2v7.071h-2z" transform="matrix(.707 -.707 .707 .707 7.509 27.127)" data-original="#000000" class="active-path" data-old_color="#000000" fill="#865BA3"/></g> </svg>
