<svg width="172" height="187" viewBox="0 0 172 187" fill="none" xmlns="http://www.w3.org/2000/svg">
<g filter="url(#filter0_d)">
<ellipse cx="83" cy="75.5" rx="78" ry="75.5" fill="white"/>
</g>
<path d="M30.0496 178.475H24.3904L23.1194 182H21.2825L26.4407 168.492H27.9993L33.1668 182H31.3392L30.0496 178.475ZM24.9285 177.009H29.5208L27.22 170.691L24.9285 177.009ZM36.7709 182H35.0546V167.75H36.7709V182ZM42.0448 169.531V171.962H43.9189V173.289H42.0448V179.514C42.0448 179.916 42.1283 180.219 42.2953 180.423C42.4623 180.621 42.7468 180.72 43.1488 180.72C43.3468 180.72 43.6189 180.683 43.9653 180.608V182C43.5138 182.124 43.0746 182.186 42.6479 182.186C41.8809 182.186 41.3027 181.954 40.913 181.49C40.5234 181.026 40.3285 180.367 40.3285 179.514V173.289H38.5009V171.962H40.3285V169.531H42.0448ZM50.2876 182.186C48.9269 182.186 47.8198 181.74 46.9663 180.85C46.1128 179.953 45.686 178.756 45.686 177.259V176.944C45.686 175.948 45.8747 175.061 46.2519 174.281C46.6354 173.496 47.1673 172.883 47.8476 172.444C48.5342 171.999 49.2763 171.776 50.0742 171.776C51.3792 171.776 52.3935 172.206 53.1172 173.066C53.8408 173.926 54.2026 175.156 54.2026 176.758V177.473H47.4023C47.4271 178.462 47.7147 179.263 48.2651 179.875C48.8218 180.482 49.5268 180.785 50.3804 180.785C50.9865 180.785 51.4998 180.661 51.9204 180.414C52.341 180.166 52.709 179.838 53.0244 179.43L54.0727 180.247C53.2316 181.539 51.9699 182.186 50.2876 182.186ZM50.0742 173.187C49.3815 173.187 48.8001 173.44 48.3301 173.947C47.86 174.448 47.5693 175.153 47.458 176.062H52.4863V175.933C52.4368 175.061 52.2018 174.386 51.7812 173.91C51.3607 173.428 50.7916 173.187 50.0742 173.187ZM61.2393 173.502C60.9795 173.459 60.6981 173.437 60.3951 173.437C59.2694 173.437 58.5056 173.916 58.1036 174.875V182H56.3872V171.962H58.0572L58.085 173.122C58.6478 172.225 59.4457 171.776 60.4786 171.776C60.8125 171.776 61.0661 171.82 61.2393 171.906V173.502ZM68.8419 182C68.7429 181.802 68.6625 181.45 68.6007 180.942C67.8028 181.771 66.8504 182.186 65.7433 182.186C64.7537 182.186 63.9404 181.907 63.3033 181.351C62.6725 180.788 62.357 180.076 62.357 179.217C62.357 178.172 62.7529 177.361 63.5445 176.786C64.3424 176.205 65.4619 175.914 66.9029 175.914H68.5729V175.125C68.5729 174.526 68.3935 174.049 68.0348 173.697C67.676 173.338 67.1472 173.159 66.4483 173.159C65.836 173.159 65.3227 173.313 64.9083 173.623C64.4939 173.932 64.2867 174.306 64.2867 174.745H62.5611C62.5611 174.244 62.7374 173.762 63.0899 173.298C63.4487 172.828 63.9311 172.457 64.5372 172.185C65.1495 171.912 65.8206 171.776 66.5504 171.776C67.707 171.776 68.6131 172.067 69.2687 172.648C69.9243 173.224 70.2644 174.018 70.2892 175.033V179.653C70.2892 180.574 70.4067 181.307 70.6417 181.852V182H68.8419ZM65.9938 180.692C66.5318 180.692 67.0421 180.553 67.5245 180.274C68.0069 179.996 68.3564 179.634 68.5729 179.189V177.129H67.2276C65.1248 177.129 64.0733 177.745 64.0733 178.976C64.0733 179.514 64.2527 179.934 64.6114 180.237C64.9702 180.54 65.4309 180.692 65.9938 180.692ZM78.0216 173.502C77.7619 173.459 77.4805 173.437 77.1774 173.437C76.0518 173.437 75.2879 173.916 74.8859 174.875V182H73.1696V171.962H74.8395L74.8673 173.122C75.4302 172.225 76.228 171.776 77.2609 171.776C77.5949 171.776 77.8485 171.82 78.0216 171.906V173.502ZM93.1805 177.092C93.1805 178.62 92.831 179.851 92.1321 180.785C91.4332 181.719 90.4869 182.186 89.2932 182.186C88.0748 182.186 87.1162 181.799 86.4173 181.026V185.859H84.701V171.962H86.2688L86.3523 173.075C87.0512 172.209 88.0222 171.776 89.2654 171.776C90.4715 171.776 91.4239 172.231 92.1228 173.14C92.8279 174.049 93.1805 175.314 93.1805 176.935V177.092ZM91.4641 176.897C91.4641 175.766 91.2229 174.872 90.7405 174.216C90.2581 173.561 89.5963 173.233 88.7552 173.233C87.7161 173.233 86.9368 173.694 86.4173 174.615V179.412C86.9306 180.327 87.7161 180.785 88.7737 180.785C89.5963 180.785 90.2488 180.46 90.7312 179.811C91.2198 179.155 91.4641 178.184 91.4641 176.897ZM100.412 173.502C100.152 173.459 99.8708 173.437 99.5677 173.437C98.4421 173.437 97.6782 173.916 97.2762 174.875V182H95.5599V171.962H97.2298L97.2577 173.122C97.8205 172.225 98.6183 171.776 99.6512 171.776C99.9852 171.776 100.239 171.82 100.412 171.906V173.502ZM101.548 176.888C101.548 175.905 101.74 175.02 102.123 174.235C102.513 173.449 103.051 172.843 103.738 172.417C104.43 171.99 105.219 171.776 106.103 171.776C107.47 171.776 108.574 172.25 109.415 173.196C110.263 174.142 110.686 175.401 110.686 176.972V177.092C110.686 178.069 110.498 178.948 110.121 179.727C109.749 180.5 109.214 181.103 108.516 181.536C107.823 181.969 107.025 182.186 106.122 182.186C104.761 182.186 103.657 181.712 102.81 180.766C101.969 179.82 101.548 178.567 101.548 177.009V176.888ZM103.274 177.092C103.274 178.206 103.531 179.099 104.044 179.773C104.563 180.448 105.256 180.785 106.122 180.785C106.994 180.785 107.687 180.444 108.2 179.764C108.713 179.078 108.97 178.119 108.97 176.888C108.97 175.787 108.707 174.897 108.182 174.216C107.662 173.53 106.969 173.187 106.103 173.187C105.256 173.187 104.573 173.524 104.053 174.198C103.534 174.872 103.274 175.837 103.274 177.092ZM114.801 171.962V183.16C114.801 185.089 113.926 186.054 112.175 186.054C111.798 186.054 111.449 185.999 111.127 185.887V184.514C111.325 184.564 111.585 184.588 111.906 184.588C112.29 184.588 112.58 184.483 112.778 184.273C112.982 184.069 113.084 183.71 113.084 183.197V171.962H114.801ZM112.908 169.299C112.908 169.027 112.992 168.795 113.159 168.604C113.332 168.406 113.582 168.307 113.91 168.307C114.244 168.307 114.498 168.403 114.671 168.594C114.844 168.786 114.931 169.021 114.931 169.299C114.931 169.578 114.844 169.81 114.671 169.995C114.498 170.181 114.244 170.273 113.91 170.273C113.576 170.273 113.326 170.181 113.159 169.995C112.992 169.81 112.908 169.578 112.908 169.299ZM121.93 182.186C120.57 182.186 119.462 181.74 118.609 180.85C117.755 179.953 117.329 178.756 117.329 177.259V176.944C117.329 175.948 117.517 175.061 117.895 174.281C118.278 173.496 118.81 172.883 119.49 172.444C120.177 171.999 120.919 171.776 121.717 171.776C123.022 171.776 124.036 172.206 124.76 173.066C125.483 173.926 125.845 175.156 125.845 176.758V177.473H119.045C119.07 178.462 119.357 179.263 119.908 179.875C120.464 180.482 121.169 180.785 122.023 180.785C122.629 180.785 123.142 180.661 123.563 180.414C123.984 180.166 124.352 179.838 124.667 179.43L125.715 180.247C124.874 181.539 123.612 182.186 121.93 182.186ZM121.717 173.187C121.024 173.187 120.443 173.44 119.973 173.947C119.503 174.448 119.212 175.153 119.101 176.062H124.129V175.933C124.079 175.061 123.844 174.386 123.424 173.91C123.003 173.428 122.434 173.187 121.717 173.187ZM130.358 169.531V171.962H132.232V173.289H130.358V179.514C130.358 179.916 130.442 180.219 130.609 180.423C130.776 180.621 131.06 180.72 131.462 180.72C131.66 180.72 131.933 180.683 132.279 180.608V182C131.827 182.124 131.388 182.186 130.962 182.186C130.195 182.186 129.616 181.954 129.227 181.49C128.837 181.026 128.642 180.367 128.642 179.514V173.289H126.815V171.962H128.642V169.531H130.358ZM133.796 176.888C133.796 175.905 133.987 175.02 134.371 174.235C134.76 173.449 135.298 172.843 135.985 172.417C136.678 171.99 137.466 171.776 138.351 171.776C139.718 171.776 140.822 172.25 141.663 173.196C142.51 174.142 142.934 175.401 142.934 176.972V177.092C142.934 178.069 142.745 178.948 142.368 179.727C141.997 180.5 141.462 181.103 140.763 181.536C140.07 181.969 139.272 182.186 138.369 182.186C137.009 182.186 135.905 181.712 135.057 180.766C134.216 179.82 133.796 178.567 133.796 177.009V176.888ZM135.521 177.092C135.521 178.206 135.778 179.099 136.291 179.773C136.811 180.448 137.503 180.785 138.369 180.785C139.241 180.785 139.934 180.444 140.447 179.764C140.961 179.078 141.217 178.119 141.217 176.888C141.217 175.787 140.955 174.897 140.429 174.216C139.909 173.53 139.217 173.187 138.351 173.187C137.503 173.187 136.82 173.524 136.3 174.198C135.781 174.872 135.521 175.837 135.521 177.092Z" fill="white"/>
<g clip-path="url(#clip0)">
<path d="M82.5 92.3713C78.7024 92.3713 75.613 95.4616 75.613 99.2584C75.613 103.055 78.7024 106.145 82.5 106.145C86.2977 106.145 89.387 103.055 89.387 99.2584C89.387 95.4616 86.2977 92.3713 82.5 92.3713ZM82.5 104.178C79.7875 104.178 77.5808 101.971 77.5808 99.2584C77.5808 96.5459 79.7875 94.3391 82.5 94.3391C85.2125 94.3391 87.4193 96.5459 87.4193 99.2584C87.4193 101.971 85.2125 104.178 82.5 104.178Z" fill="#7B7B7B"/>
<path d="M61.8389 85.4841H55.9358V87.4518H61.8389V85.4841Z" fill="#7B7B7B"/>
<path d="M61.8389 89.4197H55.9358V91.3874H61.8389V89.4197Z" fill="#7B7B7B"/>
<path d="M109.064 85.4841H103.161V87.4518H109.064V85.4841Z" fill="#7B7B7B"/>
<path d="M109.064 89.4197H103.161V91.3874H109.064V89.4197Z" fill="#7B7B7B"/>
<path d="M107.096 63.2964H94.2823C94.8038 62.0548 95.1196 60.7276 95.2268 59.361H108.08C110.792 59.361 112.999 57.1542 112.999 54.4417C112.999 51.7292 110.792 49.5224 108.08 49.5224H91.7085C91.5934 49.4033 91.4891 49.2774 91.3691 49.1613C88.8416 46.7282 85.5132 45.462 82.0008 45.5958C78.6527 45.7247 75.592 47.2211 73.3615 49.5224H60.6767L53.5604 52.1906C52.6267 52.5399 52 53.445 52 54.4417C52 55.4383 52.6267 56.3435 53.5594 56.6927L60.6767 59.361H69.7675C69.8738 60.7315 70.1994 62.0548 70.7199 63.2964H57.9032V73.135H52V86.909H65.774V73.135H59.8709V65.2641H71.6772V65.1323C72.6689 66.7173 73.9892 68.1035 75.6126 69.1435V70.1834H73.6449V72.1511H75.6126V74.1189H73.6449V76.0866H75.6913C75.8399 77.1177 76.2118 78.0769 76.7657 78.9093L74.0316 77.0517L68.7059 82.3764L70.8635 85.5513C70.7405 85.8199 70.6274 86.0914 70.5251 86.362L66.7579 87.0792V94.6097L70.5251 95.3269C70.6274 95.5975 70.7405 95.869 70.8635 96.1376L68.7059 99.3125L74.0316 104.637L77.2065 102.481C77.476 102.605 77.7466 102.718 78.0162 102.82L78.7344 106.586H86.2649L86.9831 102.82C87.2527 102.718 87.5232 102.605 87.7928 102.481L90.9677 104.637L96.2933 99.3125L94.1357 96.1376C94.2587 95.869 94.3719 95.5975 94.4742 95.3269L98.2414 94.6097V87.0792L94.4742 86.362C94.3719 86.0914 94.2587 85.8199 94.1357 85.5513L96.2933 82.3764L90.9677 77.0517L88.2336 78.9093C88.7875 78.0779 89.1584 77.1186 89.307 76.0876H91.3544V74.1198H89.3866V72.1521H91.3544V70.1844H89.3866V69.1435C91.0061 68.1055 92.3284 66.7153 93.3221 65.1244V65.2641H105.128V73.135H99.2252V86.909H112.999V73.135H107.096V63.2964ZM59.8709 56.9574L54.2501 54.85C54.0809 54.786 53.9677 54.6227 53.9677 54.4417C53.9677 54.2606 54.0809 54.0973 54.2511 54.0334L59.8709 51.9259V56.9574ZM63.8063 75.1027V84.9413H53.9677V75.1027H63.8063ZM99.2252 57.3933H95.2406C95.1904 56.7242 95.0881 56.068 94.9366 55.4255H99.2252V57.3933ZM105.128 51.4901H108.08C109.707 51.4901 111.032 52.8144 111.032 54.4417C111.032 56.069 109.707 57.3933 108.08 57.3933H105.128V51.4901ZM101.193 51.4901H103.161V57.3933H101.193V51.4901ZM99.2252 51.4901V53.4578H94.3109C94.0255 52.7731 93.6713 52.1178 93.268 51.4901H99.2252ZM69.7626 57.3933H61.8386V55.4255H70.0745C69.9171 56.066 69.8157 56.7232 69.7626 57.3933ZM70.6933 53.5552V53.4578H61.8386V51.4901H71.7933C71.3663 52.1424 70.9973 52.8321 70.6933 53.5552ZM90.7276 79.594L93.751 82.6164L91.8601 85.3978L92.1267 85.9163C92.3992 86.4496 92.6255 86.9897 92.7977 87.523L92.9767 88.0779L96.2737 88.7065V92.9824L92.9758 93.6111L92.7967 94.166C92.6245 94.6992 92.3992 95.2394 92.1257 95.7726L91.8591 96.2911L93.7501 99.0725L90.7267 102.095L87.9453 100.205L87.4258 100.472C86.8886 100.746 86.3485 100.972 85.8202 101.143L85.2653 101.323L84.6376 104.618H80.3617L79.733 101.322L79.1781 101.142C78.6498 100.971 78.1096 100.746 77.5725 100.471L77.053 100.204L74.2716 102.094L71.2482 99.0715L73.1392 96.2901L72.8726 95.7716C72.6 95.2384 72.3738 94.6982 72.2016 94.165L72.0225 93.6101L68.7256 92.9824V88.7065L72.0235 88.0779L72.2026 87.523C72.3747 86.9897 72.6 86.4496 72.8736 85.9163L73.1402 85.3978L71.2492 82.6164L74.2726 79.594L77.055 81.484L77.5744 81.2174C77.9099 81.0442 78.2503 80.8967 78.5898 80.7638C79.6996 81.5352 81.0465 81.9897 82.4996 81.9897C83.9528 81.9897 85.2997 81.5352 86.4115 80.7638C86.7489 80.8967 87.0883 81.0442 87.4278 81.2174L87.9463 81.484L90.7276 79.594ZM87.4189 72.1511V74.1189H77.5803V72.1511H87.4189ZM79.5481 60.3448H77.5803C76.4951 60.3448 75.6126 59.4623 75.6126 58.3771C75.6126 57.2919 76.4951 56.4094 77.5803 56.4094C78.6655 56.4094 79.5481 57.2919 79.5481 58.3771V60.3448ZM81.5158 70.1834V62.3125H83.4835V70.1834H81.5158ZM87.3196 76.0866C86.8621 78.3288 84.8747 80.022 82.4996 80.022C80.1246 80.022 78.1372 78.3288 77.6797 76.0866H87.3196ZM87.9099 67.7395L87.4189 68.0239V70.1834H85.4512V62.3125H87.4189C89.5893 62.3125 91.3544 60.5475 91.3544 58.3771C91.3544 56.2067 89.5893 54.4417 87.4189 54.4417C85.2485 54.4417 83.4835 56.2067 83.4835 58.3771V60.3448H81.5158V58.3771C81.5158 56.2067 79.7507 54.4417 77.5803 54.4417C75.4099 54.4417 73.6449 56.2067 73.6449 58.3771C73.6449 60.5475 75.4099 62.3125 77.5803 62.3125H79.5481V70.1834H77.5803V68.0239L77.0894 67.7395C73.6626 65.7541 71.5896 62.0695 71.6801 58.1233C71.809 52.5143 76.4715 47.777 82.0746 47.5635C82.2182 47.5566 82.3599 47.5547 82.5026 47.5547C85.3184 47.5547 87.9689 48.6202 90.0045 50.579C92.1434 52.6383 93.3221 55.4078 93.3221 58.3771C93.3221 62.2181 91.2481 65.8053 87.9099 67.7395ZM85.4512 60.3448V58.3771C85.4512 57.2919 86.3337 56.4094 87.4189 56.4094C88.5041 56.4094 89.3866 57.2919 89.3866 58.3771C89.3866 59.4623 88.5041 60.3448 87.4189 60.3448H85.4512ZM111.032 75.1027V84.9413H101.193V75.1027H111.032Z" fill="#7B7B7B"/>
</g>
<defs>
<filter id="filter0_d" x="0" y="0" width="172" height="168" filterUnits="userSpaceOnUse" color-interpolation-filters="sRGB">
<feFlood flood-opacity="0" result="BackgroundImageFix"/>
<feColorMatrix in="SourceAlpha" type="matrix" values="0 0 0 0 0 0 0 0 0 0 0 0 0 0 0 0 0 0 127 0"/>
<feOffset dx="3" dy="9"/>
<feGaussianBlur stdDeviation="4"/>
<feColorMatrix type="matrix" values="0 0 0 0 0 0 0 0 0 0 0 0 0 0 0 0 0 0 0.122 0"/>
<feBlend mode="normal" in2="BackgroundImageFix" result="effect1_dropShadow"/>
<feBlend mode="normal" in="SourceGraphic" in2="effect1_dropShadow" result="shape"/>
</filter>
<clipPath id="clip0">
<rect width="61" height="61" fill="white" transform="translate(52 54)"/>
</clipPath>
</defs>
</svg>
