<svg width="163" height="52" viewBox="0 0 163 52" fill="none" xmlns="http://www.w3.org/2000/svg">
<rect width="163" height="52" rx="25" fill="white"/>
<path d="M54.4979 17.6738H50.7802V23H49.6903V10.2031H53.8475C55.2128 10.2031 56.2792 10.5342 57.0468 11.1963C57.8143 11.8584 58.1981 12.7842 58.1981 13.9736C58.1981 14.7939 57.9579 15.5176 57.4774 16.1445C56.997 16.7715 56.3524 17.2051 55.5438 17.4453L58.743 22.8857V23H57.5917L54.4979 17.6738ZM50.7802 16.751H54.0936C55.0018 16.751 55.7313 16.4932 56.2821 15.9775C56.8329 15.4619 57.1083 14.7939 57.1083 13.9736C57.1083 13.0713 56.8212 12.3711 56.247 11.873C55.6727 11.375 54.8671 11.126 53.83 11.126H50.7802V16.751ZM64.759 23.1758C63.9504 23.1758 63.218 22.9766 62.5617 22.5781C61.9113 22.1797 61.4045 21.626 61.0412 20.917C60.6779 20.2021 60.4963 19.4023 60.4963 18.5176V18.1396C60.4963 17.2256 60.6721 16.4023 61.0236 15.6699C61.3811 14.9375 61.8762 14.3633 62.509 13.9473C63.1418 13.5254 63.8273 13.3145 64.5656 13.3145C65.7199 13.3145 66.634 13.71 67.3078 14.501C67.9875 15.2861 68.3273 16.3613 68.3273 17.7266V18.3154H61.5422V18.5176C61.5422 19.5957 61.8498 20.4951 62.465 21.2158C63.0861 21.9307 63.8654 22.2881 64.8029 22.2881C65.3654 22.2881 65.8605 22.1855 66.2883 21.9805C66.7219 21.7754 67.1145 21.4473 67.466 20.9961L68.1252 21.4971C67.3518 22.6162 66.2297 23.1758 64.759 23.1758ZM64.5656 14.2109C63.7746 14.2109 63.1066 14.501 62.5617 15.0811C62.0227 15.6611 61.6945 16.4404 61.5773 17.4189H67.2814V17.3047C67.2521 16.3906 66.9914 15.6465 66.4992 15.0723C66.007 14.498 65.3625 14.2109 64.5656 14.2109ZM71.5132 13.4902L71.5484 15.0371C71.8999 14.4629 72.3394 14.0322 72.8667 13.7451C73.3941 13.458 73.98 13.3145 74.6245 13.3145C76.1245 13.3145 77.0767 13.9297 77.481 15.1602C77.8208 14.5684 78.2749 14.1143 78.8433 13.7979C79.4116 13.4756 80.0386 13.3145 80.7241 13.3145C82.7632 13.3145 83.8032 14.4277 83.8443 16.6543V23H82.7896V16.7334C82.7837 15.8838 82.5991 15.2539 82.2359 14.8438C81.8784 14.4336 81.2925 14.2285 80.478 14.2285C79.7222 14.2402 79.0835 14.4863 78.562 14.9668C78.0405 15.4414 77.7505 16.0215 77.6919 16.707V23H76.6372V16.6543C76.6314 15.8398 76.438 15.2334 76.0571 14.835C75.6821 14.4307 75.1021 14.2285 74.3169 14.2285C73.6548 14.2285 73.0864 14.4189 72.6118 14.7998C72.1372 15.1748 71.7857 15.7344 71.5571 16.4785V23H70.5025V13.4902H71.5132ZM86.1161 18.1045C86.1161 17.1904 86.2918 16.3672 86.6434 15.6348C87.0008 14.9023 87.5018 14.334 88.1463 13.9297C88.7967 13.5195 89.5321 13.3145 90.3524 13.3145C91.618 13.3145 92.6434 13.7598 93.4286 14.6504C94.2137 15.5352 94.6063 16.71 94.6063 18.1748V18.3945C94.6063 19.3145 94.4276 20.1436 94.0702 20.8818C93.7186 21.6143 93.2206 22.1797 92.576 22.5781C91.9315 22.9766 91.1961 23.1758 90.37 23.1758C89.1102 23.1758 88.0848 22.7334 87.2938 21.8486C86.5086 20.958 86.1161 19.7803 86.1161 18.3154V18.1045ZM87.1707 18.3945C87.1707 19.5312 87.4637 20.4658 88.0497 21.1982C88.6414 21.9248 89.4149 22.2881 90.37 22.2881C91.3192 22.2881 92.0868 21.9248 92.6727 21.1982C93.2645 20.4658 93.5604 19.502 93.5604 18.3066V18.1045C93.5604 17.3779 93.4256 16.7129 93.1561 16.1094C92.8866 15.5059 92.5086 15.04 92.0223 14.7119C91.536 14.3779 90.9793 14.2109 90.3524 14.2109C89.4149 14.2109 88.6502 14.5801 88.0584 15.3184C87.4666 16.0508 87.1707 17.0117 87.1707 18.2012V18.3945ZM99.7873 21.5498L102.679 13.4902H103.76L100.209 23H99.3566L95.7882 13.4902H96.8693L99.7873 21.5498ZM109.231 23.1758C108.422 23.1758 107.69 22.9766 107.034 22.5781C106.383 22.1797 105.876 21.626 105.513 20.917C105.15 20.2021 104.968 19.4023 104.968 18.5176V18.1396C104.968 17.2256 105.144 16.4023 105.496 15.6699C105.853 14.9375 106.348 14.3633 106.981 13.9473C107.614 13.5254 108.299 13.3145 109.038 13.3145C110.192 13.3145 111.106 13.71 111.78 14.501C112.459 15.2861 112.799 16.3613 112.799 17.7266V18.3154H106.014V18.5176C106.014 19.5957 106.322 20.4951 106.937 21.2158C107.558 21.9307 108.337 22.2881 109.275 22.2881C109.837 22.2881 110.333 22.1855 110.76 21.9805C111.194 21.7754 111.586 21.4473 111.938 20.9961L112.597 21.4971C111.824 22.6162 110.702 23.1758 109.231 23.1758ZM109.038 14.2109C108.247 14.2109 107.579 14.501 107.034 15.0811C106.495 15.6611 106.166 16.4404 106.049 17.4189H111.753V17.3047C111.724 16.3906 111.463 15.6465 110.971 15.0723C110.479 14.498 109.834 14.2109 109.038 14.2109ZM119.422 14.3867C119.199 14.3457 118.962 14.3252 118.71 14.3252C118.054 14.3252 117.497 14.5098 117.04 14.8789C116.589 15.2422 116.266 15.7725 116.073 16.4697V23H115.027V13.4902H116.055L116.073 15.002C116.63 13.877 117.523 13.3145 118.754 13.3145C119.047 13.3145 119.278 13.3525 119.448 13.4287L119.422 14.3867ZM41.4662 32.3867C41.2436 32.3457 41.0062 32.3252 40.7543 32.3252C40.098 32.3252 39.5414 32.5098 39.0844 32.8789C38.6332 33.2422 38.3109 33.7725 38.1176 34.4697V41H37.0717V31.4902H38.1L38.1176 33.002C38.6742 31.877 39.5678 31.3145 40.7982 31.3145C41.0912 31.3145 41.3227 31.3525 41.4926 31.4287L41.4662 32.3867ZM46.823 41.1758C46.0144 41.1758 45.282 40.9766 44.6257 40.5781C43.9753 40.1797 43.4685 39.626 43.1052 38.917C42.7419 38.2021 42.5603 37.4023 42.5603 36.5176V36.1396C42.5603 35.2256 42.7361 34.4023 43.0876 33.6699C43.445 32.9375 43.9402 32.3633 44.573 31.9473C45.2058 31.5254 45.8913 31.3145 46.6296 31.3145C47.7839 31.3145 48.698 31.71 49.3718 32.501C50.0515 33.2861 50.3913 34.3613 50.3913 35.7266V36.3154H43.6062V36.5176C43.6062 37.5957 43.9138 38.4951 44.529 39.2158C45.1501 39.9307 45.9294 40.2881 46.8669 40.2881C47.4294 40.2881 47.9245 40.1855 48.3523 39.9805C48.7859 39.7754 49.1784 39.4473 49.53 38.9961L50.1892 39.4971C49.4157 40.6162 48.2937 41.1758 46.823 41.1758ZM46.6296 32.2109C45.8386 32.2109 45.1706 32.501 44.6257 33.0811C44.0866 33.6611 43.7585 34.4404 43.6413 35.4189H49.3454V35.3047C49.3161 34.3906 49.0554 33.6465 48.5632 33.0723C48.071 32.498 47.4265 32.2109 46.6296 32.2109ZM58.3145 38.583C58.3145 38.0615 58.1036 37.6426 57.6817 37.3262C57.2657 37.0098 56.6358 36.7637 55.792 36.5879C54.9483 36.4062 54.292 36.2012 53.8233 35.9727C53.3604 35.7383 53.0147 35.4541 52.7862 35.1201C52.5635 34.7861 52.4522 34.3818 52.4522 33.9072C52.4522 33.1572 52.7657 32.5391 53.3926 32.0527C54.0196 31.5605 54.8223 31.3145 55.8008 31.3145C56.8614 31.3145 57.711 31.5781 58.3496 32.1055C58.9942 32.627 59.3164 33.3096 59.3164 34.1533H58.2618C58.2618 33.5967 58.0274 33.1338 57.5586 32.7646C57.0957 32.3955 56.5098 32.2109 55.8008 32.2109C55.1094 32.2109 54.5528 32.3662 54.1309 32.6768C53.7149 32.9814 53.5069 33.3799 53.5069 33.8721C53.5069 34.3467 53.6797 34.7158 54.0254 34.9795C54.377 35.2373 55.0127 35.4746 55.9327 35.6914C56.8584 35.9082 57.5498 36.1396 58.0069 36.3857C58.4698 36.6318 58.8125 36.9277 59.0352 37.2734C59.2579 37.6191 59.3692 38.0381 59.3692 38.5303C59.3692 39.333 59.044 39.9746 58.3936 40.4551C57.7491 40.9355 56.9053 41.1758 55.8623 41.1758C54.7549 41.1758 53.8555 40.9092 53.1641 40.376C52.4786 39.8369 52.1358 39.1572 52.1358 38.3369H53.1905C53.2315 38.9521 53.4893 39.4326 53.9639 39.7783C54.4444 40.1182 55.0772 40.2881 55.8623 40.2881C56.5948 40.2881 57.1866 40.127 57.6377 39.8047C58.0889 39.4824 58.3145 39.0752 58.3145 38.583ZM69.5687 36.3418C69.5687 37.8242 69.2406 39.002 68.5843 39.875C67.9281 40.7422 67.0492 41.1758 65.9476 41.1758C64.6468 41.1758 63.6507 40.7188 62.9593 39.8047V44.6562H61.9134V31.4902H62.889L62.9418 32.835C63.6273 31.8213 64.6205 31.3145 65.9212 31.3145C67.058 31.3145 67.9486 31.7451 68.5931 32.6064C69.2435 33.4678 69.5687 34.6631 69.5687 36.1924V36.3418ZM68.514 36.1572C68.514 34.9443 68.265 33.9863 67.767 33.2832C67.2689 32.5801 66.5746 32.2285 65.6839 32.2285C65.0394 32.2285 64.4857 32.3838 64.0228 32.6943C63.5599 33.0049 63.2054 33.4561 62.9593 34.0479V38.6094C63.2113 39.1543 63.5716 39.5703 64.0404 39.8574C64.5091 40.1445 65.0629 40.2881 65.7015 40.2881C66.5863 40.2881 67.2748 39.9365 67.767 39.2334C68.265 38.5244 68.514 37.499 68.514 36.1572ZM71.5065 36.1045C71.5065 35.1904 71.6823 34.3672 72.0339 33.6348C72.3913 32.9023 72.8923 32.334 73.5368 31.9297C74.1872 31.5195 74.9225 31.3145 75.7429 31.3145C77.0085 31.3145 78.0339 31.7598 78.819 32.6504C79.6042 33.5352 79.9968 34.71 79.9968 36.1748V36.3945C79.9968 37.3145 79.818 38.1436 79.4606 38.8818C79.1091 39.6143 78.611 40.1797 77.9665 40.5781C77.322 40.9766 76.5866 41.1758 75.7604 41.1758C74.5007 41.1758 73.4753 40.7334 72.6843 39.8486C71.8991 38.958 71.5065 37.7803 71.5065 36.3154V36.1045ZM72.5612 36.3945C72.5612 37.5312 72.8542 38.4658 73.4401 39.1982C74.0319 39.9248 74.8054 40.2881 75.7604 40.2881C76.7096 40.2881 77.4772 39.9248 78.0632 39.1982C78.655 38.4658 78.9509 37.502 78.9509 36.3066V36.1045C78.9509 35.3779 78.8161 34.7129 78.5466 34.1094C78.277 33.5059 77.8991 33.04 77.4128 32.7119C76.9264 32.3779 76.3698 32.2109 75.7429 32.2109C74.8054 32.2109 74.0407 32.5801 73.4489 33.3184C72.8571 34.0508 72.5612 35.0117 72.5612 36.2012V36.3945ZM83.3584 31.4902L83.3936 33.1162C83.751 32.5303 84.1963 32.085 84.7295 31.7803C85.2627 31.4697 85.8516 31.3145 86.4961 31.3145C87.5156 31.3145 88.2744 31.6016 88.7725 32.1758C89.2705 32.75 89.5225 33.6113 89.5283 34.7598V41H88.4824V34.751C88.4766 33.9014 88.2949 33.2686 87.9375 32.8525C87.5859 32.4365 87.0205 32.2285 86.2412 32.2285C85.5908 32.2285 85.0137 32.4336 84.5098 32.8438C84.0117 33.248 83.6426 33.7959 83.4023 34.4873V41H82.3564V31.4902H83.3584ZM98.1282 38.583C98.1282 38.0615 97.9173 37.6426 97.4954 37.3262C97.0794 37.0098 96.4495 36.7637 95.6058 36.5879C94.762 36.4062 94.1058 36.2012 93.637 35.9727C93.1741 35.7383 92.8284 35.4541 92.5999 35.1201C92.3773 34.7861 92.2659 34.3818 92.2659 33.9072C92.2659 33.1572 92.5794 32.5391 93.2064 32.0527C93.8333 31.5605 94.6361 31.3145 95.6146 31.3145C96.6751 31.3145 97.5247 31.5781 98.1634 32.1055C98.8079 32.627 99.1302 33.3096 99.1302 34.1533H98.0755C98.0755 33.5967 97.8411 33.1338 97.3724 32.7646C96.9095 32.3955 96.3236 32.2109 95.6146 32.2109C94.9232 32.2109 94.3665 32.3662 93.9446 32.6768C93.5286 32.9814 93.3206 33.3799 93.3206 33.8721C93.3206 34.3467 93.4935 34.7158 93.8392 34.9795C94.1907 35.2373 94.8265 35.4746 95.7464 35.6914C96.6722 35.9082 97.3636 36.1396 97.8206 36.3857C98.2835 36.6318 98.6263 36.9277 98.8489 37.2734C99.0716 37.6191 99.1829 38.0381 99.1829 38.5303C99.1829 39.333 98.8577 39.9746 98.2073 40.4551C97.5628 40.9355 96.7191 41.1758 95.6761 41.1758C94.5687 41.1758 93.6693 40.9092 92.9779 40.376C92.2923 39.8369 91.9495 39.1572 91.9495 38.3369H93.0042C93.0452 38.9521 93.303 39.4326 93.7777 39.7783C94.2581 40.1182 94.8909 40.2881 95.6761 40.2881C96.4085 40.2881 97.0003 40.127 97.4515 39.8047C97.9027 39.4824 98.1282 39.0752 98.1282 38.583ZM107.739 41C107.633 40.7012 107.566 40.2588 107.537 39.6729C107.168 40.1533 106.696 40.5254 106.122 40.7891C105.553 41.0469 104.95 41.1758 104.311 41.1758C103.397 41.1758 102.656 40.9209 102.088 40.4111C101.525 39.9014 101.244 39.2568 101.244 38.4775C101.244 37.5518 101.628 36.8193 102.395 36.2803C103.169 35.7412 104.244 35.4717 105.621 35.4717H107.528V34.3906C107.528 33.7109 107.317 33.1777 106.895 32.791C106.479 32.3984 105.87 32.2021 105.067 32.2021C104.335 32.2021 103.728 32.3896 103.248 32.7646C102.767 33.1396 102.527 33.5908 102.527 34.1182L101.472 34.1094C101.472 33.3535 101.824 32.7002 102.527 32.1494C103.23 31.5928 104.094 31.3145 105.12 31.3145C106.18 31.3145 107.015 31.5811 107.625 32.1143C108.24 32.6416 108.556 33.3799 108.574 34.3291V38.8291C108.574 39.749 108.671 40.4375 108.864 40.8945V41H107.739ZM104.434 40.2441C105.137 40.2441 105.764 40.0742 106.315 39.7344C106.872 39.3945 107.276 38.9404 107.528 38.3721V36.2803H105.647C104.598 36.292 103.778 36.4854 103.186 36.8604C102.594 37.2295 102.298 37.7393 102.298 38.3896C102.298 38.9229 102.495 39.3652 102.887 39.7168C103.286 40.0684 103.801 40.2441 104.434 40.2441ZM106.508 27.5H107.783L105.753 29.9609H104.83L106.508 27.5ZM114.388 39.5498L117.279 31.4902H118.36L114.81 41H113.957L110.389 31.4902H111.47L114.388 39.5498ZM123.831 41.1758C123.023 41.1758 122.29 40.9766 121.634 40.5781C120.984 40.1797 120.477 39.626 120.114 38.917C119.75 38.2021 119.569 37.4023 119.569 36.5176V36.1396C119.569 35.2256 119.744 34.4023 120.096 33.6699C120.453 32.9375 120.949 32.3633 121.581 31.9473C122.214 31.5254 122.9 31.3145 123.638 31.3145C124.792 31.3145 125.706 31.71 126.38 32.501C127.06 33.2861 127.4 34.3613 127.4 35.7266V36.3154H120.615V36.5176C120.615 37.5957 120.922 38.4951 121.537 39.2158C122.158 39.9307 122.938 40.2881 123.875 40.2881C124.438 40.2881 124.933 40.1855 125.361 39.9805C125.794 39.7754 126.187 39.4473 126.538 38.9961L127.198 39.4971C126.424 40.6162 125.302 41.1758 123.831 41.1758ZM123.638 32.2109C122.847 32.2109 122.179 32.501 121.634 33.0811C121.095 33.6611 120.767 34.4404 120.65 35.4189H126.354V35.3047C126.324 34.3906 126.064 33.6465 125.572 33.0723C125.079 32.498 124.435 32.2109 123.638 32.2109ZM130.805 41H129.751V27.5H130.805V41Z" fill="#7B7B7B"/>
</svg>
