<svg width="163" height="52" viewBox="0 0 163 52" fill="none" xmlns="http://www.w3.org/2000/svg">
<rect width="163" height="52" rx="25" fill="white"/>
<path d="M54.5552 19.4141H48.7457L47.4273 23H46.2935L51.1363 10.2031H52.1646L57.0074 23H55.8824L54.5552 19.4141ZM49.0796 18.4912H54.2125L51.6461 11.5215L49.0796 18.4912ZM58.4091 18.1572C58.4091 16.6807 58.7372 15.5059 59.3934 14.6328C60.0555 13.7539 60.952 13.3145 62.0829 13.3145C63.3661 13.3145 64.3446 13.8213 65.0184 14.835V9.5H66.0643V23H65.08L65.036 21.7344C64.3622 22.6953 63.372 23.1758 62.0653 23.1758C60.9696 23.1758 60.0848 22.7363 59.411 21.8574C58.743 20.9727 58.4091 19.7803 58.4091 18.2803V18.1572ZM59.4725 18.3418C59.4725 19.5547 59.7157 20.5127 60.202 21.2158C60.6884 21.9131 61.3739 22.2617 62.2587 22.2617C63.5536 22.2617 64.4735 21.6904 65.0184 20.5479V16.083C64.4735 14.8467 63.5595 14.2285 62.2762 14.2285C61.3915 14.2285 60.703 14.5771 60.2108 15.2744C59.7186 15.9658 59.4725 16.9883 59.4725 18.3418ZM70.1906 23H69.1359V13.4902H70.1906V23ZM68.9514 10.7393C68.9514 10.54 69.0158 10.373 69.1447 10.2383C69.2736 10.0977 69.4494 10.0273 69.6721 10.0273C69.8947 10.0273 70.0705 10.0977 70.1994 10.2383C70.3342 10.373 70.4016 10.54 70.4016 10.7393C70.4016 10.9385 70.3342 11.1055 70.1994 11.2402C70.0705 11.375 69.8947 11.4424 69.6721 11.4424C69.4494 11.4424 69.2736 11.375 69.1447 11.2402C69.0158 11.1055 68.9514 10.9385 68.9514 10.7393ZM76.7515 22.2881C77.4839 22.2881 78.0962 22.083 78.5884 21.6729C79.0864 21.2568 79.356 20.7207 79.397 20.0645H80.4077C80.3784 20.6445 80.1968 21.1748 79.8628 21.6553C79.5288 22.1299 79.0835 22.502 78.5269 22.7715C77.9761 23.041 77.3843 23.1758 76.7515 23.1758C75.5034 23.1758 74.5132 22.7422 73.7808 21.875C73.0542 21.0078 72.6909 19.8418 72.6909 18.377V18.0605C72.6909 17.123 72.855 16.2939 73.1831 15.5732C73.5112 14.8525 73.98 14.2959 74.5894 13.9033C75.2046 13.5107 75.9224 13.3145 76.7427 13.3145C77.7857 13.3145 78.6441 13.625 79.3179 14.2461C79.9976 14.8672 80.3609 15.6846 80.4077 16.6982H79.397C79.3501 15.9541 79.0806 15.3535 78.5884 14.8965C78.1021 14.4395 77.4868 14.2109 76.7427 14.2109C75.7935 14.2109 75.0552 14.5537 74.5278 15.2393C74.0064 15.9248 73.7456 16.8857 73.7456 18.1221V18.4297C73.7456 19.6426 74.0064 20.5889 74.5278 21.2686C75.0552 21.9482 75.7964 22.2881 76.7515 22.2881ZM83.8748 23H82.8202V13.4902H83.8748V23ZM82.6356 10.7393C82.6356 10.54 82.7 10.373 82.8289 10.2383C82.9579 10.0977 83.1336 10.0273 83.3563 10.0273C83.5789 10.0273 83.7547 10.0977 83.8836 10.2383C84.0184 10.373 84.0858 10.54 84.0858 10.7393C84.0858 10.9385 84.0184 11.1055 83.8836 11.2402C83.7547 11.375 83.5789 11.4424 83.3563 11.4424C83.1336 11.4424 82.9579 11.375 82.8289 11.2402C82.7 11.1055 82.6356 10.9385 82.6356 10.7393ZM86.34 18.1045C86.34 17.1904 86.5158 16.3672 86.8673 15.6348C87.2248 14.9023 87.7257 14.334 88.3703 13.9297C89.0207 13.5195 89.756 13.3145 90.5763 13.3145C91.8419 13.3145 92.8673 13.7598 93.6525 14.6504C94.4377 15.5352 94.8302 16.71 94.8302 18.1748V18.3945C94.8302 19.3145 94.6515 20.1436 94.2941 20.8818C93.9425 21.6143 93.4445 22.1797 92.8 22.5781C92.1554 22.9766 91.4201 23.1758 90.5939 23.1758C89.3341 23.1758 88.3087 22.7334 87.5177 21.8486C86.7326 20.958 86.34 19.7803 86.34 18.3154V18.1045ZM87.3947 18.3945C87.3947 19.5312 87.6877 20.4658 88.2736 21.1982C88.8654 21.9248 89.6388 22.2881 90.5939 22.2881C91.5431 22.2881 92.3107 21.9248 92.8966 21.1982C93.4884 20.4658 93.7843 19.502 93.7843 18.3066V18.1045C93.7843 17.3779 93.6496 16.7129 93.38 16.1094C93.1105 15.5059 92.7326 15.04 92.2462 14.7119C91.7599 14.3779 91.2033 14.2109 90.5763 14.2109C89.6388 14.2109 88.8742 14.5801 88.2824 15.3184C87.6906 16.0508 87.3947 17.0117 87.3947 18.2012V18.3945ZM98.1919 13.4902L98.227 15.1162C98.5845 14.5303 99.0298 14.085 99.563 13.7803C100.096 13.4697 100.685 13.3145 101.33 13.3145C102.349 13.3145 103.108 13.6016 103.606 14.1758C104.104 14.75 104.356 15.6113 104.362 16.7598V23H103.316V16.751C103.31 15.9014 103.128 15.2686 102.771 14.8525C102.419 14.4365 101.854 14.2285 101.075 14.2285C100.424 14.2285 99.8472 14.4336 99.3432 14.8438C98.8452 15.248 98.4761 15.7959 98.2358 16.4873V23H97.1899V13.4902H98.1919ZM113.269 23C113.164 22.7012 113.096 22.2588 113.067 21.6729C112.698 22.1533 112.226 22.5254 111.652 22.7891C111.084 23.0469 110.48 23.1758 109.842 23.1758C108.928 23.1758 108.186 22.9209 107.618 22.4111C107.055 21.9014 106.774 21.2568 106.774 20.4775C106.774 19.5518 107.158 18.8193 107.926 18.2803C108.699 17.7412 109.774 17.4717 111.151 17.4717H113.058V16.3906C113.058 15.7109 112.847 15.1777 112.426 14.791C112.01 14.3984 111.4 14.2021 110.597 14.2021C109.865 14.2021 109.259 14.3896 108.778 14.7646C108.298 15.1396 108.057 15.5908 108.057 16.1182L107.003 16.1094C107.003 15.3535 107.354 14.7002 108.057 14.1494C108.761 13.5928 109.625 13.3145 110.65 13.3145C111.711 13.3145 112.546 13.5811 113.155 14.1143C113.77 14.6416 114.087 15.3799 114.104 16.3291V20.8291C114.104 21.749 114.201 22.4375 114.394 22.8945V23H113.269ZM109.965 22.2441C110.668 22.2441 111.295 22.0742 111.846 21.7344C112.402 21.3945 112.806 20.9404 113.058 20.3721V18.2803H111.178C110.129 18.292 109.308 18.4854 108.717 18.8604C108.125 19.2295 107.829 19.7393 107.829 20.3896C107.829 20.9229 108.025 21.3652 108.418 21.7168C108.816 22.0684 109.332 22.2441 109.965 22.2441ZM121.491 14.3867C121.269 14.3457 121.031 14.3252 120.779 14.3252C120.123 14.3252 119.567 14.5098 119.109 14.8789C118.658 15.2422 118.336 15.7725 118.143 16.4697V23H117.097V13.4902H118.125L118.143 15.002C118.699 13.877 119.593 13.3145 120.823 13.3145C121.116 13.3145 121.348 13.3525 121.518 13.4287L121.491 14.3867ZM41.4662 32.3867C41.2436 32.3457 41.0062 32.3252 40.7543 32.3252C40.098 32.3252 39.5414 32.5098 39.0844 32.8789C38.6332 33.2422 38.3109 33.7725 38.1176 34.4697V41H37.0717V31.4902H38.1L38.1176 33.002C38.6742 31.877 39.5678 31.3145 40.7982 31.3145C41.0912 31.3145 41.3227 31.3525 41.4926 31.4287L41.4662 32.3867ZM46.823 41.1758C46.0144 41.1758 45.282 40.9766 44.6257 40.5781C43.9753 40.1797 43.4685 39.626 43.1052 38.917C42.7419 38.2021 42.5603 37.4023 42.5603 36.5176V36.1396C42.5603 35.2256 42.7361 34.4023 43.0876 33.6699C43.445 32.9375 43.9402 32.3633 44.573 31.9473C45.2058 31.5254 45.8913 31.3145 46.6296 31.3145C47.7839 31.3145 48.698 31.71 49.3718 32.501C50.0515 33.2861 50.3913 34.3613 50.3913 35.7266V36.3154H43.6062V36.5176C43.6062 37.5957 43.9138 38.4951 44.529 39.2158C45.1501 39.9307 45.9294 40.2881 46.8669 40.2881C47.4294 40.2881 47.9245 40.1855 48.3523 39.9805C48.7859 39.7754 49.1784 39.4473 49.53 38.9961L50.1892 39.4971C49.4157 40.6162 48.2937 41.1758 46.823 41.1758ZM46.6296 32.2109C45.8386 32.2109 45.1706 32.501 44.6257 33.0811C44.0866 33.6611 43.7585 34.4404 43.6413 35.4189H49.3454V35.3047C49.3161 34.3906 49.0554 33.6465 48.5632 33.0723C48.071 32.498 47.4265 32.2109 46.6296 32.2109ZM58.3145 38.583C58.3145 38.0615 58.1036 37.6426 57.6817 37.3262C57.2657 37.0098 56.6358 36.7637 55.792 36.5879C54.9483 36.4062 54.292 36.2012 53.8233 35.9727C53.3604 35.7383 53.0147 35.4541 52.7862 35.1201C52.5635 34.7861 52.4522 34.3818 52.4522 33.9072C52.4522 33.1572 52.7657 32.5391 53.3926 32.0527C54.0196 31.5605 54.8223 31.3145 55.8008 31.3145C56.8614 31.3145 57.711 31.5781 58.3496 32.1055C58.9942 32.627 59.3164 33.3096 59.3164 34.1533H58.2618C58.2618 33.5967 58.0274 33.1338 57.5586 32.7646C57.0957 32.3955 56.5098 32.2109 55.8008 32.2109C55.1094 32.2109 54.5528 32.3662 54.1309 32.6768C53.7149 32.9814 53.5069 33.3799 53.5069 33.8721C53.5069 34.3467 53.6797 34.7158 54.0254 34.9795C54.377 35.2373 55.0127 35.4746 55.9327 35.6914C56.8584 35.9082 57.5498 36.1396 58.0069 36.3857C58.4698 36.6318 58.8125 36.9277 59.0352 37.2734C59.2579 37.6191 59.3692 38.0381 59.3692 38.5303C59.3692 39.333 59.044 39.9746 58.3936 40.4551C57.7491 40.9355 56.9053 41.1758 55.8623 41.1758C54.7549 41.1758 53.8555 40.9092 53.1641 40.376C52.4786 39.8369 52.1358 39.1572 52.1358 38.3369H53.1905C53.2315 38.9521 53.4893 39.4326 53.9639 39.7783C54.4444 40.1182 55.0772 40.2881 55.8623 40.2881C56.5948 40.2881 57.1866 40.127 57.6377 39.8047C58.0889 39.4824 58.3145 39.0752 58.3145 38.583ZM69.5687 36.3418C69.5687 37.8242 69.2406 39.002 68.5843 39.875C67.9281 40.7422 67.0492 41.1758 65.9476 41.1758C64.6468 41.1758 63.6507 40.7188 62.9593 39.8047V44.6562H61.9134V31.4902H62.889L62.9418 32.835C63.6273 31.8213 64.6205 31.3145 65.9212 31.3145C67.058 31.3145 67.9486 31.7451 68.5931 32.6064C69.2435 33.4678 69.5687 34.6631 69.5687 36.1924V36.3418ZM68.514 36.1572C68.514 34.9443 68.265 33.9863 67.767 33.2832C67.2689 32.5801 66.5746 32.2285 65.6839 32.2285C65.0394 32.2285 64.4857 32.3838 64.0228 32.6943C63.5599 33.0049 63.2054 33.4561 62.9593 34.0479V38.6094C63.2113 39.1543 63.5716 39.5703 64.0404 39.8574C64.5091 40.1445 65.0629 40.2881 65.7015 40.2881C66.5863 40.2881 67.2748 39.9365 67.767 39.2334C68.265 38.5244 68.514 37.499 68.514 36.1572ZM71.5065 36.1045C71.5065 35.1904 71.6823 34.3672 72.0339 33.6348C72.3913 32.9023 72.8923 32.334 73.5368 31.9297C74.1872 31.5195 74.9225 31.3145 75.7429 31.3145C77.0085 31.3145 78.0339 31.7598 78.819 32.6504C79.6042 33.5352 79.9968 34.71 79.9968 36.1748V36.3945C79.9968 37.3145 79.818 38.1436 79.4606 38.8818C79.1091 39.6143 78.611 40.1797 77.9665 40.5781C77.322 40.9766 76.5866 41.1758 75.7604 41.1758C74.5007 41.1758 73.4753 40.7334 72.6843 39.8486C71.8991 38.958 71.5065 37.7803 71.5065 36.3154V36.1045ZM72.5612 36.3945C72.5612 37.5312 72.8542 38.4658 73.4401 39.1982C74.0319 39.9248 74.8054 40.2881 75.7604 40.2881C76.7096 40.2881 77.4772 39.9248 78.0632 39.1982C78.655 38.4658 78.9509 37.502 78.9509 36.3066V36.1045C78.9509 35.3779 78.8161 34.7129 78.5466 34.1094C78.277 33.5059 77.8991 33.04 77.4128 32.7119C76.9264 32.3779 76.3698 32.2109 75.7429 32.2109C74.8054 32.2109 74.0407 32.5801 73.4489 33.3184C72.8571 34.0508 72.5612 35.0117 72.5612 36.2012V36.3945ZM83.3584 31.4902L83.3936 33.1162C83.751 32.5303 84.1963 32.085 84.7295 31.7803C85.2627 31.4697 85.8516 31.3145 86.4961 31.3145C87.5156 31.3145 88.2744 31.6016 88.7725 32.1758C89.2705 32.75 89.5225 33.6113 89.5283 34.7598V41H88.4824V34.751C88.4766 33.9014 88.2949 33.2686 87.9375 32.8525C87.5859 32.4365 87.0205 32.2285 86.2412 32.2285C85.5908 32.2285 85.0137 32.4336 84.5098 32.8438C84.0117 33.248 83.6426 33.7959 83.4023 34.4873V41H82.3564V31.4902H83.3584ZM98.1282 38.583C98.1282 38.0615 97.9173 37.6426 97.4954 37.3262C97.0794 37.0098 96.4495 36.7637 95.6058 36.5879C94.762 36.4062 94.1058 36.2012 93.637 35.9727C93.1741 35.7383 92.8284 35.4541 92.5999 35.1201C92.3773 34.7861 92.2659 34.3818 92.2659 33.9072C92.2659 33.1572 92.5794 32.5391 93.2064 32.0527C93.8333 31.5605 94.6361 31.3145 95.6146 31.3145C96.6751 31.3145 97.5247 31.5781 98.1634 32.1055C98.8079 32.627 99.1302 33.3096 99.1302 34.1533H98.0755C98.0755 33.5967 97.8411 33.1338 97.3724 32.7646C96.9095 32.3955 96.3236 32.2109 95.6146 32.2109C94.9232 32.2109 94.3665 32.3662 93.9446 32.6768C93.5286 32.9814 93.3206 33.3799 93.3206 33.8721C93.3206 34.3467 93.4935 34.7158 93.8392 34.9795C94.1907 35.2373 94.8265 35.4746 95.7464 35.6914C96.6722 35.9082 97.3636 36.1396 97.8206 36.3857C98.2835 36.6318 98.6263 36.9277 98.8489 37.2734C99.0716 37.6191 99.1829 38.0381 99.1829 38.5303C99.1829 39.333 98.8577 39.9746 98.2073 40.4551C97.5628 40.9355 96.7191 41.1758 95.6761 41.1758C94.5687 41.1758 93.6693 40.9092 92.9779 40.376C92.2923 39.8369 91.9495 39.1572 91.9495 38.3369H93.0042C93.0452 38.9521 93.303 39.4326 93.7777 39.7783C94.2581 40.1182 94.8909 40.2881 95.6761 40.2881C96.4085 40.2881 97.0003 40.127 97.4515 39.8047C97.9027 39.4824 98.1282 39.0752 98.1282 38.583ZM107.739 41C107.633 40.7012 107.566 40.2588 107.537 39.6729C107.168 40.1533 106.696 40.5254 106.122 40.7891C105.553 41.0469 104.95 41.1758 104.311 41.1758C103.397 41.1758 102.656 40.9209 102.088 40.4111C101.525 39.9014 101.244 39.2568 101.244 38.4775C101.244 37.5518 101.628 36.8193 102.395 36.2803C103.169 35.7412 104.244 35.4717 105.621 35.4717H107.528V34.3906C107.528 33.7109 107.317 33.1777 106.895 32.791C106.479 32.3984 105.87 32.2021 105.067 32.2021C104.335 32.2021 103.728 32.3896 103.248 32.7646C102.767 33.1396 102.527 33.5908 102.527 34.1182L101.472 34.1094C101.472 33.3535 101.824 32.7002 102.527 32.1494C103.23 31.5928 104.094 31.3145 105.12 31.3145C106.18 31.3145 107.015 31.5811 107.625 32.1143C108.24 32.6416 108.556 33.3799 108.574 34.3291V38.8291C108.574 39.749 108.671 40.4375 108.864 40.8945V41H107.739ZM104.434 40.2441C105.137 40.2441 105.764 40.0742 106.315 39.7344C106.872 39.3945 107.276 38.9404 107.528 38.3721V36.2803H105.647C104.598 36.292 103.778 36.4854 103.186 36.8604C102.594 37.2295 102.298 37.7393 102.298 38.3896C102.298 38.9229 102.495 39.3652 102.887 39.7168C103.286 40.0684 103.801 40.2441 104.434 40.2441ZM106.508 27.5H107.783L105.753 29.9609H104.83L106.508 27.5ZM114.388 39.5498L117.279 31.4902H118.36L114.81 41H113.957L110.389 31.4902H111.47L114.388 39.5498ZM123.831 41.1758C123.023 41.1758 122.29 40.9766 121.634 40.5781C120.984 40.1797 120.477 39.626 120.114 38.917C119.75 38.2021 119.569 37.4023 119.569 36.5176V36.1396C119.569 35.2256 119.744 34.4023 120.096 33.6699C120.453 32.9375 120.949 32.3633 121.581 31.9473C122.214 31.5254 122.9 31.3145 123.638 31.3145C124.792 31.3145 125.706 31.71 126.38 32.501C127.06 33.2861 127.4 34.3613 127.4 35.7266V36.3154H120.615V36.5176C120.615 37.5957 120.922 38.4951 121.537 39.2158C122.158 39.9307 122.938 40.2881 123.875 40.2881C124.438 40.2881 124.933 40.1855 125.361 39.9805C125.794 39.7754 126.187 39.4473 126.538 38.9961L127.198 39.4971C126.424 40.6162 125.302 41.1758 123.831 41.1758ZM123.638 32.2109C122.847 32.2109 122.179 32.501 121.634 33.0811C121.095 33.6611 120.767 34.4404 120.65 35.4189H126.354V35.3047C126.324 34.3906 126.064 33.6465 125.572 33.0723C125.079 32.498 124.435 32.2109 123.638 32.2109ZM130.805 41H129.751V27.5H130.805V41Z" fill="#7B7B7B"/>
</svg>
