<svg width="172" height="185" viewBox="0 0 172 185" fill="none" xmlns="http://www.w3.org/2000/svg">
<g filter="url(#filter0_d)">
<ellipse cx="83" cy="75.5" rx="78" ry="75.5" fill="white"/>
</g>
<path d="M60.1942 178.475H54.535L53.264 182H51.4271L56.5853 168.492H58.1439L63.3113 182H61.4837L60.1942 178.475ZM55.0731 177.009H59.6654L57.3646 170.691L55.0731 177.009ZM66.9154 182H65.1991V167.75H66.9154V182ZM76.058 182C75.9591 181.802 75.8787 181.45 75.8168 180.942C75.019 181.771 74.0665 182.186 72.9594 182.186C71.9698 182.186 71.1565 181.907 70.5195 181.351C69.8886 180.788 69.5732 180.076 69.5732 179.217C69.5732 178.172 69.969 177.361 70.7607 176.786C71.5585 176.205 72.678 175.914 74.1191 175.914H75.789V175.125C75.789 174.526 75.6096 174.049 75.2509 173.697C74.8922 173.338 74.3634 173.159 73.6645 173.159C73.0522 173.159 72.5388 173.313 72.1245 173.623C71.7101 173.932 71.5029 174.306 71.5029 174.745H69.7773C69.7773 174.244 69.9536 173.762 70.3061 173.298C70.6648 172.828 71.1472 172.457 71.7534 172.185C72.3657 171.912 73.0367 171.776 73.7665 171.776C74.9231 171.776 75.8292 172.067 76.4848 172.648C77.1404 173.224 77.4806 174.018 77.5053 175.033V179.653C77.5053 180.574 77.6228 181.307 77.8579 181.852V182H76.058ZM73.2099 180.692C73.748 180.692 74.2582 180.553 74.7407 180.274C75.2231 179.996 75.5725 179.634 75.789 179.189V177.129H74.4438C72.3409 177.129 71.2895 177.745 71.2895 178.976C71.2895 179.514 71.4689 179.934 71.8276 180.237C72.1863 180.54 72.6471 180.692 73.2099 180.692ZM85.2378 173.502C84.978 173.459 84.6966 173.437 84.3936 173.437C83.2679 173.437 82.5041 173.916 82.1021 174.875V182H80.3857V171.962H82.0557L82.0835 173.122C82.6463 172.225 83.4442 171.776 84.4771 171.776C84.811 171.776 85.0646 171.82 85.2378 171.906V173.502ZM88.6285 171.962L88.6749 173.075C89.4109 172.209 90.4035 171.776 91.6529 171.776C93.0569 171.776 94.0124 172.314 94.5196 173.391C94.8536 172.908 95.2865 172.519 95.8184 172.222C96.3565 171.925 96.9905 171.776 97.7203 171.776C99.9221 171.776 101.042 172.942 101.079 175.274V182H99.3624V175.376C99.3624 174.659 99.1985 174.124 98.8707 173.771C98.5429 173.412 97.9924 173.233 97.2193 173.233C96.5823 173.233 96.0534 173.425 95.6329 173.808C95.2123 174.185 94.968 174.696 94.9 175.339V182H93.1744V175.422C93.1744 173.963 92.46 173.233 91.0313 173.233C89.9057 173.233 89.1356 173.712 88.7212 174.671V182H87.0049V171.962H88.6285ZM108.032 182.186C106.671 182.186 105.564 181.74 104.711 180.85C103.857 179.953 103.43 178.756 103.43 177.259V176.944C103.43 175.948 103.619 175.061 103.996 174.281C104.38 173.496 104.912 172.883 105.592 172.444C106.278 171.999 107.021 171.776 107.818 171.776C109.123 171.776 110.138 172.206 110.861 173.066C111.585 173.926 111.947 175.156 111.947 176.758V177.473H105.147C105.171 178.462 105.459 179.263 106.009 179.875C106.566 180.482 107.271 180.785 108.125 180.785C108.731 180.785 109.244 180.661 109.665 180.414C110.085 180.166 110.453 179.838 110.769 179.43L111.817 180.247C110.976 181.539 109.714 182.186 108.032 182.186ZM107.818 173.187C107.126 173.187 106.544 173.44 106.074 173.947C105.604 174.448 105.314 175.153 105.202 176.062H110.231V175.933C110.181 175.061 109.946 174.386 109.526 173.91C109.105 173.428 108.536 173.187 107.818 173.187Z" fill="white"/>
<path d="M70.0527 70.5V87.292C68.3135 87.9091 67.0645 89.5697 67.0645 91.5176V96H99.9355V91.5176C99.9355 89.5697 98.6865 87.9091 96.9473 87.292V70.5C96.9473 63.0853 90.9147 57.0527 83.5 57.0527C76.0853 57.0527 70.0527 63.0853 70.0527 70.5ZM96.9473 93.0117H70.0527V91.5176C70.0527 90.6939 70.7232 90.0234 71.5469 90.0234H95.4531C96.2768 90.0234 96.9473 90.6939 96.9473 91.5176V93.0117ZM83.5 60.041C89.2672 60.041 93.959 64.7328 93.959 70.5V87.0352H73.041V70.5C73.041 64.7328 77.7328 60.041 83.5 60.041Z" fill="#7B7B7B"/>
<path d="M82.0059 66.0176H84.9941V74.9824H82.0059V66.0176Z" fill="#7B7B7B"/>
<path d="M82.0059 77.9707H84.9941V80.959H82.0059V77.9707Z" fill="#7B7B7B"/>
<path d="M58 69.0059H64.0762V71.9941H58V69.0059Z" fill="#7B7B7B"/>
<path d="M102.924 69.0059H109V71.9941H102.924V69.0059Z" fill="#7B7B7B"/>
<path d="M100.404 51.4824L102.517 53.5956L98.2913 57.8216L96.1781 55.7084L100.404 51.4824Z" fill="#7B7B7B"/>
<path d="M68.7088 57.822L64.4828 53.596L66.5956 51.4828L70.8216 55.7088L68.7088 57.822Z" fill="#7B7B7B"/>
<path d="M82.0059 45H84.9941V51.0762H82.0059V45Z" fill="#7B7B7B"/>
<defs>
<filter id="filter0_d" x="0" y="0" width="172" height="168" filterUnits="userSpaceOnUse" color-interpolation-filters="sRGB">
<feFlood flood-opacity="0" result="BackgroundImageFix"/>
<feColorMatrix in="SourceAlpha" type="matrix" values="0 0 0 0 0 0 0 0 0 0 0 0 0 0 0 0 0 0 127 0"/>
<feOffset dx="3" dy="9"/>
<feGaussianBlur stdDeviation="4"/>
<feColorMatrix type="matrix" values="0 0 0 0 0 0 0 0 0 0 0 0 0 0 0 0 0 0 0.122 0"/>
<feBlend mode="normal" in2="BackgroundImageFix" result="effect1_dropShadow"/>
<feBlend mode="normal" in="SourceGraphic" in2="effect1_dropShadow" result="shape"/>
</filter>
</defs>
</svg>
