<svg width="172" height="185" viewBox="0 0 172 185" fill="none" xmlns="http://www.w3.org/2000/svg">
<g filter="url(#filter0_d)">
<ellipse cx="83" cy="75.5" rx="78" ry="75.5" fill="white"/>
</g>
<path d="M51.7681 182H49.9869V168.492H51.7681V182ZM56.5689 171.962L56.6153 173.075C57.3513 172.209 58.344 171.776 59.5934 171.776C60.9973 171.776 61.9529 172.314 62.4601 173.391C62.794 172.908 63.227 172.519 63.7589 172.222C64.297 171.925 64.9309 171.776 65.6607 171.776C67.8626 171.776 68.982 172.942 69.0191 175.274V182H67.3028V175.376C67.3028 174.659 67.1389 174.124 66.8111 173.771C66.4833 173.412 65.9329 173.233 65.1598 173.233C64.5227 173.233 63.9939 173.425 63.5733 173.808C63.1528 174.185 62.9085 174.696 62.8404 175.339V182H61.1148V175.422C61.1148 173.963 60.4005 173.233 58.9718 173.233C57.8461 173.233 57.0761 173.712 56.6617 174.671V182H54.9454V171.962H56.5689ZM71.3522 176.888C71.3522 175.905 71.5439 175.02 71.9274 174.235C72.317 173.449 72.8551 172.843 73.5417 172.417C74.2344 171.99 75.0229 171.776 75.9074 171.776C77.2742 171.776 78.3782 172.25 79.2194 173.196C80.0667 174.142 80.4904 175.401 80.4904 176.972V177.092C80.4904 178.069 80.3017 178.948 79.9245 179.727C79.5534 180.5 79.0184 181.103 78.3195 181.536C77.6268 181.969 76.8289 182.186 75.9259 182.186C74.5653 182.186 73.4613 181.712 72.6139 180.766C71.7728 179.82 71.3522 178.567 71.3522 177.009V176.888ZM73.0778 177.092C73.0778 178.206 73.3345 179.099 73.8478 179.773C74.3673 180.448 75.0601 180.785 75.9259 180.785C76.798 180.785 77.4907 180.444 78.0041 179.764C78.5174 179.078 78.7741 178.119 78.7741 176.888C78.7741 175.787 78.5112 174.897 77.9855 174.216C77.466 173.53 76.7733 173.187 75.9074 173.187C75.0601 173.187 74.3766 173.524 73.8571 174.198C73.3376 174.872 73.0778 175.837 73.0778 177.092ZM76.6867 167.75H78.7648L76.2785 170.478H74.8962L76.6867 167.75ZM85.9963 179.671L88.4826 171.962H90.2361L86.6364 182H85.3283L81.6916 171.962H83.445L85.9963 179.671ZM96.1131 182.186C94.7524 182.186 93.6453 181.74 92.7918 180.85C91.9383 179.953 91.5115 178.756 91.5115 177.259V176.944C91.5115 175.948 91.7001 175.061 92.0774 174.281C92.4609 173.496 92.9928 172.883 93.6731 172.444C94.3596 171.999 95.1018 171.776 95.8997 171.776C97.2047 171.776 98.219 172.206 98.9427 173.066C99.6663 173.926 100.028 175.156 100.028 176.758V177.473H93.2278C93.2525 178.462 93.5401 179.263 94.0906 179.875C94.6472 180.482 95.3523 180.785 96.2058 180.785C96.812 180.785 97.3253 180.661 97.7459 180.414C98.1664 180.166 98.5345 179.838 98.8499 179.43L99.8982 180.247C99.0571 181.539 97.7954 182.186 96.1131 182.186ZM95.8997 173.187C95.207 173.187 94.6256 173.44 94.1555 173.947C93.6855 174.448 93.3948 175.153 93.2835 176.062H98.3118V175.933C98.2623 175.061 98.0273 174.386 97.6067 173.91C97.1861 173.428 96.6171 173.187 95.8997 173.187ZM104.077 182H102.361V171.962H104.077V182ZM102.222 169.299C102.222 169.021 102.306 168.786 102.472 168.594C102.646 168.403 102.899 168.307 103.233 168.307C103.567 168.307 103.821 168.403 103.994 168.594C104.167 168.786 104.254 169.021 104.254 169.299C104.254 169.578 104.167 169.81 103.994 169.995C103.821 170.181 103.567 170.273 103.233 170.273C102.899 170.273 102.646 170.181 102.472 169.995C102.306 169.81 102.222 169.578 102.222 169.299ZM112.868 179.337C112.868 178.874 112.691 178.515 112.339 178.261C111.992 178.001 111.383 177.779 110.511 177.593C109.645 177.408 108.956 177.185 108.442 176.925C107.935 176.666 107.558 176.356 107.31 175.998C107.069 175.639 106.949 175.212 106.949 174.717C106.949 173.895 107.295 173.199 107.988 172.63C108.687 172.061 109.577 171.776 110.66 171.776C111.798 171.776 112.719 172.07 113.424 172.658C114.135 173.245 114.491 173.997 114.491 174.912H112.766C112.766 174.442 112.565 174.037 112.162 173.697C111.767 173.357 111.266 173.187 110.66 173.187C110.035 173.187 109.546 173.323 109.194 173.595C108.841 173.867 108.665 174.222 108.665 174.662C108.665 175.076 108.829 175.388 109.157 175.599C109.484 175.809 110.075 176.01 110.929 176.202C111.788 176.393 112.484 176.622 113.016 176.888C113.548 177.154 113.941 177.476 114.194 177.853C114.454 178.224 114.584 178.679 114.584 179.217C114.584 180.114 114.225 180.834 113.508 181.378C112.79 181.917 111.859 182.186 110.715 182.186C109.911 182.186 109.2 182.043 108.581 181.759C107.963 181.474 107.477 181.078 107.125 180.571C106.779 180.058 106.605 179.504 106.605 178.911H108.322C108.353 179.486 108.581 179.944 109.008 180.284C109.441 180.618 110.01 180.785 110.715 180.785C111.365 180.785 111.884 180.655 112.274 180.395C112.67 180.129 112.868 179.777 112.868 179.337Z" fill="white"/>
<g clip-path="url(#clip0)">
<path d="M103.755 91.84H73.6641C72.4239 91.84 71.4187 90.8348 71.4187 89.5946C71.4187 88.3544 72.4239 87.3492 73.6641 87.3492H103.755C104.995 87.3492 106 88.3544 106 89.5946C106 90.8348 104.996 91.84 103.755 91.84Z" fill="#7B7B7B"/>
<path d="M103.755 77.7458H73.6641C72.4239 77.7458 71.4187 76.7406 71.4187 75.5004C71.4187 74.2602 72.4239 73.255 73.6641 73.255H103.755C104.995 73.255 106 74.2602 106 75.5004C106.001 76.7406 104.996 77.7458 103.755 77.7458Z" fill="#7B7B7B"/>
<path d="M103.755 63.6514H73.6641C72.4239 63.6514 71.4187 62.6462 71.4187 61.406C71.4187 60.1658 72.4239 59.1606 73.6641 59.1606H103.755C104.995 59.1606 106 60.1658 106 61.406C106 62.6462 104.996 63.6514 103.755 63.6514Z" fill="#7B7B7B"/>
<path d="M64.0156 64.5952C65.681 64.5952 67.0311 63.2451 67.0311 61.5797C67.0311 59.9142 65.681 58.5641 64.0156 58.5641C62.3501 58.5641 61 59.9142 61 61.5797C61 63.2451 62.3501 64.5952 64.0156 64.5952Z" fill="#7B7B7B"/>
<path d="M64.0156 78.5159C65.681 78.5159 67.0311 77.1658 67.0311 75.5003C67.0311 73.8349 65.681 72.4847 64.0156 72.4847C62.3501 72.4847 61 73.8349 61 75.5003C61 77.1658 62.3501 78.5159 64.0156 78.5159Z" fill="#7B7B7B"/>
<path d="M64.0156 92.4367C65.681 92.4367 67.0311 91.0865 67.0311 89.4211C67.0311 87.7556 65.681 86.4055 64.0156 86.4055C62.3501 86.4055 61 87.7556 61 89.4211C61 91.0865 62.3501 92.4367 64.0156 92.4367Z" fill="#7B7B7B"/>
</g>
<defs>
<filter id="filter0_d" x="0" y="0" width="172" height="168" filterUnits="userSpaceOnUse" color-interpolation-filters="sRGB">
<feFlood flood-opacity="0" result="BackgroundImageFix"/>
<feColorMatrix in="SourceAlpha" type="matrix" values="0 0 0 0 0 0 0 0 0 0 0 0 0 0 0 0 0 0 127 0"/>
<feOffset dx="3" dy="9"/>
<feGaussianBlur stdDeviation="4"/>
<feColorMatrix type="matrix" values="0 0 0 0 0 0 0 0 0 0 0 0 0 0 0 0 0 0 0.122 0"/>
<feBlend mode="normal" in2="BackgroundImageFix" result="effect1_dropShadow"/>
<feBlend mode="normal" in="SourceGraphic" in2="effect1_dropShadow" result="shape"/>
</filter>
<clipPath id="clip0">
<rect width="45" height="45" fill="white" transform="translate(61 53)"/>
</clipPath>
</defs>
</svg>
