<svg width="70" height="103" viewBox="0 0 70 103" fill="none" xmlns="http://www.w3.org/2000/svg">
<path d="M15.3711 86.2031V94.8691C15.3711 96.2227 14.9785 97.2803 14.1934 98.042C13.4082 98.7979 12.3447 99.1758 11.0029 99.1758C9.66113 99.1758 8.59766 98.7979 7.8125 98.042C7.02734 97.2803 6.63184 96.2344 6.62598 94.9043V86.2031H7.10059V94.8516C7.10059 96.0352 7.45508 96.9727 8.16406 97.6641C8.87891 98.3555 9.8252 98.7012 11.0029 98.7012C12.1807 98.7012 13.124 98.3555 13.833 97.6641C14.542 96.9727 14.8965 96.0322 14.8965 94.8428V86.2031H15.3711ZM24.3799 96.6709C24.3799 95.5166 23.3955 94.7314 21.4268 94.3154C20.2432 94.0635 19.4199 93.7412 18.957 93.3486C18.4941 92.9502 18.2627 92.4053 18.2627 91.7139C18.2627 91.0166 18.5557 90.4424 19.1416 89.9912C19.7334 89.54 20.501 89.3145 21.4443 89.3145C22.4697 89.3145 23.293 89.5605 23.9141 90.0527C24.5352 90.5391 24.8457 91.1982 24.8457 92.0303H24.3623C24.3623 91.3916 24.0928 90.8584 23.5537 90.4307C23.0146 90.0029 22.3115 89.7891 21.4443 89.7891C20.6123 89.7891 19.9531 89.9707 19.4668 90.334C18.9805 90.6973 18.7373 91.1514 18.7373 91.6963C18.7373 92.124 18.8281 92.4609 19.0098 92.707C19.1914 92.9473 19.4873 93.167 19.8975 93.3662C20.3076 93.5596 20.9053 93.7471 21.6904 93.9287C22.4756 94.1104 23.0967 94.3242 23.5537 94.5703C24.0107 94.8164 24.3418 95.1094 24.5469 95.4492C24.752 95.7832 24.8545 96.1934 24.8545 96.6797C24.8545 97.4297 24.5469 98.0332 23.9316 98.4902C23.3164 98.9473 22.5107 99.1758 21.5146 99.1758C20.4482 99.1758 19.5869 98.9355 18.9307 98.4551C18.2803 97.9688 17.9551 97.3447 17.9551 96.583H18.4297C18.4766 97.251 18.7695 97.7725 19.3086 98.1475C19.8535 98.5166 20.5889 98.7012 21.5146 98.7012C22.3643 98.7012 23.0527 98.5049 23.5801 98.1123C24.1133 97.7139 24.3799 97.2334 24.3799 96.6709ZM33.8545 99V97.4619C33.5732 97.9893 33.1631 98.4082 32.624 98.7188C32.085 99.0234 31.4023 99.1758 30.5762 99.1758C29.5391 99.1758 28.7598 98.874 28.2383 98.2705C27.7227 97.6611 27.459 96.7764 27.4473 95.6162V89.4902H27.9219V95.6338C27.9336 96.6416 28.1621 97.4062 28.6074 97.9277C29.0527 98.4434 29.7031 98.7012 30.5586 98.7012C31.4668 98.7012 32.2051 98.4873 32.7734 98.0596C33.3418 97.6318 33.7021 97.0049 33.8545 96.1787V89.4902H34.3379V99H33.8545ZM43.4873 99C43.3701 98.5957 43.3115 98.0156 43.3115 97.2598C42.9365 97.8691 42.4238 98.3408 41.7734 98.6748C41.123 99.0088 40.3877 99.1758 39.5674 99.1758C38.6885 99.1758 37.9795 98.9385 37.4404 98.4639C36.9072 97.9834 36.6406 97.3594 36.6406 96.5918C36.6406 95.7188 37.0332 95.0215 37.8184 94.5C38.6094 93.9727 39.6582 93.7031 40.9648 93.6914H43.3115V92.3027C43.3115 91.5059 43.0596 90.8877 42.5557 90.4482C42.0576 90.0088 41.3428 89.7891 40.4111 89.7891C39.5439 89.7891 38.8203 90.0117 38.2402 90.457C37.6602 90.9023 37.3701 91.4531 37.3701 92.1094L36.8955 92.0918C36.8955 91.3184 37.2354 90.6621 37.915 90.123C38.5947 89.584 39.4268 89.3145 40.4111 89.3145C41.4365 89.3145 42.251 89.5723 42.8545 90.0879C43.458 90.5977 43.7686 91.3184 43.7861 92.25V96.7939C43.7861 97.8369 43.8682 98.5459 44.0322 98.9209V99H43.4873ZM39.5674 98.71C40.458 98.71 41.2227 98.5107 41.8613 98.1123C42.5059 97.7139 42.9893 97.1543 43.3115 96.4336V94.1748H41.1143C39.7549 94.1748 38.7148 94.4443 37.9941 94.9834C37.4082 95.4229 37.1152 95.9707 37.1152 96.627C37.1152 97.207 37.3467 97.6992 37.8096 98.1035C38.2725 98.5078 38.8584 98.71 39.5674 98.71ZM42.2129 85.5H42.793L41.0791 87.8379H40.5518L42.2129 85.5ZM51.0459 89.833L50.4307 89.7803C49.6221 89.7803 48.9453 90.0439 48.4004 90.5713C47.8555 91.0928 47.498 91.8252 47.3281 92.7686V99H46.8535V89.4902H47.3281V91.4678C47.5859 90.8057 47.9727 90.2812 48.4883 89.8945C49.0039 89.5078 49.6514 89.3145 50.4307 89.3145C50.7061 89.3145 50.9287 89.3467 51.0986 89.4111L51.0459 89.833ZM53.4717 99H52.9971V89.4902H53.4717V99ZM52.751 86.5195C52.751 86.3848 52.7979 86.2705 52.8916 86.1768C52.9854 86.0771 53.0996 86.0273 53.2344 86.0273C53.3691 86.0273 53.4834 86.0771 53.5771 86.1768C53.6768 86.2705 53.7266 86.3848 53.7266 86.5195C53.7266 86.6543 53.6768 86.7686 53.5771 86.8623C53.4834 86.9561 53.3691 87.0029 53.2344 87.0029C53.0996 87.0029 52.9854 86.9561 52.8916 86.8623C52.7979 86.7686 52.751 86.6543 52.751 86.5195ZM55.8711 94.0605C55.8711 93.1523 56.0439 92.3379 56.3896 91.6172C56.7412 90.8906 57.2334 90.3252 57.8662 89.9209C58.5049 89.5166 59.2256 89.3145 60.0283 89.3145C60.8252 89.3145 61.54 89.5107 62.1729 89.9033C62.8057 90.2959 63.2979 90.8525 63.6494 91.5732C64.0068 92.2939 64.1885 93.1055 64.1943 94.0078V94.4297C64.1943 95.3438 64.0215 96.1611 63.6758 96.8818C63.3301 97.6025 62.8379 98.165 62.1992 98.5693C61.5664 98.9736 60.8486 99.1758 60.0459 99.1758C59.2432 99.1758 58.5225 98.9766 57.8838 98.5781C57.251 98.1797 56.7588 97.623 56.4072 96.9082C56.0557 96.1875 55.877 95.3789 55.8711 94.4824V94.0605ZM56.3457 94.4297C56.3457 95.2207 56.501 95.9473 56.8115 96.6094C57.1279 97.2656 57.5645 97.7783 58.1211 98.1475C58.6836 98.5166 59.3252 98.7012 60.0459 98.7012C61.1299 98.7012 62.0117 98.2939 62.6914 97.4795C63.377 96.665 63.7197 95.6162 63.7197 94.333V94.0605C63.7197 93.2812 63.5615 92.5605 63.2451 91.8984C62.9287 91.2363 62.4893 90.7207 61.9268 90.3516C61.3701 89.9766 60.7373 89.7891 60.0283 89.7891C58.9443 89.7891 58.0596 90.2021 57.374 91.0283C56.6885 91.8545 56.3457 92.8945 56.3457 94.1484V94.4297Z" fill="#7B7B7B"/>
<path d="M70 35C70 15.7016 54.2984 0 35 0C15.7016 0 0 15.7016 0 35C0 45.1933 4.38327 54.3811 11.3604 60.7829L11.3273 60.8122L12.4625 61.7693C12.5364 61.8316 12.6165 61.8825 12.6904 61.9436C13.2936 62.4438 13.9185 62.9185 14.5549 63.378C14.7611 63.5269 14.9673 63.6758 15.1773 63.8209C15.8569 64.2893 16.5544 64.7335 17.2671 65.1547C17.4224 65.2464 17.5789 65.3354 17.7355 65.4245C18.5156 65.8687 19.3124 66.2875 20.1282 66.6718C20.188 66.6998 20.2491 66.7253 20.3089 66.7533C22.9676 67.9891 25.8058 68.8965 28.7738 69.4324C28.8515 69.4464 28.9291 69.4604 29.008 69.4744C29.9295 69.6335 30.8611 69.7607 31.8042 69.846C31.9187 69.8562 32.0333 69.8625 32.1491 69.8727C33.0884 69.9504 34.0378 70 35 70C35.9533 70 36.8938 69.9504 37.828 69.8753C37.9464 69.8651 38.0647 69.8587 38.1831 69.8485C39.1185 69.7633 40.0425 69.6398 40.9551 69.4833C41.034 69.4693 41.1142 69.4553 41.1931 69.44C44.1165 68.9156 46.914 68.0285 49.5384 66.8245C49.6351 66.78 49.7331 66.738 49.8298 66.6922C50.6151 66.3231 51.3825 65.9247 52.1347 65.5009C52.3218 65.3953 52.5076 65.2884 52.6935 65.1789C53.3782 64.7755 54.0515 64.3542 54.7056 63.9062C54.9411 63.7458 55.1715 63.5765 55.4044 63.4085C55.9631 63.0064 56.5116 62.5915 57.0449 62.1575C57.1633 62.062 57.2905 61.9793 57.4064 61.8813L58.5709 60.9089L58.5365 60.8796C65.5747 54.4753 70 45.2455 70 35ZM2.54545 35C2.54545 17.1042 17.1042 2.54545 35 2.54545C52.8958 2.54545 67.4545 17.1042 67.4545 35C67.4545 44.6435 63.2227 53.3133 56.5231 59.262C56.1489 59.0036 55.7722 58.772 55.3865 58.5785L44.6104 53.1911C43.6431 52.7075 43.0424 51.7351 43.0424 50.6545V46.8911C43.2918 46.5831 43.5553 46.2344 43.8276 45.8513C45.2225 43.8811 46.3413 41.6895 47.1571 39.3311C48.7696 38.5649 49.8107 36.9587 49.8107 35.1451V30.6333C49.8107 29.5298 49.406 28.4595 48.6818 27.6182V21.6784C48.748 21.0178 48.9822 17.29 46.2853 14.2151C43.9396 11.5373 40.1431 10.1818 35 10.1818C29.8569 10.1818 26.0604 11.5373 23.7147 14.2138C21.0178 17.2887 21.252 21.0165 21.3182 21.6771V27.6169C20.5953 28.4582 20.1893 29.5285 20.1893 30.632V35.1438C20.1893 36.5451 20.818 37.8522 21.8947 38.7342C22.9256 42.7725 25.0473 45.8296 25.8313 46.8656V50.5489C25.8313 51.5875 25.2649 52.542 24.3524 53.0409L14.2889 58.5302C13.9682 58.7045 13.65 58.9082 13.3318 59.136C6.71491 53.1898 2.54545 44.5735 2.54545 35ZM54.0387 61.2589C53.5933 61.5822 53.1402 61.8953 52.6807 62.1944C52.4695 62.3318 52.2595 62.4693 52.0444 62.6029C51.4436 62.9745 50.8327 63.3284 50.2091 63.6593C50.0716 63.7318 49.9329 63.8005 49.7942 63.8718C48.3611 64.6062 46.8784 65.2374 45.3549 65.7504C45.3015 65.7682 45.248 65.7873 45.1933 65.8051C44.3953 66.0698 43.5871 66.3053 42.77 66.5076C42.7675 66.5076 42.7649 66.5089 42.7624 66.5089C41.9376 66.7125 41.1027 66.8818 40.2627 67.0205C40.2398 67.0244 40.2169 67.0294 40.194 67.0333C39.4036 67.1618 38.6069 67.2547 37.8076 67.3247C37.6664 67.3374 37.5251 67.3464 37.3825 67.3565C36.5922 67.4164 35.798 67.4545 35 67.4545C34.1931 67.4545 33.3887 67.4151 32.5882 67.3553C32.4495 67.3451 32.3107 67.3362 32.1733 67.3235C31.3664 67.2522 30.5633 67.1567 29.7678 67.0269C29.7322 67.0205 29.6965 67.0142 29.6609 67.0078C27.9784 66.7265 26.3225 66.3129 24.71 65.772C24.6604 65.7555 24.6095 65.7376 24.5598 65.7211C23.7593 65.4487 22.9676 65.1471 22.19 64.8136C22.1849 64.8111 22.1785 64.8085 22.1735 64.806C21.4378 64.4891 20.7162 64.1378 20.0035 63.7675C19.9105 63.7191 19.8164 63.6733 19.7247 63.6236C19.0744 63.2762 18.438 62.9007 17.8105 62.5087C17.6247 62.3916 17.4402 62.2733 17.2569 62.1536C16.6791 61.7756 16.1089 61.3824 15.554 60.9662C15.4967 60.9229 15.442 60.8771 15.3847 60.8338C15.4255 60.8109 15.4662 60.788 15.5069 60.7651L25.5704 55.2758C27.3013 54.3315 28.3767 52.5204 28.3767 50.5489L28.3755 45.9645L28.0827 45.6107C28.0547 45.5789 25.3031 42.2316 24.2633 37.6995L24.1475 37.1955L23.7135 36.9142C23.1013 36.5184 22.7347 35.8565 22.7347 35.1425V30.6307C22.7347 30.0389 22.9855 29.4878 23.4436 29.0742L23.8636 28.6949V21.6058L23.8522 21.4391C23.8484 21.4085 23.4729 18.3476 25.6289 15.89C27.4693 13.7925 30.6231 12.7273 35 12.7273C39.3604 12.7273 42.504 13.7836 44.3495 15.8658C46.5029 18.298 46.1504 21.4162 46.1478 21.4416L46.1364 28.6975L46.5564 29.0767C47.0133 29.4891 47.2653 30.0415 47.2653 30.6333V35.1451C47.2653 36.0525 46.648 36.876 45.7622 37.1496L45.1296 37.3444L44.926 37.9744C44.1751 40.3073 43.106 42.462 41.7493 44.3787C41.4158 44.8496 41.0913 45.2671 40.8125 45.5865L40.4969 45.9467V50.6545C40.4969 52.7062 41.6373 54.5516 43.4725 55.468L54.2487 60.8555C54.3175 60.8898 54.3849 60.9255 54.4524 60.9611C54.3162 61.0642 54.1762 61.1596 54.0387 61.2589Z" fill="#7B7B7B"/>
</svg>
